<?xml version="1.0" standalone="no"?>
<!DOCTYPE svg PUBLIC "-//W3C//DTD SVG 20010904//EN"
 "http://www.w3.org/TR/2001/REC-SVG-20010904/DTD/svg10.dtd">
<svg version="1.0" xmlns="http://www.w3.org/2000/svg"
 width="450.000000pt" height="338.000000pt" viewBox="0 0 450.000000 338.000000"
 preserveAspectRatio="xMidYMid meet">

<g transform="translate(0.000000,338.000000) scale(0.100000,-0.100000)"
fill="#000000" stroke="none">
<path d="M2921 2426 c-16 -20 -10 -56 12 -70 27 -17 52 4 52 45 0 29 -4 34
-26 37 -14 2 -31 -4 -38 -12z"/>
<path d="M3016 2404 c-30 -30 -14 -84 24 -84 21 0 50 31 50 53 0 19 -26 47
-45 47 -7 0 -21 -7 -29 -16z"/>
<path d="M2290 2171 c-15 -30 -12 -56 9 -75 43 -39 90 18 57 69 -20 30 -51 33
-66 6z"/>
<path d="M1882 2152 c-19 -56 42 -98 72 -50 17 27 -4 72 -36 76 -21 3 -28 -2
-36 -26z"/>
<path d="M2784 2125 c-4 -8 -14 -15 -23 -15 -9 0 -22 -9 -29 -20 -11 -19 -8
-18 54 5 37 14 68 25 70 25 2 0 4 4 4 9 0 4 -11 6 -25 3 -14 -2 -25 -8 -25
-13 0 -5 -5 -9 -11 -9 -6 0 -9 7 -5 15 3 8 3 15 0 15 -2 0 -7 -7 -10 -15z"/>
<path d="M3027 2122 c-6 -9 31 -57 38 -50 10 9 -7 38 -22 38 -8 0 -11 5 -8 10
3 6 4 10 1 10 -3 0 -7 -3 -9 -8z"/>
<path d="M3587 2102 c-21 -23 -22 -56 -1 -76 20 -21 30 -20 54 4 24 24 26 53
4 74 -20 21 -37 20 -57 -2z"/>
<path d="M3076 2074 c-5 -12 2 -26 20 -43 15 -14 23 -19 18 -11 -5 8 -10 24
-11 35 -5 29 -19 39 -27 19z"/>
<path d="M2340 2033 c0 -7 45 -38 73 -51 12 -6 8 33 -5 46 -13 13 -68 17 -68
5z"/>
<path d="M3948 2029 c-18 -10 -23 -44 -12 -73 4 -10 18 -16 35 -16 39 0 57 41
34 76 -17 26 -30 29 -57 13z"/>
<path d="M1872 2014 c-12 -8 -22 -24 -22 -35 0 -23 13 -25 30 -4 7 8 21 15 31
15 24 0 24 16 1 29 -14 7 -25 6 -40 -5z"/>
<path d="M3514 1997 c-11 -30 2 -131 24 -173 34 -66 101 -113 194 -138 73 -19
128 -7 193 42 43 33 103 118 90 130 -2 3 -27 -5 -54 -16 -72 -32 -145 -37
-216 -18 -69 20 -149 74 -173 118 -10 17 -25 40 -34 52 -15 20 -17 20 -24 3z"/>
<path d="M2305 1974 c-94 -56 -280 -68 -367 -25 -45 22 -49 12 -19 -47 26 -50
87 -107 141 -131 48 -22 90 -29 58 -10 -10 5 -18 16 -18 23 0 27 69 36 89 12
10 -11 7 -17 -11 -30 -31 -22 -10 -20 38 3 75 37 136 119 146 200 4 32 -9 34
-57 5z"/>
<path d="M1718 1873 c4 -10 17 -36 29 -58 11 -22 26 -60 33 -85 6 -25 23 -56
37 -69 18 -17 23 -29 18 -45 -4 -11 -11 -66 -16 -121 -5 -55 -14 -143 -19
-195 -6 -52 -10 -118 -10 -147 0 -28 -4 -54 -9 -58 -6 -3 -27 13 -49 36 -32
34 -43 41 -64 36 -22 -6 -24 -11 -23 -49 1 -30 -3 -48 -16 -60 -23 -22 -94
-47 -117 -41 -11 2 -32 -8 -52 -26 -19 -17 -39 -31 -43 -31 -5 0 -5 -4 -2 -10
3 -5 1 -10 -4 -10 -6 0 -16 -20 -23 -44 -6 -25 -15 -43 -20 -40 -4 3 -4 -6 2
-20 5 -14 7 -34 3 -43 -3 -10 -3 -15 2 -11 4 4 12 31 16 59 10 61 29 93 72
119 35 22 97 26 128 9 16 -8 26 -5 50 15 23 19 42 26 75 26 44 0 44 0 44 -34
0 -19 -4 -38 -10 -41 -5 -3 -10 -14 -10 -23 0 -9 -18 -34 -41 -55 -38 -37 -43
-38 -102 -36 -70 2 -111 24 -121 64 -8 31 -30 24 -46 -15 -12 -29 -10 -90 5
-140 6 -22 5 -21 -16 7 -28 38 -41 42 -35 11 3 -13 7 -34 10 -48 6 -27 25 -45
71 -66 23 -10 25 -13 10 -14 -17 0 -17 -2 -5 -10 8 -5 23 -10 33 -10 32 0 145
-95 148 -124 4 -44 -5 -73 -29 -94 -45 -38 -49 -40 -83 -57 -19 -8 -44 -22
-57 -29 -23 -13 -23 -13 10 -21 20 -4 27 -9 18 -12 -34 -12 -49 -35 -43 -64 4
-22 2 -29 -11 -29 -21 0 -21 -16 0 -24 30 -11 209 -6 255 8 61 19 75 10 59
-38 -6 -19 -16 -38 -21 -42 -5 -3 -7 -14 -4 -24 3 -10 1 -21 -5 -25 -30 -19 2
-25 130 -25 l139 0 10 38 c6 20 11 42 11 47 1 18 38 55 56 55 10 0 25 -7 35
-16 16 -14 19 -12 46 27 15 24 39 46 53 50 45 13 116 9 136 -6 27 -20 32 -19
47 13 10 21 11 92 7 337 -7 335 2 617 20 705 7 30 14 57 16 59 2 2 20 -11 40
-28 33 -30 137 -83 152 -79 6 2 150 -51 161 -59 2 -1 -2 -17 -10 -35 -10 -24
-10 -33 -1 -36 19 -6 14 -36 -12 -75 l-24 -35 24 -6 c25 -7 31 -20 14 -31 -5
-3 -10 -17 -10 -30 0 -12 -7 -25 -15 -29 -27 -10 -17 -28 13 -22 15 2 58 8 95
11 69 7 69 7 61 -17 -4 -12 -22 -42 -39 -66 -27 -34 -32 -50 -30 -80 13 -134
1 -343 -21 -379 -23 -37 -70 -53 -155 -53 -81 0 -129 -14 -129 -36 0 -7 11
-24 25 -38 l26 -26 28 33 c27 30 33 32 83 29 73 -5 78 -5 120 3 28 6 44 3 64
-10 25 -16 26 -21 21 -73 l-6 -56 19 30 c11 16 20 32 20 36 0 4 11 31 24 60
28 59 41 111 89 343 l33 160 -7 230 c-4 127 -10 260 -14 296 l-6 67 88 4 c48
2 89 3 91 3 1 -1 -16 -69 -38 -151 -40 -150 -53 -225 -24 -149 8 22 22 65 30
95 20 72 41 93 128 124 68 24 81 25 189 19 64 -3 117 -10 117 -15 0 -4 7 -8
15 -8 28 0 39 -43 20 -80 -9 -17 -14 -34 -11 -38 3 -3 1 -11 -5 -19 -22 -25 9
-13 55 22 26 19 49 35 51 35 3 0 -6 -17 -20 -37 -14 -21 -25 -42 -25 -46 0 -5
-25 -37 -55 -72 -30 -34 -55 -67 -55 -74 0 -6 -7 -11 -15 -11 -8 0 -15 -4 -15
-10 0 -5 5 -10 10 -10 6 0 10 -4 10 -10 0 -5 -5 -10 -11 -10 -12 0 -29 -17
-47 -49 -12 -20 -11 -23 7 -28 27 -7 26 -9 -4 -37 -14 -13 -25 -26 -25 -30 0
-3 26 -6 59 -6 52 0 59 -2 64 -22 4 -12 2 -27 -2 -32 -5 -6 -11 -24 -14 -41
-11 -58 -32 -133 -40 -141 -4 -4 -7 -19 -7 -34 0 -14 -4 -30 -8 -35 -13 -15
-32 -89 -32 -124 0 -17 -4 -31 -10 -31 -5 0 -10 -11 -10 -24 0 -14 -5 -28 -10
-31 -6 -4 -8 -15 -5 -25 4 -14 -6 -31 -35 -60 l-41 -41 41 -16 c35 -14 40 -20
35 -40 -6 -27 10 -30 39 -8 25 19 36 19 36 0 0 -12 13 -15 60 -15 35 0 60 4
60 10 0 6 7 27 16 48 9 20 16 48 15 62 -1 14 3 57 9 95 7 39 13 81 15 95 9 74
35 200 48 235 8 22 20 65 27 95 6 30 20 82 30 115 10 33 30 119 45 190 14 72
32 157 40 190 19 78 34 221 28 263 -4 27 -8 30 -20 21 -12 -11 -14 -5 -11 37
3 46 5 50 52 81 28 18 59 42 70 53 16 17 12 15 -21 -6 -23 -14 -43 -25 -45
-24 -2 2 -14 -3 -28 -10 -38 -21 -46 -22 -170 -23 -114 -2 -116 -1 -192 36
-42 20 -80 37 -84 37 -4 0 -24 15 -43 33 -18 17 -31 26 -27 20 4 -7 5 -13 1
-13 -3 0 -10 12 -16 26 -5 15 -12 24 -15 21 -3 -3 -17 6 -30 21 -30 34 -30 22
1 -66 31 -89 31 -105 0 -157 -18 -32 -40 -50 -86 -74 -33 -17 -67 -31 -75 -31
-9 0 -13 -4 -10 -8 3 -4 -39 -8 -92 -7 -70 1 -110 6 -142 20 -63 26 -147 81
-181 118 l-29 31 0 -25 c0 -26 -91 -139 -112 -139 -20 0 -159 111 -170 136
-12 26 -23 30 -33 14 -13 -21 -45 -10 -61 21 -42 82 27 218 140 277 39 20 68
26 126 28 46 2 76 7 79 15 3 9 -18 10 -80 7 -46 -3 -92 -9 -101 -13 -13 -5
-18 -2 -18 10 0 10 -40 -19 -110 -82 -61 -54 -136 -114 -167 -133 -56 -35 -57
-35 -167 -34 -90 0 -119 4 -156 21 -80 37 -144 93 -195 170 -47 73 -72 101
-57 66z m1869 -364 c16 -17 29 -35 29 -40 1 -5 2 -16 3 -24 0 -8 9 -15 19 -15
14 0 15 -2 2 -10 -8 -5 -10 -10 -4 -10 23 0 9 -45 -19 -63 -19 -11 -27 -23
-23 -33 3 -9 2 -12 -5 -9 -6 4 -20 -1 -31 -12 -13 -11 -22 -14 -25 -7 -2 6
-17 8 -33 6 -27 -4 -30 -2 -30 24 1 32 41 191 53 212 13 20 35 14 64 -19z
m-1574 -9 c10 -16 15 -30 10 -30 -4 0 -1 -5 7 -10 12 -8 10 -10 -10 -11 -23 0
-24 -1 -5 -10 15 -7 12 -8 -12 -3 -33 6 -37 1 -36 -43 1 -7 -10 -13 -23 -13
-34 0 -31 -31 5 -58 16 -12 63 -31 105 -44 49 -14 75 -27 73 -35 -1 -7 9 -19
23 -26 30 -15 38 -58 15 -77 -14 -12 -14 -14 1 -31 14 -16 12 -19 -31 -45 -30
-17 -42 -29 -35 -34 7 -4 9 -13 5 -20 -5 -8 1 -19 15 -30 l24 -18 -40 -11
c-21 -6 -48 -11 -59 -12 -17 0 -17 -2 4 -10 21 -8 185 -12 261 -6 22 2 25 -2
23 -32 -1 -20 -14 -52 -34 -78 l-32 -46 2 -128 c1 -71 -3 -137 -8 -146 -15
-31 -29 -67 -42 -108 -14 -48 -25 -57 -61 -49 -15 3 -43 1 -62 -4 -34 -10 -37
-9 -56 23 -21 34 -45 127 -81 315 -23 122 -55 263 -76 337 -8 28 -18 77 -23
110 -5 32 -14 88 -20 124 -15 89 -3 123 40 114 23 -5 30 -3 30 8 0 8 7 20 15
27 8 7 12 17 9 22 -3 5 -12 1 -20 -9 -7 -10 -14 -13 -14 -7 0 6 7 17 15 24 16
13 21 40 7 40 -7 0 -8 33 -3 63 0 4 18 7 39 7 31 0 41 -5 55 -30z m1636 -154
c-2 -2 -15 -9 -29 -15 -24 -11 -24 -11 -6 3 16 13 49 24 35 12z m-132 -72 c-3
-3 -12 -4 -19 -1 -8 3 -5 6 6 6 11 1 17 -2 13 -5z"/>
<path d="M2953 1858 c-21 -27 -23 -51 -8 -74 19 -29 46 -31 69 -5 27 29 3 91
-34 91 -10 0 -22 -6 -27 -12z"/>
<path d="M3282 1848 c-7 -7 -12 -24 -12 -38 0 -52 61 -71 82 -25 23 51 -32
101 -70 63z"/>
<path d="M2677 1669 c-32 -27 -66 -49 -75 -49 -10 0 -3 -8 18 -21 19 -12 38
-26 42 -32 5 -8 15 -4 31 11 13 12 36 22 51 22 19 0 25 4 19 13 -4 6 -12 33
-18 58 l-10 46 -58 -48z"/>
<path d="M1557 1674 c-13 -13 -7 -44 8 -44 22 0 18 -14 -18 -62 -66 -89 -215
-129 -313 -85 -34 15 -40 23 -37 42 6 31 -13 40 -42 21 -29 -19 -32 -44 -7
-53 9 -4 29 -16 44 -29 38 -31 113 -45 182 -34 114 18 190 71 221 155 10 25
22 45 27 45 5 0 8 10 6 23 -2 16 -11 23 -33 25 -17 2 -34 0 -38 -4z"/>
<path d="M2924 1650 c21 -109 149 -189 269 -166 76 14 152 89 171 169 8 32 2
33 -42 7 -44 -27 -134 -50 -193 -50 -57 0 -163 31 -191 57 -21 18 -21 18 -14
-17z"/>
<path d="M1786 1638 c-3 -13 -7 -39 -10 -60 -4 -34 -75 -172 -84 -163 -2 2
-14 -5 -26 -16 -40 -38 -141 -79 -240 -99 -124 -25 -201 -25 -272 -1 -48 17
-56 18 -61 5 -3 -9 -12 -13 -22 -10 -27 10 19 -23 69 -49 46 -23 137 -45 194
-45 26 -1 36 -9 66 -55 38 -61 56 -67 98 -35 81 62 78 59 62 70 -8 5 -36 13
-62 16 -27 4 -48 10 -48 14 0 4 27 17 60 29 116 43 219 133 263 231 12 27 21
73 23 118 4 71 -1 94 -10 50z"/>
<path d="M1060 1320 c0 -5 5 -10 11 -10 5 0 7 5 4 10 -3 6 -8 10 -11 10 -2 0
-4 -4 -4 -10z"/>
</g>
</svg>
