<?xml version="1.0" standalone="no"?>
<!DOCTYPE svg PUBLIC "-//W3C//DTD SVG 20010904//EN"
 "http://www.w3.org/TR/2001/REC-SVG-20010904/DTD/svg10.dtd">
<svg version="1.0" xmlns="http://www.w3.org/2000/svg"
 width="429.000000pt" height="240.000000pt" viewBox="0 0 429.000000 240.000000"
 preserveAspectRatio="xMidYMid meet">

<g transform="translate(0.000000,240.000000) scale(0.100000,-0.100000)"
fill="#000000" stroke="none">
<path d="M3555 1918 c21 -33 13 -36 -22 -8 -52 41 -156 15 -207 -52 -40 -53
-60 -125 -47 -169 6 -20 11 -50 11 -66 0 -17 7 -36 15 -43 8 -7 13 -15 11 -19
-2 -3 5 -22 16 -41 10 -19 16 -26 12 -15 -4 11 -9 68 -10 127 -2 134 7 147
110 153 64 4 66 4 81 -25 21 -40 19 -52 -10 -74 -14 -10 -25 -28 -25 -38 0
-18 4 -19 53 -12 28 4 71 7 95 6 41 -1 42 -1 42 33 0 19 5 57 11 85 13 61 8
69 -49 77 -36 5 -43 10 -52 38 -6 18 -20 41 -32 51 l-21 19 18 -27z"/>
<path d="M804 1904 c-34 -22 -87 -79 -55 -59 17 10 13 -26 -5 -46 -9 -10 -22
-15 -29 -13 -13 5 -24 -31 -44 -153 -8 -51 -7 -53 14 -53 21 0 23 4 19 38 -6
48 57 166 106 200 72 48 148 14 139 -64 0 -3 7 -11 15 -17 13 -10 9 -12 -24
-14 -22 0 -47 -6 -55 -13 -11 -9 -32 -114 -26 -130 1 -3 -8 -8 -21 -11 -22 -5
-22 -6 10 -23 67 -35 124 -114 137 -191 4 -22 16 -67 26 -99 23 -73 24 -90 4
-82 -9 3 -18 -1 -21 -9 -3 -7 -11 -12 -18 -9 -8 3 -13 -9 -14 -36 -2 -22 -14
-63 -28 -90 -25 -50 -25 -51 -8 -98 17 -44 41 -91 54 -102 3 -3 23 -39 44 -81
32 -66 38 -88 41 -155 1 -44 8 -91 15 -107 7 -15 10 -30 7 -33 -8 -8 -37 14
-37 27 0 5 -20 38 -44 73 -24 36 -51 89 -60 118 -25 83 -36 92 -34 28 1 -51 6
-82 23 -122 5 -13 2 -16 -17 -12 -13 2 -17 2 -10 -2 24 -11 12 -23 -14 -14
-33 13 -31 13 -37 -10 -4 -17 0 -22 24 -27 29 -5 35 -13 22 -26 -3 -4 -12 -2
-18 3 -14 11 -45 3 -45 -11 0 -5 3 -9 8 -9 4 0 13 -4 21 -9 24 -15 -13 -45
-46 -37 -22 6 -25 4 -19 -11 6 -17 5 -17 -8 -1 -7 10 -17 18 -21 18 -4 0 -2
-7 5 -15 13 -15 13 -23 -6 -257 -8 -95 -30 -109 -32 -20 -2 77 -13 241 -17
270 -2 12 0 45 4 72 5 33 4 51 -3 54 -6 3 -1 14 13 26 l25 21 -12 112 c-10
109 -7 217 8 227 12 8 20 89 10 95 -11 7 -15 -10 -30 -110 -10 -63 -20 -97
-20 -67 0 7 -9 12 -20 12 -15 0 -20 -7 -20 -24 0 -14 -4 -28 -10 -31 -12 -8
-13 56 -1 107 6 24 5 36 -1 32 -6 -4 -7 11 -3 39 l7 44 -44 11 c-34 9 -108 61
-108 76 0 2 11 1 25 -2 26 -5 59 14 49 29 -3 5 -16 9 -30 9 -14 0 -22 -4 -19
-10 3 -5 -3 -10 -14 -10 -11 0 -27 -7 -35 -15 -20 -20 -8 -40 44 -78 l39 -27
-3 -168 c-1 -92 -5 -174 -10 -183 -5 -13 -1 -18 21 -23 70 -18 92 -59 29 -55
-80 5 -81 5 -83 -61 -1 -33 -8 -91 -17 -128 -8 -37 -13 -87 -12 -112 2 -25 7
-88 11 -140 10 -137 6 -130 80 -130 41 0 65 4 68 13 4 9 8 9 15 -1 7 -11 54
-12 249 -6 l240 7 32 51 c17 28 34 73 37 99 8 56 24 73 24 24 0 -48 18 -96 51
-139 l29 -37 -23 -4 c-12 -2 2 -5 31 -6 48 -1 53 1 62 25 12 32 13 294 1 275
-5 -7 -14 -10 -20 -6 -7 4 -19 1 -28 -7 -15 -12 -15 -11 -4 10 12 22 11 23 -8
12 -18 -9 -21 -8 -21 10 0 12 -5 18 -10 15 -6 -4 -7 -12 -3 -18 5 -9 3 -9 -8
0 -12 9 -18 10 -27 1 -8 -8 -13 -7 -18 8 -3 10 -17 45 -31 77 -23 55 -24 63
-18 205 7 157 28 309 44 325 10 10 21 -24 36 -108 l8 -40 10 29 c7 20 6 35 -1
47 -10 15 -5 19 33 32 42 15 44 15 50 -5 9 -26 1 -32 -25 -18 -29 16 -18 -5
21 -37 21 -18 28 -34 31 -73 2 -41 0 -51 -14 -56 -10 -3 -18 -10 -18 -15 0
-16 -3 -24 -17 -37 -7 -7 -13 -19 -13 -25 0 -7 7 -4 14 6 20 27 27 20 21 -20
-4 -29 -1 -44 14 -63 19 -24 20 -24 18 -3 0 12 -4 20 -8 17 -4 -2 -9 19 -11
47 -3 44 0 53 25 77 21 20 26 33 22 50 -3 13 -1 30 5 37 14 17 3 43 -21 50
-21 7 -26 27 -6 24 26 -3 38 1 31 12 -3 6 -15 9 -25 6 -10 -3 -22 -1 -25 4 -3
5 4 9 16 9 12 0 18 4 15 10 -3 6 3 10 14 10 12 0 21 -3 22 -7 0 -5 2 -18 5
-31 2 -13 0 -21 -4 -18 -4 2 -14 1 -22 -5 -10 -6 -11 -9 -2 -9 6 0 12 -7 12
-15 0 -33 15 -18 67 70 7 11 13 34 13 52 0 26 -7 37 -42 60 -86 58 -120 108
-133 197 -5 36 -4 46 5 41 9 -6 10 3 5 33 -13 79 12 149 87 244 15 19 29 49
30 67 4 51 38 81 93 81 45 0 49 -4 46 -42 -2 -13 5 -18 26 -18 45 0 129 -26
177 -54 65 -38 126 -129 141 -209 8 -41 0 -49 -16 -14 -12 26 -8 10 15 -73 8
-30 12 -57 8 -60 -4 -3 -13 -17 -19 -32 -6 -14 -32 -53 -57 -86 l-45 -59 -7
-119 c-4 -65 -8 -126 -8 -134 -1 -15 6 -16 37 -5 33 14 10 -29 -28 -51 -11 -6
-20 -20 -20 -30 0 -13 -8 -20 -27 -22 -16 -2 -28 0 -29 5 -1 16 -7 58 -13 98
-3 22 -3 32 0 22 13 -43 20 -8 21 108 0 86 -3 125 -11 125 -6 0 -28 -5 -50 -9
-21 -5 -60 -6 -86 -2 l-48 8 5 -51 c3 -29 -2 -81 -11 -119 -9 -38 -13 -79 -10
-91 5 -21 1 -24 -30 -30 -31 -6 -36 -11 -36 -34 0 -16 -6 -34 -12 -42 -12 -13
-6 -9 62 37 14 10 42 31 62 48 40 34 83 43 92 20 3 -8 12 -15 21 -15 8 0 15
-3 16 -7 5 -41 4 -61 -3 -57 -4 3 -8 12 -8 20 0 8 -10 18 -22 23 -20 7 -24 5
-29 -21 -8 -33 15 -70 36 -61 7 2 16 0 19 -5 10 -17 -5 -42 -26 -42 -14 0 -18
-5 -14 -15 3 -8 1 -15 -4 -15 -6 0 -10 5 -10 10 0 6 -6 10 -13 10 -7 0 -14
-14 -15 -33 -2 -17 -13 -52 -26 -77 -13 -25 -36 -100 -52 -167 -16 -70 -32
-117 -36 -110 -7 10 -13 -31 -9 -56 1 -4 -6 -33 -15 -63 -9 -31 -13 -58 -11
-61 11 -11 26 9 53 74 16 38 32 69 36 71 5 2 8 12 8 21 0 21 87 157 117 184
31 27 77 37 120 25 42 -11 83 -44 83 -66 0 -9 -6 -6 -18 9 -13 15 -25 20 -37
16 -15 -7 -15 -9 9 -28 31 -25 35 -44 5 -28 -15 8 -19 8 -15 0 4 -6 2 -11 -4
-11 -6 0 -3 -11 6 -26 9 -14 23 -23 30 -20 8 3 18 -3 24 -14 9 -17 7 -18 -21
-15 -17 3 -38 10 -47 17 -11 10 -16 10 -19 1 -2 -7 -10 -10 -17 -7 -9 4 -11
-4 -8 -28 5 -31 4 -32 -14 -18 -19 14 -19 14 0 -8 11 -12 27 -22 37 -22 28 0
41 -33 23 -56 -13 -18 -14 -17 -8 10 6 25 4 28 -10 23 -10 -4 -20 -7 -22 -7
-2 0 -4 -7 -4 -15 0 -8 -5 -15 -10 -15 -6 0 -8 10 -5 23 4 16 2 24 -7 25 -7 0
-22 3 -33 5 -15 4 -20 0 -21 -18 -1 -13 -9 -38 -18 -56 -9 -18 -16 -36 -16
-41 0 -9 242 -11 288 -2 49 10 97 91 97 164 0 60 -31 183 -76 298 -33 87 -33
94 37 387 50 207 51 224 9 310 -22 43 -26 62 -20 94 4 22 13 45 21 52 8 6 14
19 14 28 0 13 2 13 9 2 16 -26 20 6 6 53 -8 25 -12 53 -9 60 9 23 -39 104
-106 178 -14 15 -34 38 -45 52 -11 14 -26 26 -32 26 -7 0 -13 5 -13 12 0 6 -3
8 -7 5 -3 -4 2 -17 13 -29 13 -15 3 -11 -28 12 -26 18 -45 37 -42 42 3 5 12 1
19 -9 7 -10 17 -14 21 -10 21 21 -85 63 -188 74 l-46 5 9 31 c11 39 11 37 0
37 -13 0 -81 -67 -81 -80 0 -6 -9 -6 -24 -1 -13 5 -43 7 -67 4 -43 -6 -58 -16
-173 -117 -16 -14 -33 -26 -38 -26 -4 0 -8 -5 -8 -11 0 -8 5 -7 15 1 30 25 28
-1 -3 -43 -43 -57 -85 -137 -72 -137 6 0 7 -6 1 -17 -27 -53 -38 -92 -35 -114
5 -28 -9 -54 -25 -45 -17 11 -39 99 -51 208 -26 240 -30 269 -46 300 -34 67
-62 95 -113 112 -67 22 -80 20 -127 -10z m175 -292 c0 -15 -6 -45 -14 -67 -11
-34 -13 -36 -14 -14 -1 14 -12 43 -26 63 -14 20 -25 38 -25 40 0 1 18 3 40 4
37 2 40 0 39 -26z m156 -403 c-1 -19 -4 -50 -9 -69 -5 -25 -4 -31 3 -20 6 8
15 39 21 67 6 29 16 55 21 58 20 13 7 -58 -36 -185 -25 -74 -45 -141 -45 -150
0 -9 -7 -25 -14 -36 -13 -17 -14 -12 -10 46 5 79 31 276 40 308 10 34 29 21
29 -19z m91 -67 c-18 -16 -18 -16 -6 6 6 13 14 21 18 18 3 -4 -2 -14 -12 -24z
m756 -57 c3 -14 1 -28 -3 -31 -5 -3 -9 9 -9 25 0 38 6 40 12 6z m-963 -81
c-22 -96 -39 -128 -39 -77 0 18 4 34 9 37 5 3 12 27 16 53 7 48 23 89 31 80 2
-2 -5 -44 -17 -93z m331 6 c0 -5 -4 -10 -10 -10 -5 0 -10 5 -10 10 0 6 5 10
10 10 6 0 10 -4 10 -10z m100 -65 c32 -10 23 -25 -16 -25 -31 0 -37 4 -50 35
-16 40 -19 68 -4 45 8 -12 10 -12 10 5 1 15 6 10 20 -17 11 -20 29 -39 40 -43z
m-115 -9 c12 -12 12 -15 0 -19 -15 -6 -39 16 -28 26 9 10 13 9 28 -7z m383 -5
c10 -6 8 -10 -9 -14 -26 -7 -34 -3 -24 12 7 13 15 14 33 2z m-568 -86 c25 -26
21 -32 -9 -15 -20 10 -36 40 -22 40 4 0 18 -11 31 -25z m536 -16 c-7 -45 -26
-62 -26 -23 0 25 15 54 28 54 2 0 1 -14 -2 -31z m-550 -11 c30 -29 30 -38 -1
-38 -18 0 -23 -4 -19 -15 8 -20 -15 -19 -37 1 -18 16 -18 18 -2 45 21 35 28
36 59 7z m-419 -30 c-3 -8 -6 -5 -6 6 -1 11 2 17 5 13 3 -3 4 -12 1 -19z m490
-54 c-3 -3 -12 -4 -19 -1 -8 3 -5 6 6 6 11 1 17 -2 13 -5z m363 -38 c0 -2 -7
-7 -16 -10 -8 -3 -12 -2 -9 4 6 10 25 14 25 6z m-406 -144 c-8 -43 -29 -78
-50 -86 -11 -4 -10 1 4 19 11 14 23 45 26 70 4 25 12 43 17 39 5 -3 7 -22 3
-42z m782 -299 c-11 -11 -17 4 -9 23 7 18 8 18 11 1 2 -10 1 -21 -2 -24z"/>
<path d="M790 1711 c19 -10 37 -17 39 -15 8 8 -14 23 -44 29 l-30 6 35 -20z"/>
<path d="M2530 1721 c-54 -17 -88 -41 -98 -71 l-11 -30 30 16 c17 8 36 13 42
10 7 -2 4 -5 -5 -5 -17 -1 -58 -46 -58 -64 0 -6 13 2 29 17 42 40 102 45 178
15 32 -13 62 -27 68 -31 5 -4 15 -8 22 -8 19 0 -22 89 -60 128 -25 26 -38 32
-71 31 -23 0 -52 -4 -66 -8z"/>
<path d="M778 1682 c-32 -4 -37 -18 -9 -27 20 -6 51 3 51 15 0 13 -12 16 -42
12z"/>
<path d="M3430 1663 c-48 -7 -70 -13 -70 -22 0 -5 10 -7 23 -4 19 4 20 3 5 -7
-22 -14 -24 -32 -2 -23 9 3 20 0 24 -7 14 -22 55 2 58 33 2 30 -4 34 -38 30z"/>
<path d="M775 1599 c-4 -6 -5 -13 -2 -16 7 -7 27 6 27 18 0 12 -17 12 -25 -2z"/>
<path d="M2380 1574 c-16 -41 -12 -50 13 -25 15 16 18 25 9 28 -6 3 -10 9 -6
14 3 5 3 9 -1 9 -3 0 -10 -12 -15 -26z"/>
<path d="M3471 1537 c-23 -12 -30 -36 -7 -28 44 15 55 12 70 -17 23 -44 21
-66 -3 -52 -30 15 -77 12 -92 -7 -13 -15 -11 -16 22 -9 31 5 42 2 68 -20 32
-27 31 -28 45 20 8 26 -14 85 -41 106 -30 23 -31 24 -62 7z"/>
<path d="M3691 1524 c-23 -29 -30 -117 -10 -129 6 -4 22 3 35 16 18 17 35 22
62 21 35 -2 36 -1 17 14 -20 15 -51 15 -89 -1 -17 -7 -18 -5 -12 21 9 37 36
66 53 59 7 -3 20 -8 28 -11 9 -4 15 -1 15 9 0 36 -71 36 -99 1z"/>
<path d="M1757 1503 c-3 -4 -8 -32 -12 -60 -8 -60 -8 -60 89 -47 53 8 52 10
-25 75 -26 22 -50 36 -52 32z m55 -61 c23 -19 14 -32 -23 -32 -29 0 -35 12
-23 44 6 16 16 14 46 -12z"/>
<path d="M1533 1454 c-29 -25 -53 -50 -53 -55 0 -5 32 -9 71 -9 l71 0 -6 38
c-10 52 -16 72 -24 72 -4 0 -31 -21 -59 -46z m61 -16 c6 -27 5 -28 -36 -28
l-43 1 35 28 c19 16 35 29 36 28 1 -1 4 -14 8 -29z"/>
<path d="M2436 1428 c-31 -43 -11 -108 32 -108 24 0 52 35 52 65 0 29 -28 65
-50 65 -10 0 -26 -10 -34 -22z"/>
<path d="M2657 1432 c-32 -35 -9 -112 33 -112 22 0 50 36 50 65 0 29 -28 65
-49 65 -10 0 -25 -8 -34 -18z"/>
<path d="M549 1389 c-21 -18 -21 -20 -4 -14 43 16 66 17 80 5 9 -7 19 -10 23
-6 10 11 -28 36 -54 36 -12 0 -32 -9 -45 -21z"/>
<path d="M792 1398 c-14 -14 -16 -38 -3 -38 6 0 13 5 16 10 9 14 62 12 68 -2
2 -7 8 -9 13 -5 4 4 3 16 -2 25 -13 21 -74 28 -92 10z"/>
<path d="M3804 1386 c-10 -26 4 -48 28 -44 17 2 23 10 23 28 0 18 -6 26 -23
28 -13 2 -25 -3 -28 -12z"/>
<path d="M3391 1376 c-16 -20 -3 -46 24 -46 13 0 26 7 29 16 7 19 -10 44 -29
44 -7 0 -18 -6 -24 -14z"/>
<path d="M3750 1334 c0 -56 -242 -59 -263 -2 -2 7 -8 10 -12 6 -11 -11 10 -78
38 -119 12 -19 40 -42 61 -53 32 -16 44 -17 76 -7 21 6 52 27 69 46 39 45 68
145 41 145 -5 0 -10 -7 -10 -16z"/>
<path d="M822 1328 c-7 -7 -22 -13 -35 -13 -33 0 -35 -38 -2 -53 42 -19 62
-15 75 18 20 48 -6 80 -38 48z"/>
<path d="M565 1321 c-3 -6 -17 -11 -31 -11 -29 0 -42 -26 -23 -46 8 -7 28 -16
46 -20 25 -5 33 -2 43 15 6 12 10 32 8 44 -3 23 -32 35 -43 18z"/>
<path d="M1490 1308 c0 -36 20 -101 39 -127 17 -23 22 -24 157 -23 l139 0 21
37 c23 40 39 109 28 126 -3 5 -21 -4 -40 -20 -77 -69 -238 -66 -304 5 -29 30
-40 31 -40 2z"/>
<path d="M2840 1264 c1 -5 7 -20 15 -34 13 -24 14 -24 15 -4 0 12 -7 27 -15
34 -8 7 -15 9 -15 4z"/>
<path d="M3220 1209 c-142 -97 -144 -101 -111 -274 11 -55 24 -128 30 -163 8
-52 16 -68 45 -96 47 -44 47 -81 1 -177 -19 -41 -35 -84 -35 -96 0 -12 -9 -37
-20 -55 -16 -26 -20 -51 -20 -116 0 -96 13 -133 65 -191 l37 -41 81 0 80 0
-22 24 c-22 23 -22 24 -6 102 18 87 54 159 85 169 24 8 27 25 4 25 -8 0 -12
-5 -9 -10 3 -6 -3 -10 -14 -10 -12 0 -21 -4 -21 -8 0 -12 -62 -46 -85 -47 -27
0 -65 39 -65 66 l0 22 -26 -24 c-25 -23 -26 -23 -15 -2 14 28 14 36 -1 28 -7
-4 -5 0 5 8 9 8 17 19 17 25 0 7 18 21 40 32 61 31 123 90 110 105 -5 6 -7 15
-3 18 3 4 3 7 -1 7 -4 0 -14 -7 -22 -15 -34 -34 -62 -3 -79 88 -4 20 -12 37
-18 37 -6 0 -7 3 -4 7 4 3 -2 21 -13 38 -23 38 -17 47 45 64 72 20 77 17 72
-39 -3 -27 -3 -50 -1 -50 14 0 68 107 94 186 40 120 38 138 -26 189 -59 47
-94 100 -95 147 -1 18 -4 45 -8 59 l-6 26 -85 -58z"/>
<path d="M3330 1260 c0 -26 12 -60 21 -60 14 0 10 34 -6 56 -11 14 -14 15 -15
4z"/>
<path d="M1410 1228 c0 -25 3 -29 10 -18 5 8 10 12 11 8 1 -5 3 -12 4 -18 1
-5 3 -20 4 -32 1 -13 16 -34 33 -47 25 -20 29 -21 20 -5 -6 10 -22 45 -36 76
-32 69 -46 81 -46 36z"/>
<path d="M2300 1220 c5 -18 12 -35 16 -39 10 -9 -6 53 -17 63 -5 6 -5 -4 1
-24z"/>
<path d="M2811 1210 c11 -22 18 -55 16 -79 -2 -48 -7 -44 -37 32 -27 69 -35
70 -14 2 19 -66 12 -91 -42 -142 -24 -23 -44 -48 -44 -57 0 -20 63 -254 89
-328 11 -32 17 -58 14 -58 -3 0 -1 -6 4 -12 6 -7 13 -26 17 -43 7 -29 5 -28
-34 17 -50 58 -92 72 -155 54 -23 -8 -53 -21 -66 -30 -13 -9 -26 -16 -29 -16
-11 0 -3 162 15 293 18 131 20 137 42 137 13 0 23 -6 23 -12 0 -9 4 -8 10 2 5
8 10 17 10 20 0 4 -39 4 -84 1 -4 -1 -6 -11 -3 -23 9 -33 -18 -166 -48 -238
-15 -36 -49 -110 -76 -165 -27 -56 -49 -106 -49 -111 0 -6 -11 -21 -24 -33
l-23 -22 -24 37 c-13 21 -29 47 -36 58 -12 20 -12 20 -21 -4 -8 -22 -21 -74
-25 -97 0 -5 -7 -14 -14 -22 -8 -7 -11 -16 -7 -20 4 -3 9 0 11 7 3 6 8 10 13
7 5 -3 7 3 6 12 -2 10 5 24 15 31 11 7 19 25 19 39 0 26 1 25 29 -13 l30 -39
-21 -22 c-12 -13 -33 -23 -47 -23 -44 0 -91 -23 -97 -47 -4 -13 -5 -58 -3
-101 4 -67 9 -85 38 -133 l34 -56 90 -7 c49 -3 190 -6 313 -6 l222 0 31 35
c36 41 63 123 55 168 -3 18 -20 67 -37 110 l-31 78 33 112 c18 61 48 143 66
181 19 38 33 72 30 74 -2 2 -37 8 -77 12 -77 9 -80 8 -108 -40 -13 -22 -32 8
-64 102 -34 100 -33 130 1 163 37 34 42 32 33 -11 -6 -27 -6 -34 3 -25 17 17
26 13 20 -9 -3 -12 0 -20 7 -20 7 0 10 -7 6 -16 -6 -15 -4 -15 10 -3 16 13 63
107 69 139 2 8 5 20 6 25 2 6 -5 22 -15 38 -17 25 -19 26 -32 10 -12 -17 -13
-16 -7 4 6 26 -24 110 -42 117 -8 3 -6 -9 6 -34z m-595 -909 c-3 -5 -16 -11
-28 -14 -22 -6 -22 -5 -4 8 22 17 40 20 32 6z"/>
<path d="M2352 1215 c0 -16 2 -22 5 -12 2 9 2 23 0 30 -3 6 -5 -1 -5 -18z"/>
<path d="M2500 1221 c-17 -34 -11 -69 19 -103 36 -41 88 -44 126 -8 29 27 41
79 26 109 -10 18 -21 21 -86 21 -63 0 -76 -3 -85 -19z"/>
<path d="M3908 1205 c12 -15 18 -34 15 -45 -7 -27 -10 -25 -27 14 -8 18 -23
36 -36 39 -20 5 -21 4 -6 -18 20 -30 20 -46 2 -39 -10 4 -12 -1 -9 -19 6 -29
-20 -82 -46 -97 -11 -5 -36 -25 -56 -45 -43 -40 -43 -22 1 -294 28 -167 26
-210 -10 -254 l-23 -29 -7 63 c-6 64 -18 90 -31 70 -3 -6 -6 -24 -5 -39 5 -91
-4 -172 -20 -172 -5 0 -13 -30 -19 -67 -11 -66 -9 -140 4 -206 15 -72 3 -67
154 -67 l138 0 39 40 c80 82 95 160 49 258 -14 30 -25 63 -25 74 0 11 -12 65
-26 121 -24 96 -33 185 -19 207 3 5 12 7 19 4 8 -3 32 0 55 6 48 13 46 0 32
215 -12 176 -24 218 -66 241 -19 10 -36 26 -39 37 -2 10 -9 16 -15 12 -6 -3
-11 -1 -11 4 0 6 -7 11 -16 11 -13 0 -12 -4 4 -25z m-63 -826 c17 -12 22 -18
12 -15 -10 3 -36 9 -58 12 -50 8 -61 24 -17 24 18 0 47 -10 63 -21z"/>
<path d="M980 1206 c0 -9 5 -16 10 -16 6 0 10 4 10 9 0 6 -4 13 -10 16 -5 3
-10 -1 -10 -9z"/>
<path d="M2380 1206 c0 -8 7 -16 15 -20 13 -4 14 -2 5 14 -13 23 -20 26 -20 6z"/>
<path d="M3370 1196 c0 -30 39 -90 75 -114 45 -29 45 -20 1 19 -19 17 -33 36
-30 42 2 7 -7 26 -21 42 -20 25 -24 27 -25 11z"/>
<path d="M502 1181 c-10 -6 -9 -10 7 -14 14 -3 21 0 21 9 0 16 -9 18 -28 5z"/>
<path d="M2400 1121 c0 -12 101 -101 115 -101 5 1 1 8 -10 18 -11 9 -33 34
-49 55 -26 34 -56 49 -56 28z"/>
<path d="M887 1072 c-32 -33 -36 -54 -6 -26 20 18 44 54 36 54 -2 0 -15 -13
-30 -28z"/>
<path d="M2336 1035 c3 -33 8 -73 12 -90 l6 -30 6 35 6 35 21 -40 c11 -22 30
-48 42 -59 20 -18 21 -18 31 8 18 48 12 72 -25 105 -20 17 -45 31 -55 31 -13
0 -25 12 -35 33 -14 32 -14 31 -9 -28z"/>
<path d="M3498 1054 c6 -3 12 -13 12 -22 0 -9 7 -26 15 -36 17 -23 21 -181 5
-191 -5 -3 -10 3 -10 14 0 33 -18 24 -25 -11 -10 -50 -56 -192 -66 -202 -5 -6
-9 -18 -9 -28 0 -11 -11 -30 -25 -43 -36 -32 -13 -43 28 -13 78 58 136 87 184
90 l48 3 -4 203 c-2 119 0 202 6 202 5 0 17 6 26 13 14 10 4 12 -60 12 -43 0
-91 3 -108 7 -16 4 -24 5 -17 2z"/>
<path d="M680 985 c0 -14 2 -25 4 -25 2 0 6 11 8 25 3 14 1 25 -3 25 -5 0 -9
-11 -9 -25z"/>
<path d="M717 1003 c-10 -10 -8 -43 2 -43 9 0 21 24 21 41 0 11 -14 12 -23 2z"/>
<path d="M3008 973 c6 -65 10 -70 11 -15 0 28 -3 52 -7 52 -4 0 -6 -17 -4 -37z"/>
<path d="M3003 835 c0 -27 2 -38 4 -22 2 15 2 37 0 50 -2 12 -4 0 -4 -28z"/>
<path d="M1520 824 c0 -12 11 -26 35 -44 15 -11 14 -7 -5 15 -14 17 -26 32
-27 34 -2 2 -3 0 -3 -5z"/>
<path d="M2179 816 c-4 -4 2 -30 11 -59 10 -29 25 -74 33 -102 l15 -50 -1 76
c-3 112 28 137 69 58 8 -16 14 -47 14 -70 0 -42 0 -42 21 -23 38 35 40 49 14
108 -24 54 -26 56 -62 56 -21 0 -54 3 -73 6 -19 3 -38 3 -41 0z"/>
<path d="M1482 760 c0 -14 2 -19 5 -12 2 6 2 18 0 25 -3 6 -5 1 -5 -13z"/>
<path d="M3306 595 c-9 -26 -7 -32 5 -12 6 10 9 21 6 23 -2 3 -7 -2 -11 -11z"/>
<path d="M441 590 c-1 -18 16 -46 23 -40 2 3 -2 16 -9 30 -8 15 -14 19 -14 10z"/>
<path d="M1380 544 c0 -11 7 -29 15 -40 13 -17 14 -16 5 15 -11 41 -20 51 -20
25z"/>
<path d="M3444 466 c-3 -8 -4 -23 -2 -33 3 -11 6 -6 9 15 6 34 2 42 -7 18z"/>
<path d="M3456 395 c-3 -9 -6 -22 -5 -28 0 -7 5 -1 10 12 5 13 8 26 5 28 -2 2
-6 -3 -10 -12z"/>
<path d="M1320 375 c-8 -9 -8 -15 -2 -15 12 0 26 19 19 26 -2 2 -10 -2 -17
-11z"/>
<path d="M401 204 c0 -11 3 -14 6 -6 3 7 2 16 -1 19 -3 4 -6 -2 -5 -13z"/>
<path d="M1496 65 c-10 -19 -25 -36 -33 -39 -18 -7 -7 -26 15 -26 11 0 23 16
33 45 20 55 10 67 -15 20z"/>
<path d="M3446 15 c-3 -8 -1 -15 4 -15 6 0 10 7 10 15 0 19 -6 19 -14 0z"/>
<path d="M295 10 c3 -5 8 -10 11 -10 2 0 4 5 4 10 0 6 -5 10 -11 10 -5 0 -7
-4 -4 -10z"/>
</g>
</svg>
