<?xml version="1.0" standalone="no"?>
<!DOCTYPE svg PUBLIC "-//W3C//DTD SVG 20010904//EN"
 "http://www.w3.org/TR/2001/REC-SVG-20010904/DTD/svg10.dtd">
<svg version="1.0" xmlns="http://www.w3.org/2000/svg"
 width="400.000000pt" height="400.000000pt" viewBox="0 0 400.000000 400.000000"
 preserveAspectRatio="xMidYMid meet">

<g transform="translate(0.000000,400.000000) scale(0.100000,-0.100000)"
fill="#000000" stroke="none">
<path d="M1948 3264 c-154 -192 -259 -465 -288 -749 -12 -113 -9 -292 5 -315
4 -6 121 -10 344 -10 l339 0 6 23 c12 46 6 305 -10 398 -44 258 -160 524 -290
667 l-50 56 -56 -70z"/>
<path d="M653 2784 c-9 -24 6 -174 27 -260 24 -98 51 -178 92 -266 l31 -68
398 0 c220 0 399 3 399 7 0 18 -122 162 -203 240 -185 176 -426 305 -647 347
-99 19 -89 19 -97 0z"/>
<path d="M3281 2789 c-214 -36 -501 -192 -681 -371 -72 -71 -180 -203 -180
-220 0 -5 177 -8 394 -8 303 0 396 3 403 13 19 23 82 183 106 267 44 150 57
332 24 329 -7 -1 -36 -5 -66 -10z"/>
<path d="M860 2084 c0 -3 14 -25 30 -50 l31 -44 1087 0 1087 1 16 22 c9 12 24
34 33 50 l18 27 -1151 0 c-633 0 -1151 -3 -1151 -6z"/>
<path d="M1020 1871 c0 -5 20 -27 45 -50 l45 -41 893 0 894 0 47 41 c25 22 46
45 46 50 0 5 -396 9 -985 9 -554 0 -985 -4 -985 -9z"/>
<path d="M1270 1672 c0 -14 153 -101 246 -141 95 -40 180 -66 257 -77 l47 -6
0 63 c0 35 -3 88 -6 117 l-7 52 -268 0 c-148 0 -269 -4 -269 -8z"/>
<path d="M1840 1671 c0 -15 116 -185 144 -211 l28 -25 25 30 c37 45 133 191
133 204 0 8 -52 11 -165 11 -91 0 -165 -4 -165 -9z"/>
<path d="M2206 1653 c-3 -16 -8 -67 -12 -115 -7 -102 -15 -97 104 -72 131 26
339 120 432 194 l25 20 -272 0 -271 0 -6 -27z"/>
<path d="M1550 1215 c0 -52 -2 -95 -4 -95 -2 0 -20 7 -39 15 -47 19 -144 19
-190 0 -90 -37 -147 -124 -147 -222 0 -108 69 -198 177 -229 53 -16 63 -16
113 -2 30 8 63 18 73 23 12 5 17 3 17 -9 0 -13 11 -16 55 -16 l55 0 0 315 0
315 -55 0 -55 0 0 -95z m-93 -176 c96 -36 119 -158 42 -223 -44 -37 -89 -42
-141 -17 -80 38 -104 129 -51 192 44 51 96 69 150 48z"/>
<path d="M1720 1250 l0 -60 55 0 55 0 0 60 0 60 -55 0 -55 0 0 -60z"/>
<path d="M2260 1215 c0 -52 -2 -95 -4 -95 -2 0 -21 7 -42 16 -26 11 -59 15
-105 12 -86 -5 -150 -42 -194 -112 -26 -43 -30 -59 -30 -120 0 -60 4 -79 28
-118 64 -110 204 -156 309 -102 34 18 38 18 38 -1 0 -12 13 -15 55 -15 l55 0
0 315 0 315 -55 0 -55 0 0 -95z m-60 -193 c39 -28 63 -86 55 -129 -9 -48 -60
-99 -108 -108 -75 -14 -152 51 -152 130 0 105 121 168 205 107z"/>
<path d="M3252 1294 c-43 -30 -18 -104 36 -104 19 0 62 42 62 62 0 14 -47 58
-62 58 -8 0 -24 -7 -36 -16z m59 -4 c22 -12 26 -59 7 -78 -26 -26 -78 -1 -78
38 0 20 25 50 41 50 6 0 19 -5 30 -10z"/>
<path d="M3271 1248 c0 -18 3 -27 6 -20 3 9 9 10 17 3 9 -7 12 -3 11 17 0 17
-6 28 -17 30 -14 3 -18 -3 -17 -30z m29 12 c0 -5 -4 -10 -10 -10 -5 0 -10 5
-10 10 0 6 5 10 10 10 6 0 10 -4 10 -10z"/>
<path d="M775 1131 c-84 -39 -135 -120 -135 -216 0 -67 20 -118 63 -163 80
-84 175 -99 300 -47 12 5 17 2 17 -9 0 -14 9 -17 53 -14 l52 3 3 233 2 232
-55 0 c-42 0 -55 -3 -55 -15 0 -18 4 -18 -45 0 -57 20 -152 18 -200 -4z m161
-97 c94 -45 105 -173 20 -229 -62 -41 -147 -22 -186 40 -40 65 -15 155 53 189
41 20 70 20 113 0z"/>
<path d="M1720 915 l0 -235 55 0 55 0 0 235 0 235 -55 0 -55 0 0 -235z"/>
<path d="M2542 1124 c-195 -97 -166 -378 46 -440 57 -17 116 -12 164 12 34 18
38 17 38 -1 0 -12 13 -15 55 -15 l55 0 0 235 0 235 -55 0 c-42 0 -55 -3 -55
-15 0 -8 -2 -15 -4 -15 -2 0 -20 7 -39 15 -58 24 -144 19 -205 -11z m184 -99
c38 -24 57 -63 57 -111 0 -54 -24 -91 -77 -118 -119 -59 -237 93 -154 200 42
53 118 66 174 29z"/>
<path d="M3043 1130 c-51 -23 -83 -70 -83 -123 0 -84 51 -125 177 -146 102
-16 125 -39 83 -81 -27 -27 -89 -27 -124 1 -14 11 -26 27 -26 35 0 11 -15 14
-60 14 -55 0 -60 -2 -60 -21 0 -38 39 -87 88 -111 37 -18 63 -22 122 -22 129
1 200 56 200 155 0 80 -47 118 -175 139 -69 12 -115 32 -115 50 0 23 34 40 81
40 45 0 52 -3 67 -30 15 -27 22 -30 70 -30 49 0 52 2 52 25 0 31 -55 94 -97
111 -48 20 -150 17 -200 -6z"/>
</g>
</svg>
