<?xml version="1.0" standalone="no"?>
<!DOCTYPE svg PUBLIC "-//W3C//DTD SVG 20010904//EN"
 "http://www.w3.org/TR/2001/REC-SVG-20010904/DTD/svg10.dtd">
<svg version="1.0" xmlns="http://www.w3.org/2000/svg"
 width="360.000000pt" height="214.000000pt" viewBox="0 0 360.000000 214.000000"
 preserveAspectRatio="xMidYMid meet">

<g transform="translate(0.000000,214.000000) scale(0.100000,-0.100000)"
fill="#000000" stroke="none">
<path d="M378 1379 c-65 -10 -122 -44 -147 -89 -31 -55 -28 -80 8 -80 16 0 42
-3 58 -6 26 -5 31 -2 42 24 20 48 77 66 119 36 16 -11 22 -25 22 -54 0 -37 -2
-39 -37 -45 -180 -27 -237 -67 -249 -171 -9 -70 20 -134 69 -157 68 -33 184
-14 226 37 11 13 16 10 43 -20 16 -18 34 -34 39 -34 5 0 29 18 54 41 l44 40
-25 46 c-22 42 -24 57 -24 187 0 122 -3 145 -20 173 -34 56 -126 86 -222 72z
m102 -343 c0 -44 -5 -60 -26 -85 -47 -56 -114 -34 -114 37 0 63 41 98 118 101
20 1 22 -3 22 -53z"/>
<path d="M950 1373 c-24 -9 -70 -55 -71 -72 -1 -9 -5 2 -8 24 l-6 40 -60 0
-60 0 0 -270 0 -270 60 0 60 0 5 186 c6 209 15 239 70 239 57 0 60 -12 60
-219 0 -151 3 -191 14 -200 8 -7 37 -11 68 -9 l53 3 5 191 c4 171 7 194 24
213 11 12 31 21 45 21 55 0 56 -3 61 -222 l5 -203 44 -3 c25 -2 55 -1 68 3
l24 6 -3 227 c-3 252 -6 263 -71 302 -59 36 -145 18 -187 -38 l-23 -31 -21 32
c-12 17 -33 37 -46 44 -25 13 -83 16 -110 6z"/>
<path d="M1620 1365 c-19 -9 -47 -28 -62 -42 -30 -29 -55 -90 -42 -103 5 -4
33 -10 62 -14 49 -6 53 -5 61 18 20 52 92 74 125 37 9 -10 19 -34 23 -54 l5
-35 -48 -7 c-181 -23 -246 -73 -247 -188 -1 -64 18 -104 63 -135 30 -20 44
-23 102 -20 57 3 72 8 106 35 l38 31 28 -34 c15 -19 32 -34 38 -34 11 0 90 68
97 82 1 5 -5 18 -15 30 -16 17 -20 43 -24 184 -6 177 -10 191 -74 238 -37 28
-183 34 -236 11z m170 -302 c0 -79 -39 -143 -87 -143 -40 0 -63 27 -63 72 0
60 42 93 123 97 23 1 27 -3 27 -26z"/>
<path d="M2605 1362 c-51 -25 -78 -55 -106 -117 -27 -61 -36 -174 -19 -244 42
-174 221 -244 348 -135 134 114 114 413 -32 488 -56 28 -141 32 -191 8z m132
-106 c27 -23 28 -28 31 -139 5 -130 -10 -182 -55 -193 -71 -18 -97 39 -91 200
3 104 4 109 31 132 35 30 49 30 84 0z"/>
<path d="M3210 1373 c-23 -9 -51 -35 -71 -68 l-19 -30 0 48 0 48 -62 -3 -63
-3 -3 -259 c-2 -187 1 -262 9 -273 9 -10 29 -13 68 -11 l56 3 5 185 c6 215 14
240 75 240 54 0 59 -19 65 -235 l5 -190 60 0 60 0 3 218 c2 196 0 223 -16 261
-27 61 -107 93 -172 69z"/>
<path d="M2050 1315 l0 -55 90 0 c50 0 90 -2 90 -4 0 -3 -45 -69 -100 -148
l-100 -143 0 -62 c0 -37 4 -63 10 -63 6 0 27 7 48 16 65 27 170 30 250 5 38
-11 73 -21 77 -21 3 0 5 26 3 58 -3 55 -4 58 -40 75 -20 10 -64 21 -98 25
l-61 7 96 136 c87 125 95 141 95 183 l0 46 -180 0 -180 0 0 -55z"/>
</g>
</svg>
