<?xml version="1.0" standalone="no"?>
<!DOCTYPE svg PUBLIC "-//W3C//DTD SVG 20010904//EN"
 "http://www.w3.org/TR/2001/REC-SVG-20010904/DTD/svg10.dtd">
<svg version="1.0" xmlns="http://www.w3.org/2000/svg"
 width="400.000000pt" height="400.000000pt" viewBox="0 0 400.000000 400.000000"
 preserveAspectRatio="xMidYMid meet">

<g transform="translate(0.000000,400.000000) scale(0.100000,-0.100000)"
fill="#000000" stroke="none">
<path d="M1459 3265 c-193 -37 -364 -130 -501 -273 -80 -84 -137 -168 -122
-181 5 -4 61 -36 125 -69 l117 -62 25 38 c116 169 309 272 509 272 78 0 176
-15 192 -30 4 -5 -8 -30 -29 -57 -52 -68 -121 -214 -147 -308 -30 -114 -30
-335 1 -450 26 -97 85 -221 146 -303 l44 -61 -37 -11 c-69 -21 -213 -24 -294
-6 -142 32 -276 116 -358 224 l-45 59 -128 -64 -128 -64 23 -40 c38 -69 174
-205 261 -263 194 -129 437 -182 657 -142 81 15 192 51 254 83 l39 20 74 -34
c132 -61 209 -77 373 -76 172 0 253 18 397 88 145 71 290 200 375 333 l19 30
-129 66 -130 66 -28 -41 c-77 -111 -228 -212 -369 -245 -77 -18 -229 -15 -298
6 l-37 11 44 62 c200 283 227 625 74 932 -22 44 -57 103 -79 132 l-38 51 32
12 c18 7 77 14 132 17 119 6 205 -11 311 -62 79 -38 194 -138 234 -204 14 -22
27 -39 30 -38 80 37 250 130 250 136 0 14 -89 132 -139 184 -106 111 -269 205
-428 249 -63 17 -106 21 -223 21 -164 0 -243 -16 -373 -76 l-75 -35 -58 29
c-160 76 -378 106 -545 74z m633 -502 c42 -44 97 -142 118 -211 59 -189 20
-396 -106 -567 l-37 -49 -39 44 c-80 94 -138 259 -138 392 0 76 21 175 50 242
22 53 106 176 119 176 4 0 19 -12 33 -27z"/>
<path d="M213 1332 c-264 -94 -285 -456 -35 -579 80 -39 184 -39 257 -1 52 27
135 108 135 130 0 13 -71 68 -87 68 -5 0 -16 -11 -23 -25 -19 -35 -78 -73
-126 -81 -109 -17 -214 77 -214 191 0 115 110 210 219 190 34 -6 111 -50 111
-64 0 -3 8 -16 18 -29 l18 -23 46 33 c53 38 52 44 -11 111 -79 84 -205 116
-308 79z"/>
<path d="M705 1327 c-3 -7 -4 -143 -3 -302 l3 -290 58 -3 57 -3 0 136 0 135
155 0 154 0 3 -132 3 -133 58 -3 57 -3 0 306 0 305 -60 0 -60 0 0 -110 0 -111
-152 3 -153 3 -3 108 -3 107 -55 0 c-35 0 -56 -5 -59 -13z"/>
<path d="M1488 1052 c-70 -158 -130 -295 -134 -304 -5 -16 1 -18 63 -18 l70 0
26 60 26 60 160 0 161 0 28 -57 27 -58 69 -3 c62 -3 68 -1 63 15 -6 20 -237
536 -256 571 -11 20 -19 22 -94 22 l-82 0 -127 -288z m265 51 c26 -60 47 -114
47 -121 0 -10 -24 -13 -100 -11 -55 1 -100 4 -100 8 0 13 94 231 100 231 4 0
28 -48 53 -107z"/>
<path d="M2150 1035 l0 -305 60 0 60 0 0 226 c0 124 4 223 8 220 4 -2 80 -104
167 -226 l160 -221 45 3 45 3 3 303 2 302 -60 0 -60 0 -2 -181 -3 -180 -128
180 -128 181 -84 0 -85 0 0 -305z"/>
<path d="M2910 1035 l0 -305 235 0 235 0 0 60 0 60 -175 0 -176 0 3 63 3 62
143 3 143 3 -3 57 -3 57 -142 3 -143 3 0 59 0 60 155 0 155 0 0 60 0 60 -215
0 -215 0 0 -305z"/>
<path d="M3550 1035 l0 -305 225 0 225 0 0 60 0 60 -165 0 -165 0 0 245 0 245
-60 0 -60 0 0 -305z"/>
</g>
</svg>
