<?xml version="1.0" standalone="no"?>
<!DOCTYPE svg PUBLIC "-//W3C//DTD SVG 20010904//EN"
 "http://www.w3.org/TR/2001/REC-SVG-20010904/DTD/svg10.dtd">
<svg version="1.0" xmlns="http://www.w3.org/2000/svg"
 width="400.000000pt" height="400.000000pt" viewBox="0 0 400.000000 400.000000"
 preserveAspectRatio="xMidYMid meet">

<g transform="translate(0.000000,400.000000) scale(0.100000,-0.100000)"
fill="#000000" stroke="none">
<path d="M329 2296 c-136 -48 -217 -172 -207 -316 15 -208 235 -342 425 -260
64 27 79 43 59 59 -11 10 -23 8 -56 -9 -131 -67 -295 -10 -360 126 -62 127 13
309 146 355 61 21 152 16 207 -10 38 -19 50 -21 62 -11 58 48 -173 103 -276
66z"/>
<path d="M1132 2008 c3 -279 4 -303 21 -306 16 -3 17 16 17 302 0 300 0 306
-20 306 -20 0 -20 -5 -18 -302z"/>
<path d="M1656 2301 c-10 -16 5 -41 24 -41 19 0 30 17 23 38 -5 14 -39 16 -47
3z"/>
<path d="M2320 2004 c0 -286 1 -305 18 -302 15 3 17 19 20 131 2 97 7 135 18
153 9 13 19 24 23 24 4 0 56 -70 116 -155 87 -126 112 -155 131 -155 30 0 30
5 1 44 -52 68 -207 296 -207 303 0 5 52 64 116 133 109 118 114 125 88 128
-22 3 -39 -10 -108 -85 -44 -48 -102 -110 -128 -138 l-48 -50 0 138 c0 130 -1
137 -20 137 -20 0 -20 -7 -20 -306z"/>
<path d="M2752 2008 c3 -279 4 -303 21 -306 16 -3 17 16 17 302 0 300 0 306
-20 306 -20 0 -20 -5 -18 -302z"/>
<path d="M3344 2295 c-4 -9 -2 -21 4 -27 15 -15 44 -1 40 19 -4 23 -36 29 -44
8z"/>
<path d="M755 2076 c-38 -17 -90 -72 -104 -109 -32 -84 3 -193 75 -238 73 -45
185 -40 238 10 29 27 34 27 38 -6 2 -17 10 -29 21 -31 16 -3 17 11 17 187 0
184 -1 191 -20 191 -16 0 -20 -7 -20 -32 l0 -31 -22 20 c-57 52 -156 69 -223
39z m174 -55 c119 -85 60 -281 -86 -281 -64 0 -109 25 -140 77 -44 76 -22 157
58 211 44 30 120 27 168 -7z"/>
<path d="M1880 2083 c-8 -3 -23 -12 -32 -21 -16 -14 -18 -13 -18 1 0 10 -8 17
-20 17 -19 0 -20 -7 -20 -191 0 -176 1 -190 18 -187 15 3 18 20 22 143 3 77 9
148 14 157 23 49 113 64 159 28 36 -29 47 -76 47 -212 0 -111 1 -118 20 -118
19 0 20 7 20 138 0 156 -10 190 -69 229 -33 22 -103 30 -141 16z"/>
<path d="M2959 2062 c-122 -78 -119 -264 5 -337 46 -27 130 -34 179 -16 33 13
97 70 97 86 0 26 -32 26 -52 0 -77 -99 -250 -58 -274 64 l-6 31 178 2 179 3
-3 30 c-5 45 -34 95 -76 129 -33 27 -47 31 -109 34 -66 3 -76 1 -118 -26z
m189 -32 c34 -21 75 -78 66 -92 -8 -13 -282 -10 -290 3 -9 15 25 58 66 87 43
29 112 30 158 2z"/>
<path d="M3546 2069 c-21 -17 -26 -18 -26 -5 0 10 -9 16 -25 16 l-25 0 2 -187
c3 -180 4 -188 23 -188 19 0 20 8 25 140 3 77 9 148 14 157 23 49 113 64 159
27 37 -28 48 -82 46 -212 -1 -103 0 -112 17 -112 17 0 19 11 22 128 3 149 -12
202 -70 237 -45 28 -126 27 -162 -1z"/>
<path d="M1233 2068 c31 -78 171 -378 176 -378 6 0 158 325 179 381 2 5 -7 9
-21 9 -21 0 -31 -16 -88 -145 -35 -79 -67 -145 -70 -145 -3 0 -9 11 -15 24 -5
13 -33 78 -63 145 -48 107 -57 121 -79 121 -15 0 -22 -5 -19 -12z"/>
<path d="M1660 1890 c0 -183 1 -190 20 -190 19 0 20 7 20 190 0 183 -1 190
-20 190 -19 0 -20 -7 -20 -190z"/>
<path d="M3342 1893 c3 -180 4 -188 23 -188 19 0 20 8 23 188 l2 187 -25 0
-25 0 2 -187z"/>
</g>
</svg>
