<?xml version="1.0" standalone="no"?>
<!DOCTYPE svg PUBLIC "-//W3C//DTD SVG 20010904//EN"
 "http://www.w3.org/TR/2001/REC-SVG-20010904/DTD/svg10.dtd">
<svg version="1.0" xmlns="http://www.w3.org/2000/svg"
 width="400.000000pt" height="400.000000pt" viewBox="0 0 400.000000 400.000000"
 preserveAspectRatio="xMidYMid meet">

<g transform="translate(0.000000,400.000000) scale(0.100000,-0.100000)"
fill="#000000" stroke="none">
<path d="M565 3105 c-366 -60 -607 -292 -556 -537 15 -74 46 -138 66 -138 12
0 13 10 9 48 -3 26 -7 52 -9 59 -2 6 1 42 6 80 29 204 196 367 435 424 112 26
295 28 404 4 209 -47 369 -181 436 -366 21 -58 44 -200 44 -269 0 -243 -117
-466 -304 -579 -152 -92 -289 -122 -554 -123 -124 0 -197 3 -204 10 -8 8 8 31
52 79 48 53 76 97 125 198 34 72 76 168 93 215 18 47 59 159 92 250 90 245
141 341 222 422 37 37 62 70 57 74 -17 10 -92 -7 -155 -37 -80 -38 -166 -129
-221 -235 -23 -44 -87 -198 -142 -341 -164 -432 -211 -521 -313 -600 -80 -61
-84 -69 -43 -79 51 -13 607 -9 705 4 418 58 663 241 755 562 28 98 26 262 -4
360 -82 268 -284 442 -586 505 -111 23 -299 28 -410 10z"/>
<path d="M2035 2576 c-96 -31 -158 -69 -236 -146 -122 -120 -188 -266 -196
-432 -8 -154 34 -246 138 -302 99 -55 265 -48 394 16 144 71 252 192 318 357
29 71 31 85 32 206 0 126 -1 132 -30 184 -34 62 -73 95 -145 122 -71 27 -184
25 -275 -5z m201 -32 c158 -75 97 -502 -103 -723 -69 -77 -126 -111 -195 -117
-69 -7 -111 18 -141 84 -31 67 -30 224 2 336 55 198 191 375 321 420 58 19 75
20 116 0z"/>
<path d="M3198 2588 c-10 -8 -18 -37 -22 -80 -18 -186 -152 -455 -310 -624
-76 -80 -102 -84 -99 -14 10 272 11 465 2 513 -22 131 -89 197 -199 197 -49 0
-54 -8 -25 -42 48 -56 59 -124 60 -343 0 -110 -4 -268 -9 -350 -8 -136 -7
-152 8 -168 58 -58 203 44 392 278 66 81 118 163 173 272 94 188 128 329 86
359 -23 17 -37 18 -57 2z"/>
<path d="M3649 2582 c-92 -31 -170 -81 -249 -162 -116 -117 -180 -240 -207
-399 -19 -107 -6 -190 41 -259 108 -161 396 -138 580 44 54 55 90 110 82 130
-5 13 -23 -1 -85 -64 -102 -104 -182 -145 -281 -146 -74 -1 -103 13 -144 68
-18 24 -21 42 -21 129 0 154 -1 152 97 167 121 18 241 56 330 102 212 110 274
303 123 382 -56 29 -190 33 -266 8z m176 -44 c15 -14 28 -38 31 -58 23 -145
-150 -299 -388 -345 -82 -15 -82 -16 -34 94 102 236 297 390 391 309z"/>
</g>
</svg>
