<?xml version="1.0" standalone="no"?>
<!DOCTYPE svg PUBLIC "-//W3C//DTD SVG 20010904//EN"
 "http://www.w3.org/TR/2001/REC-SVG-20010904/DTD/svg10.dtd">
<svg version="1.0" xmlns="http://www.w3.org/2000/svg"
 width="209.000000pt" height="242.000000pt" viewBox="0 0 209.000000 242.000000"
 preserveAspectRatio="xMidYMid meet">

<g transform="translate(0.000000,242.000000) scale(0.100000,-0.100000)"
fill="#000000" stroke="none">
<path d="M20 1150 l0 -420 335 0 335 0 0 95 0 95 -210 0 -210 0 0 70 0 70 150
0 150 0 0 90 0 90 -150 0 -150 0 0 70 0 70 165 2 165 3 -52 93 -53 92 -237 0
-238 0 0 -420z"/>
<path d="M611 1513 c18 -32 84 -145 146 -252 l113 -193 0 -169 0 -169 125 0
125 0 0 163 0 162 131 225 c72 124 140 240 151 258 l20 32 -139 0 -138 0 -70
-135 c-38 -74 -72 -135 -75 -135 -3 0 -36 61 -75 135 l-70 135 -138 0 -138 0
32 -57z"/>
<path d="M370 510 c0 -11 7 -20 15 -20 8 0 15 9 15 20 0 11 -7 20 -15 20 -8 0
-15 -9 -15 -20z"/>
<path d="M453 523 c-9 -3 -13 -34 -13 -104 0 -81 3 -99 15 -99 12 0 15 18 15
105 0 58 -1 105 -2 104 -2 0 -9 -3 -15 -6z"/>
<path d="M608 519 c-10 -6 -18 -20 -18 -33 0 -19 -4 -22 -29 -18 -52 7 -82
-74 -46 -125 12 -18 25 -22 60 -21 54 1 57 7 53 125 -3 74 -5 81 -20 72z m-23
-124 c0 -30 -4 -41 -17 -43 -26 -5 -44 39 -28 67 19 36 45 22 45 -24z"/>
<path d="M660 510 c0 -13 7 -20 20 -20 13 0 20 7 20 20 0 13 -7 20 -20 20 -13
0 -20 -7 -20 -20z"/>
<path d="M20 420 l0 -100 48 0 c63 0 96 18 100 53 2 16 -1 34 -7 41 -8 9 -8
22 -2 39 7 18 6 30 -5 46 -13 17 -25 21 -75 21 l-59 0 0 -100z m108 48 c2 -11
-6 -18 -27 -23 -37 -8 -51 -1 -51 26 0 17 6 20 37 17 26 -2 39 -8 41 -20z m3
-64 c20 -24 -1 -49 -42 -49 -35 0 -47 18 -35 51 7 19 60 18 77 -2z"/>
<path d="M1343 513 c-9 -3 -13 -33 -13 -98 l0 -93 49 0 c56 -1 69 10 78 62 8
51 -18 90 -58 84 -26 -4 -29 -2 -29 24 0 28 -4 31 -27 21z m72 -118 c0 -33 -3
-40 -20 -40 -15 0 -21 8 -23 28 -5 39 5 59 25 55 14 -2 18 -13 18 -43z"/>
<path d="M1653 513 c-7 -2 -13 -13 -13 -24 0 -10 -4 -19 -10 -19 -5 0 -10 -7
-10 -15 0 -8 4 -15 9 -15 5 0 13 -26 17 -57 8 -53 11 -58 37 -61 19 -2 27 1
27 12 0 9 -7 16 -15 16 -11 0 -15 12 -15 45 0 33 4 45 15 45 8 0 15 7 15 15 0
8 -7 15 -15 15 -9 0 -15 9 -15 25 0 25 -4 28 -27 18z"/>
<path d="M1763 513 c-7 -3 -13 -13 -13 -24 0 -10 -4 -19 -10 -19 -5 0 -10 -7
-10 -15 0 -8 5 -15 10 -15 6 0 10 -22 10 -49 0 -51 16 -75 46 -69 22 4 31 28
11 28 -18 0 -27 21 -27 61 0 22 5 29 20 29 11 0 20 7 20 15 0 8 -9 15 -19 15
-13 0 -21 8 -23 23 -2 14 -8 22 -15 20z"/>
<path d="M200 417 c0 -76 17 -96 80 -95 l50 1 0 74 c0 58 -3 73 -15 73 -11 0
-15 -12 -15 -49 0 -51 -18 -78 -45 -67 -11 4 -15 21 -15 61 0 48 -2 55 -20 55
-17 0 -20 -7 -20 -53z"/>
<path d="M370 395 c0 -60 3 -75 15 -75 12 0 15 15 15 75 0 60 -3 75 -15 75
-12 0 -15 -15 -15 -75z"/>
<path d="M660 395 c0 -68 2 -75 20 -75 18 0 20 7 20 75 0 68 -2 75 -20 75 -18
0 -20 -7 -20 -75z"/>
<path d="M730 394 c0 -67 2 -74 20 -74 16 0 19 8 22 57 2 47 6 58 22 61 26 5
36 -15 36 -70 0 -36 4 -48 15 -48 12 0 15 13 15 56 0 82 -9 93 -75 93 l-55 -1
0 -74z"/>
<path d="M906 451 c-21 -23 -21 -80 0 -110 13 -18 23 -22 46 -17 34 7 35 -12
0 -30 -13 -6 -18 -15 -12 -23 6 -11 13 -11 36 0 28 14 29 16 32 105 l3 91 -44
1 c-31 1 -50 -4 -61 -17z m69 -56 c0 -46 -26 -60 -45 -25 -18 33 -4 72 23 68
18 -3 22 -9 22 -43z"/>
<path d="M1125 461 c-7 -12 12 -24 25 -16 16 10 50 -5 50 -21 0 -10 -6 -13
-19 -9 -10 3 -30 1 -45 -4 -20 -8 -26 -17 -26 -40 0 -39 16 -49 73 -49 l47 1
0 63 c0 52 -3 65 -19 74 -24 13 -78 13 -86 1z m73 -88 c-4 -20 -35 -30 -50
-15 -15 15 0 32 28 32 19 0 25 -5 22 -17z"/>
<path d="M1500 450 c-45 -45 -13 -130 49 -130 28 0 57 21 45 33 -4 3 -19 4
-34 0 -22 -4 -31 0 -39 16 -11 20 -9 21 40 21 51 0 51 0 44 27 -4 16 -11 34
-17 40 -16 20 -66 15 -88 -7z m70 -25 c0 -10 -10 -15 -31 -15 -27 0 -30 2 -19
15 7 8 21 15 31 15 11 0 19 -7 19 -15z"/>
<path d="M1856 448 c-48 -69 14 -155 85 -117 26 14 14 31 -17 23 -24 -6 -54 9
-54 27 0 5 22 9 49 9 l50 0 -10 32 c-5 17 -14 35 -21 40 -25 15 -67 8 -82 -14z
m74 -23 c0 -10 -10 -15 -30 -15 -22 0 -28 4 -24 15 4 8 17 15 30 15 15 0 24
-6 24 -15z"/>
<path d="M1990 394 c0 -67 2 -74 20 -74 16 0 19 8 22 58 3 49 6 57 23 57 19 0
35 12 35 27 0 4 -22 7 -50 6 l-50 0 0 -74z"/>
<path d="M498 258 c-15 -11 -17 -25 -11 -106 4 -68 10 -92 19 -92 8 0 14 10
14 23 0 12 4 28 9 36 7 12 13 7 27 -22 11 -23 25 -37 36 -37 17 0 17 2 2 37
-9 21 -18 43 -21 50 -2 6 3 23 12 37 17 25 17 26 -3 26 -11 0 -28 -12 -38 -27
l-19 -28 -5 58 c-5 53 -7 57 -22 45z"/>
<path d="M640 250 c0 -11 7 -20 15 -20 8 0 15 9 15 20 0 11 -7 20 -15 20 -8 0
-15 -9 -15 -20z"/>
<path d="M1579 260 c-13 -8 -16 -28 -17 -105 0 -87 2 -95 19 -95 17 0 19 8 19
105 0 58 -1 105 -2 105 -2 0 -10 -5 -19 -10z"/>
<path d="M1720 231 c0 -25 -3 -28 -25 -23 -37 7 -65 -23 -65 -67 0 -57 22 -80
75 -79 l45 1 0 98 c0 81 -3 99 -15 99 -10 0 -15 -10 -15 -29z m-5 -96 c0 -33
-3 -40 -20 -40 -26 0 -44 47 -25 70 23 28 45 14 45 -30z"/>
<path d="M24 138 c26 -87 50 -102 61 -39 9 55 22 60 30 10 6 -34 27 -61 39
-48 2 2 13 37 24 77 19 68 19 72 3 72 -13 0 -20 -13 -28 -47 l-10 -48 -13 48
c-18 61 -41 59 -56 -3 l-12 -45 -12 48 c-9 34 -17 47 -30 47 -17 0 -17 -4 4
-72z"/>
<path d="M236 197 c-9 -7 -20 -31 -23 -54 -4 -33 -1 -45 16 -62 44 -44 111
-12 111 54 0 60 -58 95 -104 62z m62 -29 c25 -25 8 -78 -25 -78 -22 0 -37 44
-24 69 13 24 31 27 49 9z"/>
<path d="M370 133 c0 -58 3 -73 15 -73 11 0 15 12 15 49 0 51 18 78 45 67 10
-3 15 1 15 13 0 16 -7 19 -45 19 l-45 -1 0 -74z"/>
<path d="M640 135 c0 -60 3 -75 15 -75 12 0 15 15 15 75 0 60 -3 75 -15 75
-12 0 -15 -15 -15 -75z"/>
<path d="M710 133 c0 -57 3 -73 15 -73 10 0 15 15 17 58 3 53 5 57 28 57 23 0
25 -4 28 -57 2 -43 7 -58 17 -58 19 0 21 122 3 138 -7 6 -34 10 -60 10 l-48
-1 0 -74z"/>
<path d="M888 199 c-25 -14 -31 -62 -14 -104 15 -36 18 -37 52 -32 40 7 44
-11 6 -28 -20 -9 -27 -28 -9 -26 4 1 15 1 25 1 28 0 42 42 42 124 l0 73 -43 0
c-24 1 -50 -3 -59 -8z m70 -55 c3 -34 -18 -60 -43 -50 -9 3 -15 18 -15 39 0
40 7 49 35 45 14 -2 21 -12 23 -34z"/>
<path d="M1104 138 c24 -79 43 -93 58 -43 18 59 21 60 32 15 14 -53 40 -65 49
-23 4 15 13 49 21 76 14 44 14 47 -3 47 -14 0 -21 -11 -28 -47 l-10 -48 -14
48 c-17 60 -40 59 -55 -3 -11 -48 -18 -45 -28 13 -5 27 -12 37 -25 37 -18 0
-18 -3 3 -72z"/>
<path d="M1310 190 c-12 -12 -20 -33 -20 -55 0 -65 67 -98 110 -55 43 43 13
130 -45 130 -14 0 -34 -9 -45 -20z m70 -26 c19 -21 1 -69 -25 -69 -26 0 -44
48 -25 69 7 9 18 16 25 16 7 0 18 -7 25 -16z"/>
<path d="M1450 133 c0 -58 3 -73 15 -73 11 0 15 12 15 49 0 51 18 78 45 67 10
-3 15 1 15 13 0 16 -7 19 -45 19 l-45 -1 0 -74z"/>
</g>
</svg>
