<?xml version="1.0" standalone="no"?>
<!DOCTYPE svg PUBLIC "-//W3C//DTD SVG 20010904//EN"
 "http://www.w3.org/TR/2001/REC-SVG-20010904/DTD/svg10.dtd">
<svg version="1.0" xmlns="http://www.w3.org/2000/svg"
 width="300.000000pt" height="300.000000pt" viewBox="0 0 300.000000 300.000000"
 preserveAspectRatio="xMidYMid meet">

<g transform="translate(0.000000,300.000000) scale(0.100000,-0.100000)"
fill="#000000" stroke="none">
<path d="M395 1618 c-4 -13 -45 -268 -45 -281 0 -4 13 -7 29 -7 27 0 30 4 36
43 12 76 12 76 68 79 40 2 53 7 55 21 3 14 -4 17 -47 17 -51 0 -51 0 -51 33 0
48 10 56 75 59 53 3 60 5 63 26 3 21 1 22 -88 22 -64 0 -92 -4 -95 -12z"/>
<path d="M601 1493 c-21 -135 -21 -137 -2 -156 14 -14 27 -18 45 -13 29 7 34
32 12 50 -13 10 -12 26 4 126 11 63 20 118 20 123 0 4 -13 7 -28 7 l-29 0 -22
-137z"/>
<path d="M744 1615 c-9 -23 3 -45 25 -45 22 0 46 34 36 50 -10 16 -55 12 -61
-5z"/>
<path d="M1100 1623 c0 -5 -9 -62 -20 -128 -26 -158 -26 -165 4 -165 25 0 36
16 36 56 0 39 30 29 47 -16 14 -34 21 -40 45 -40 32 0 34 5 12 59 -16 40 -16
40 16 85 34 47 35 76 1 76 -12 0 -29 -16 -45 -45 -32 -53 -69 -64 -60 -17 18
102 22 128 18 134 -7 10 -54 10 -54 1z"/>
<path d="M1750 1585 c0 -8 -9 -23 -20 -32 -21 -19 -27 -53 -9 -53 7 0 9 -12 5
-32 -20 -113 -20 -115 8 -133 33 -22 76 -13 76 15 0 11 -6 20 -14 20 -24 0
-27 25 -10 107 2 13 13 23 26 25 30 4 37 38 9 45 -14 3 -21 13 -21 29 0 19 -5
24 -25 24 -16 0 -25 -6 -25 -15z"/>
<path d="M2459 1537 c-44 -29 -76 -78 -84 -127 l-7 -40 -86 -1 c-70 -1 -81 -3
-56 -10 18 -5 34 -17 37 -28 4 -17 -1 -21 -37 -24 -22 -2 -3 -4 43 -5 l84 -2
-7 -50 -7 -50 54 0 54 0 9 48 c8 44 11 47 44 52 31 4 35 9 38 38 3 30 1 32
-29 32 -31 0 -31 1 -26 38 8 45 47 82 88 82 30 0 37 17 23 54 -10 25 -93 21
-135 -7z"/>
<path d="M737 1543 c-3 -5 -10 -44 -17 -88 -6 -44 -14 -90 -17 -102 -4 -20 -1
-23 24 -23 l30 0 17 101 c9 55 14 105 11 110 -7 11 -42 12 -48 2z"/>
<path d="M836 1528 c-3 -13 -12 -70 -21 -128 -9 -58 -18 -117 -21 -132 -5 -25
-3 -28 24 -28 27 0 30 4 36 40 6 36 9 40 36 40 80 0 131 46 138 125 8 96 -40
131 -115 86 -31 -19 -31 -19 -36 0 -7 26 -36 24 -41 -3z m133 -50 c9 -25 -1
-71 -20 -94 -6 -8 -27 -14 -45 -14 -27 0 -34 4 -34 19 0 47 43 111 75 111 9 0
19 -10 24 -22z"/>
<path d="M1342 1530 c-62 -39 -83 -140 -37 -185 29 -30 50 -31 93 -5 26 16 32
17 32 5 0 -9 9 -15 24 -15 22 0 24 6 39 102 9 56 14 104 11 107 -3 3 -33 7
-67 9 -50 2 -69 -1 -95 -18z m98 -60 c0 -56 -56 -114 -86 -89 -18 15 -18 52 1
89 13 25 22 30 50 30 32 0 35 -2 35 -30z"/>
<path d="M1555 1528 c-9 -40 -25 -152 -25 -175 0 -18 6 -23 25 -23 26 0 27 3
40 82 6 37 43 78 70 78 15 0 26 48 13 56 -6 4 -23 -3 -39 -15 -35 -26 -35 -26
-42 -1 -7 27 -35 25 -42 -2z"/>
</g>
</svg>
