<?xml version="1.0" encoding="UTF-8"?>
<svg version="1.1" xmlns="http://www.w3.org/2000/svg" width="400" height="400">
<path d="M0 0 C5.63758524 -0.07477921 11.27487465 -0.1288965 16.9128418 -0.16479492 C18.82630449 -0.17977783 20.73973347 -0.20017126 22.65307617 -0.22631836 C49.84597792 -0.58832253 49.84597792 -0.58832253 60 8 C64.24861866 12.71480125 66.10945135 16.84363564 66.14717102 23.21684265 C66.15432632 24.05075027 66.16148163 24.8846579 66.16885376 25.74383545 C66.17154266 26.65038879 66.17423157 27.55694214 66.17700195 28.4909668 C66.18357315 29.45245132 66.19014435 30.41393585 66.19691467 31.40455627 C66.21662255 34.58611126 66.22830526 37.76761907 66.23828125 40.94921875 C66.24235678 42.03757334 66.2464323 43.12592793 66.25063133 44.24726295 C66.27148223 50.00883417 66.28578773 55.77038165 66.29516602 61.53198242 C66.30622308 67.47246537 66.34061805 73.41257299 66.38033772 79.35292339 C66.40652706 83.92984192 66.41485998 88.50667136 66.41844749 93.08365822 C66.42330809 95.27283066 66.43490697 97.46199925 66.45348549 99.65109825 C66.47792374 102.72171851 66.476903 105.7913721 66.4699707 108.86206055 C66.48278076 109.75849274 66.49559082 110.65492493 66.50878906 111.57852173 C66.44718161 119.10227017 64.44084313 125.04529515 59.625 130.875 C49.98349009 138.68003183 40.46757383 137 28 137 C28 166.04 28 195.08 28 225 C32.29 225 36.58 225 41 225 C41 226.65 41 228.3 41 230 C27.8 230 14.6 230 1 230 C1 228.35 1 226.7 1 225 C3.64 225 6.28 225 9 225 C9 152.4 9 79.8 9 5 C6.03 5 3.06 5 0 5 C0 3.35 0 1.7 0 0 Z " fill="#1E1E1C" transform="translate(297,86)"/>
<path d="M0 0 C0 -2.31 0 -4.62 0 -7 C1.65 -7 3.3 -7 5 -7 C5 17.42 5 41.84 5 67 C3.35 67 1.7 67 0 67 C-0.03963867 66.44352783 -0.07927734 65.88705566 -0.12011719 65.3137207 C-2.13790759 30.09116177 -2.13790759 30.09116177 -17 -1 C-19.58234707 -2.28316303 -19.58234707 -2.28316303 -22 -3 C-26.32388551 0.75495321 -27.76680683 3.44377013 -29 9 C-29.18163081 11.82619594 -29.27489073 14.55091884 -29.26069641 17.37399292 C-29.26452196 18.19033427 -29.26834751 19.00667563 -29.27228898 19.8477546 C-29.28256487 22.56897971 -29.27863715 25.28999169 -29.2746582 28.01123047 C-29.27900768 29.96808059 -29.28419162 31.92492901 -29.29014587 33.8817749 C-29.30352196 39.18759983 -29.30411606 44.49335346 -29.30158257 49.79919195 C-29.30051189 54.23252628 -29.30539876 58.66584624 -29.310188 63.09917748 C-29.32127846 73.56043266 -29.32172322 84.02165194 -29.31567383 94.48291016 C-29.3096341 105.26597883 -29.32194613 116.04891701 -29.3432439 126.83196342 C-29.36087156 136.09841901 -29.3668594 145.36483312 -29.36360615 154.63130486 C-29.36179496 160.16197326 -29.36441317 165.69254857 -29.37832069 171.22320175 C-29.39091325 176.4254685 -29.38894133 181.62753214 -29.37590981 186.82979584 C-29.37354757 188.73528996 -29.37626603 190.64079844 -29.38453293 192.54627609 C-29.39503211 195.15509775 -29.38687453 197.76324188 -29.3742218 200.37203979 C-29.38159609 201.11923904 -29.38897037 201.86643829 -29.39656812 202.63627994 C-29.33400448 208.80259383 -28.25706225 215.25928156 -24.25 220.125 C-20.82806138 221.45575391 -18.49592063 220.9534329 -15 220 C-11.76654755 216.76654755 -10.88234781 213.43640867 -10.84178162 208.95674133 C-10.8319928 208.1364444 -10.82220398 207.31614746 -10.81211853 206.47099304 C-10.80636307 205.57475723 -10.8006076 204.67852142 -10.79467773 203.75512695 C-10.78477814 202.80859253 -10.77487854 201.86205811 -10.76467896 200.88684082 C-10.73305761 197.75401319 -10.70830394 194.62117039 -10.68359375 191.48828125 C-10.66302478 189.31780093 -10.64202832 187.14732463 -10.62062073 184.97685242 C-10.56539423 179.26076504 -10.51598745 173.54464147 -10.46777344 167.82849121 C-10.41756267 161.99695613 -10.36187438 156.16547367 -10.30664062 150.33398438 C-10.19905196 138.88936786 -10.09760852 127.44470568 -10 116 C-13.3 116 -16.6 116 -20 116 C-20 114.35 -20 112.7 -20 111 C-8.12 111 3.76 111 16 111 C16 112.65 16 114.3 16 116 C13.36 116 10.72 116 8 116 C8 151.97 8 187.94 8 225 C6.35 225 4.7 225 3 225 C2.34 223.35 1.68 221.7 1 220 C-2.26662143 220.65780935 -4.78167621 221.89033271 -7.6875 223.5 C-14.87940174 227.13813211 -21.13513533 227.77770734 -28.9375 225.71875 C-35.55631678 223.41219264 -40.89615259 218.21584928 -44.0078125 211.98046875 C-46.55223079 205.52061065 -47.14895545 199.1568304 -47.14044189 192.246521 C-47.14341302 191.48482581 -47.14638414 190.72313063 -47.1494453 189.93835378 C-47.15808958 187.39606572 -47.15963691 184.853825 -47.16113281 182.31152344 C-47.16576399 180.48452149 -47.17078905 178.6575205 -47.17617798 176.83052063 C-47.18927458 171.87375136 -47.19574151 166.91699562 -47.20018864 161.96021175 C-47.20312362 158.86083483 -47.20722922 155.76146156 -47.21169281 152.66208649 C-47.22536015 142.95726627 -47.2350307 133.25245447 -47.2388947 123.5476253 C-47.24337456 112.35875198 -47.26092235 101.17000087 -47.2898953 89.98116469 C-47.31153478 81.32278245 -47.32160018 72.66443454 -47.32293582 64.00602555 C-47.32398216 58.83915137 -47.32985374 53.6723922 -47.34775543 48.50554657 C-47.36427545 43.64309891 -47.36637255 38.78085224 -47.35761642 33.91838646 C-47.35684817 32.13908791 -47.3611607 30.35977837 -47.37107468 28.58050728 C-47.49168132 5.57642507 -47.49168132 5.57642507 -39.8046875 -2.53125 C-26.6576825 -13.23097701 -12.43340641 -8.70338448 0 0 Z " fill="#1C1C1A" transform="translate(84,91)"/>
<path d="M0 0 C2.47923801 -0.02685095 4.9581884 -0.04676547 7.4375 -0.0625 C8.14455078 -0.07087891 8.85160156 -0.07925781 9.58007812 -0.08789062 C11.38693559 -0.09653588 13.19387603 -0.05220011 15 0 C17.11072993 2.11072993 16.71946833 6.48897351 17.03138733 9.40742493 C17.13024701 10.29975506 17.22910669 11.19208518 17.33096212 12.11145562 C17.66372711 15.12504564 17.9901558 18.13928912 18.31665039 21.15356445 C18.55287607 23.3048708 18.78948259 25.45613535 19.02644348 27.60736084 C19.67089821 33.46851651 20.30982857 39.33026275 20.94769216 45.19213891 C21.61478726 51.31519122 22.28650302 57.43773666 22.95762634 63.56034851 C24.08453014 73.84744221 25.20802351 84.1349039 26.3293457 94.42260742 C27.62681958 106.32620074 28.92885463 118.22928513 30.2335282 130.13209182 C31.62033096 142.78458526 33.00383394 155.43743792 34.38634944 168.09040046 C34.78573365 171.74356275 35.1857322 175.39665735 35.58586311 179.04973793 C36.21417531 184.78758545 36.84027851 190.52566986 37.46465874 196.26394653 C37.69450392 198.37318674 37.9250859 200.48234681 38.15644836 202.59142113 C38.47150207 205.46460802 38.78389884 208.33807151 39.09559631 211.21162415 C39.18829695 212.05140834 39.28099759 212.89119253 39.37650734 213.75642473 C39.74760656 217.20072739 40 220.53102061 40 224 C42.97 224 45.94 224 49 224 C49 225.98 49 227.96 49 230 C36.79 230 24.58 230 12 230 C12 228.02 12 226.04 12 224 C14.97 224 17.94 224 21 224 C20.88724731 222.98602142 20.77449463 221.97204285 20.6583252 220.92733765 C19.59534133 211.36408765 18.53580779 201.80046084 17.47963715 192.23645592 C16.93656062 187.31971552 16.39227618 182.40311516 15.84521484 177.48681641 C15.31716032 172.74092035 14.7923002 167.99468085 14.26963806 163.24818802 C14.06983285 161.43881298 13.86888363 159.6295639 13.66676331 157.82044601 C13.38352192 155.28345493 13.10437841 152.74604354 12.82617188 150.20849609 C12.74201523 149.46330719 12.65785858 148.71811829 12.57115173 147.9503479 C12.13253576 143.90629639 12 140.0927911 12 136 C5.07 136 -1.86 136 -9 136 C-9 138.97 -9 141.94 -9 145 C-9.17933069 147.34651353 -9.39783999 149.69041485 -9.65844727 152.02929688 C-9.80182022 153.34095825 -9.94519318 154.65261963 -10.09291077 156.00402832 C-10.17013933 156.69062027 -10.2473679 157.37721222 -10.32693672 158.08460999 C-10.57139118 160.26317546 -10.80883483 162.44240661 -11.04441833 164.62194824 C-11.71453375 170.81238816 -12.39510326 177.00164374 -13.0847168 183.18994141 C-13.50798054 186.99254011 -13.92165065 190.79608681 -14.3296032 194.60035706 C-14.48582386 196.03910769 -14.64566459 197.47747049 -14.8093586 198.91539001 C-16.11780892 209.98829246 -16.11780892 209.98829246 -15 221 C-12.08235 222.9451 -10.37462715 223.45276317 -7 224 C-7 225.98 -7 227.96 -7 230 C-15.58 230 -24.16 230 -33 230 C-33.33 228.35 -33.66 226.7 -34 225 C-33.37351563 224.75765625 -32.74703125 224.5153125 -32.1015625 224.265625 C-31.28429687 223.93046875 -30.46703125 223.5953125 -29.625 223.25 C-28.81289062 222.92515625 -28.00078125 222.6003125 -27.1640625 222.265625 C-24.50004368 220.70760677 -24.111488 219.8614283 -23 217 C-22.60286574 214.54755012 -22.29516114 212.15854856 -22.05836487 209.69081116 C-21.98118522 208.95239768 -21.90400557 208.2139842 -21.82448715 207.45319456 C-21.56764849 204.97739689 -21.32207151 202.50061205 -21.07641602 200.02368164 C-20.89447478 198.24743836 -20.71184029 196.47126598 -20.52856445 194.69515991 C-20.03178611 189.86165686 -19.54473504 185.02721662 -19.05935407 180.19255757 C-18.5472594 175.10862354 -18.02619637 170.02560895 -17.50608826 164.94248962 C-16.51887815 155.28091108 -15.53965878 145.61854003 -14.56331819 135.95585769 C-13.46369971 125.07666705 -12.35563657 114.19834242 -11.24663651 103.32010472 C-9.7927919 89.05878003 -8.34088151 74.79726345 -6.8963607 60.53499109 C-6.1771235 53.43381635 -5.4558002 46.33285533 -4.73353356 39.23198813 C-4.25654395 34.53865858 -3.78337126 29.84496789 -3.31400329 25.15087014 C-3.10363418 23.05089729 -2.89180435 20.951078 -2.67932796 18.85131741 C-2.42732638 16.35954622 -2.17783168 13.86751963 -1.93139744 11.37519169 C-1.76733607 9.76355971 -1.76733607 9.76355971 -1.59996033 8.11936951 C-1.50738418 7.19484199 -1.41480803 6.27031446 -1.31942654 5.31777096 C-1 3 -1 3 0 0 Z " fill="#1E1E1C" transform="translate(191,86)"/>
<path d="M0 0 C13 0 13 0 16.6875 2.25 C19.90388623 6.07489174 21.2466542 8.65166343 21.26742554 13.66136169 C21.27595551 14.59360565 21.28448547 15.52584961 21.29327393 16.48634338 C21.29236755 17.50203903 21.29146118 18.51773468 21.29052734 19.56420898 C21.30060318 21.17700745 21.30060318 21.17700745 21.31088257 22.8223877 C21.32989692 26.38033658 21.33378836 29.93809721 21.3359375 33.49609375 C21.34236243 35.9670469 21.34909056 38.43799927 21.35610962 40.90895081 C21.36809057 46.08979049 21.37178953 51.27056345 21.37060547 56.45141602 C21.3704021 63.09404783 21.39771971 69.73625268 21.43214989 76.37878323 C21.45437173 81.4822639 21.45844447 86.585641 21.45738602 91.68916512 C21.45974849 94.13841284 21.46860816 96.58766315 21.48405075 99.03686333 C21.50361699 102.46034671 21.49790907 105.88289853 21.48583984 109.30639648 C21.49707886 110.3200679 21.50831787 111.33373932 21.51989746 112.37812805 C21.48041732 116.77871864 21.43524201 119.29053147 19.09463501 123.10585022 C12.98635827 128.62948131 11.31553765 126 0 126 C0 84.42 0 42.84 0 0 Z " fill="#FBFBFB" transform="translate(324,91)"/>
<path d="M0 0 C0.33 0 0.66 0 1 0 C1.09578339 0.86427109 1.19156677 1.72854218 1.29025269 2.6190033 C2.20146357 10.84009715 3.11322867 19.06112932 4.02558708 27.28209591 C4.49440511 31.50663467 4.96302294 35.73119542 5.43115234 39.95581055 C5.88453326 44.04725653 6.33848037 48.13863936 6.79278946 52.22998238 C6.96438103 53.77612724 7.13578241 55.32229322 7.3069725 56.86848259 C7.55030586 59.06594579 7.79434795 61.26332923 8.03857422 63.46069336 C8.1163806 64.16389174 8.19418697 64.86709013 8.27435112 65.59159756 C8.68415883 69.26996942 9.11225282 72.94520966 9.565979 76.61843872 C9.65882235 77.37778749 9.75166569 78.13713625 9.84732246 78.91949558 C10.02385791 80.35563562 10.20377834 81.7913657 10.38789177 83.22655392 C10.92090598 87.57663742 11 91.56188926 11 96 C4.07 96 -2.86 96 -10 96 C-8.60774287 79.21259192 -6.89819486 62.48692304 -5 45.75 C-4.47810023 41.11991139 -3.95772976 36.48965151 -3.4375 31.859375 C-3.31342773 30.75758911 -3.18935547 29.65580322 -3.06152344 28.52062988 C-1.99439206 19.01853639 -0.98202827 9.51123265 0 0 Z " fill="#F9F9F9" transform="translate(192,121)"/>
</svg>
