<?xml version="1.0" encoding="UTF-8"?>
<svg version="1.1" xmlns="http://www.w3.org/2000/svg" width="1280" height="540">
<path d="M0 0 C37.26648032 33.14520343 57.18209057 78.31699946 62.09765625 127.47265625 C62.09765625 144.30265625 62.09765625 161.13265625 62.09765625 178.47265625 C-31.62234375 178.47265625 -125.34234375 178.47265625 -221.90234375 178.47265625 C-217.6117335 191.51634416 -217.6117335 191.51634416 -211.77734375 203.72265625 C-211.40536865 204.36976563 -211.03339355 205.016875 -210.65014648 205.68359375 C-197.76752419 227.12397677 -176.50665897 239.87707876 -152.78710938 246.02050781 C-118.95815203 254.10026353 -84.06265856 247.05161731 -54.58984375 229.5 C-45.78175424 223.84889155 -38.16358412 216.97593797 -30.90234375 209.47265625 C-25.74202315 211.06509893 -22.04906222 214.2761938 -17.90234375 217.59765625 C-16.28593936 218.8733887 -14.66871898 220.14808777 -13.05078125 221.421875 C-11.78572754 222.42033447 -11.78572754 222.42033447 -10.49511719 223.43896484 C-6.20437349 226.80449168 -1.86755629 230.10881362 2.47265625 233.41015625 C3.34092041 234.07136475 4.20918457 234.73257324 5.10375977 235.41381836 C12.2147885 240.82040456 19.35913454 246.18223338 26.52685547 251.51342773 C30.82439015 254.72026974 35.0164477 257.99413018 39.09765625 261.47265625 C36.88393967 266.44939361 33.16780357 269.74330631 29.34765625 273.53515625 C28.58485352 274.29376953 27.82205078 275.05238281 27.03613281 275.83398438 C20.44777083 282.293378 13.56202619 288.06375673 6.09765625 293.47265625 C5.04320312 294.24867188 3.98875 295.0246875 2.90234375 295.82421875 C-23.71736562 314.85698393 -53.76414547 325.9721592 -85.90234375 331.47265625 C-86.63952637 331.60397949 -87.37670898 331.73530273 -88.13623047 331.87060547 C-138.4553228 340.44348787 -194.1603214 328.97951282 -236.08203125 299.9453125 C-243.98884388 294.29651894 -251.16027993 288.48701824 -257.90234375 281.47265625 C-258.72734375 280.64765625 -259.55234375 279.82265625 -260.40234375 278.97265625 C-261.22734375 278.14765625 -262.05234375 277.32265625 -262.90234375 276.47265625 C-263.48209961 275.91465332 -264.06185547 275.35665039 -264.65917969 274.78173828 C-294.70686958 245.51306257 -313.52280393 199.06766487 -314.09214783 157.1701355 C-314.09654373 156.44883453 -314.10093964 155.72753357 -314.10546875 154.984375 C-314.11248306 154.20748322 -314.11949738 153.43059143 -314.12672424 152.63015747 C-314.14411107 150.14009725 -314.15057548 147.65027492 -314.15234375 145.16015625 C-314.15301849 144.30884125 -314.15369324 143.45752625 -314.15438843 142.58041382 C-314.13851015 129.97944151 -313.7361972 117.80103444 -310.90234375 105.47265625 C-310.73605469 104.71146484 -310.56976562 103.95027344 -310.3984375 103.16601562 C-299.44168868 54.02296814 -269.93706153 12.07258606 -227.734375 -15.12109375 C-158.03793795 -59.18103866 -62.71141551 -54.60872925 0 0 Z M-193.90234375 59.47265625 C-194.711875 60.09785156 -195.52140625 60.72304688 -196.35546875 61.3671875 C-208.74847359 71.65858138 -219.43951639 87.29586451 -221.90234375 103.47265625 C-221.90234375 105.78265625 -221.90234375 108.09265625 -221.90234375 110.47265625 C-158.54234375 110.14265625 -95.18234375 109.81265625 -29.90234375 109.47265625 C-31.51968537 98.0510285 -31.51968537 98.0510285 -35.46484375 87.84765625 C-35.9899353 86.77064453 -35.9899353 86.77064453 -36.52563477 85.671875 C-39.81406069 79.18671194 -43.92693833 73.77403651 -48.90234375 68.47265625 C-49.588125 67.69664062 -50.27390625 66.920625 -50.98046875 66.12109375 C-68.90108308 46.80665387 -95.94775698 38.28518757 -121.66015625 37.21875 C-147.97191079 36.63702754 -173.02724447 43.30855911 -193.90234375 59.47265625 Z " fill="#000000" transform="translate(1072.90234375,206.52734375)"/>
<path d="M0 0 C0.73241409 -0.00705963 1.46482819 -0.01411926 2.21943665 -0.02139282 C43.80410618 -0.3307441 82.70882628 7.27897955 114.1796875 36.203125 C115.11425781 37.04359375 116.04882812 37.8840625 117.01171875 38.75 C129.35929761 50.40865815 138.39363263 64.7194505 145.1796875 80.203125 C145.48745117 80.89986328 145.79521484 81.59660156 146.11230469 82.31445312 C157.62306479 108.84813838 160.67501168 137.07006332 160.52026367 165.74389648 C160.5194146 167.99356576 160.51989799 170.24323586 160.52159119 172.49290466 C160.52244164 178.52035145 160.50497228 184.54761414 160.48386931 190.57501864 C160.46494161 196.90368606 160.46333953 203.23235906 160.45979309 209.56105042 C160.45156887 220.15751212 160.43291145 230.7539145 160.40600586 241.3503418 C160.37835525 252.25170567 160.35717598 263.15305137 160.34448242 274.05444336 C160.34369425 274.72943571 160.34290608 275.40442806 160.34209403 276.09987473 C160.33817815 279.48701827 160.33438721 282.87416194 160.33065832 286.26130569 C160.29969365 314.24196875 160.2444628 342.22251866 160.1796875 370.203125 C128.1696875 370.203125 96.1596875 370.203125 63.1796875 370.203125 C63.14230469 355.56453125 63.10492188 340.9259375 63.06640625 325.84375 C63.03611553 316.54686568 63.00508064 307.24999362 62.97070312 297.953125 C62.9163253 283.21029801 62.86490772 268.46750501 62.83325195 253.72460938 C62.81017779 242.9849136 62.77667571 232.24530788 62.73098594 221.50568366 C62.70718006 215.82647124 62.6883689 210.1473473 62.68207359 204.46808624 C62.67596505 199.10661275 62.65576071 193.74536529 62.62541199 188.38397598 C62.61672318 186.43152317 62.6128898 184.4790407 62.61467934 182.52656937 C62.63242056 154.20144279 58.53050052 124.96745305 37.984375 103.734375 C21.16640079 88.55603615 -0.69747816 83.56237533 -22.9375 83.95703125 C-46.96242905 85.47973802 -66.15331903 94.99491405 -82.9375 112.3984375 C-101.3361204 133.51747649 -104.11010876 163.48977555 -104.13916016 190.24365234 C-104.14847695 192.22599183 -104.15864817 194.20832745 -104.16960144 196.19065857 C-104.19671822 201.53056017 -104.21199604 206.87043566 -104.22502947 212.21038771 C-104.24074084 217.80643652 -104.26750522 223.40243265 -104.2930603 228.9984436 C-104.33970709 239.57670685 -104.37651914 250.15498016 -104.40973318 260.73329318 C-104.45523081 275.04090026 -104.51605184 289.34844186 -104.57598114 303.65599442 C-104.66989023 326.17167166 -104.7434393 348.68736822 -104.8203125 371.203125 C-136.5003125 371.203125 -168.1803125 371.203125 -200.8203125 371.203125 C-200.8203125 251.083125 -200.8203125 130.963125 -200.8203125 7.203125 C-169.4703125 7.203125 -138.1203125 7.203125 -105.8203125 7.203125 C-105.4903125 23.373125 -105.1603125 39.543125 -104.8203125 56.203125 C-100.8603125 51.583125 -96.9003125 46.963125 -92.8203125 42.203125 C-69.38403062 16.94063933 -34.7750734 0.22352536 0 0 Z " fill="#000000" transform="translate(354.8203125,161.796875)"/>
<path d="M0 0 C31.68 0 63.36 0 96 0 C96 46.53 96 93.06 96 141 C119.1 141 142.2 141 166 141 C166.04010881 161.42429702 166.04010881 161.42429702 166.04882812 170.09960938 C166.0548166 176.02987558 166.06191703 181.96012642 166.07543945 187.89038086 C166.08626822 192.66898836 166.09227681 197.44757938 166.09487724 202.2261982 C166.09673151 204.05353619 166.10035216 205.88087324 166.10573006 207.70820427 C166.11294036 210.25853329 166.11399095 212.80879337 166.11352539 215.35913086 C166.11712067 216.12229614 166.12071594 216.88546143 166.12442017 217.67175293 C166.11405216 222.88594784 166.11405216 222.88594784 165 224 C162.85256451 224.09425595 160.70198974 224.11742648 158.55249023 224.11352539 C157.54277664 224.11374443 157.54277664 224.11374443 156.51266479 224.1139679 C154.27794216 224.11326878 152.0433019 224.10547652 149.80859375 224.09765625 C148.26302638 224.09579206 146.71745843 224.09436816 145.17189026 224.09336853 C141.09642923 224.0895434 137.02100363 224.07971317 132.94555664 224.06866455 C128.78988118 224.05845032 124.63420001 224.05387089 120.47851562 224.04882812 C112.31899413 224.03809089 104.15950147 224.02101454 96 224 C96.08444616 241.44815965 96.17977168 258.89622308 96.28752708 276.34425354 C96.33733168 284.44839657 96.38377374 292.55253108 96.421875 300.65673828 C96.45515088 307.73266418 96.49516822 314.80851689 96.54279006 321.88436127 C96.56770774 325.6197823 96.58958425 329.35515703 96.60334396 333.09063721 C96.6563932 346.93184175 96.78287394 360.73884033 97.90869141 374.54296875 C97.98662619 375.49991135 98.06456097 376.45685394 98.14485741 377.4427948 C99.04049446 387.14568843 100.98605424 396.11965728 107 404 C107.495 405.485 107.495 405.485 108 407 C109.83077674 408.09554988 109.83077674 408.09554988 112 409 C112.65355469 409.39058594 113.30710937 409.78117187 113.98046875 410.18359375 C127.09407109 417.63397667 142.97134392 417.49371427 157.66088867 417.84228516 C160.4608947 418.03107588 163.23182016 418.53863669 166 419 C166 448.37 166 477.74 166 508 C119.42228336 508 119.42228336 508 106 506 C105.12746582 505.87641113 104.25493164 505.75282227 103.35595703 505.62548828 C80.10487203 502.22981734 57.11850035 495.56609257 39 480 C38.02546875 479.24009766 38.02546875 479.24009766 37.03125 478.46484375 C12.27604212 458.47403104 5.00996954 424.10124314 1.39453125 394.1640625 C0.25465892 382.78778836 -0.14435296 371.46786398 -0.12025452 360.04202271 C-0.12069164 358.47901482 -0.12156913 356.916007 -0.12284368 355.35299957 C-0.12506099 351.09762916 -0.1211056 346.84228432 -0.11606562 342.58691716 C-0.11172126 337.9831666 -0.11321036 333.37941732 -0.1139679 328.77566528 C-0.11449061 320.81247749 -0.1113702 312.84929793 -0.10573006 304.88611221 C-0.09758084 293.37287793 -0.09499633 281.85964759 -0.09374207 270.34641074 C-0.09155692 251.66404371 -0.0849114 232.98168106 -0.07543945 214.29931641 C-0.06625144 196.15804059 -0.0591774 178.01676596 -0.05493164 159.87548828 C-0.05466892 158.75605607 -0.05440619 157.63662386 -0.05413551 156.48326947 C-0.05283041 150.86704757 -0.05156672 145.25082566 -0.05032361 139.63460374 C-0.03996771 93.08973193 -0.02153843 46.54486824 0 0 Z " fill="#000000" transform="translate(567,28)"/>
<path d="M0 0 C31.68 0 63.36 0 96 0 C96 175.89 96 351.78 96 533 C64.32 533 32.64 533 0 533 C0 357.11 0 181.22 0 0 Z " fill="#000000" transform="translate(1184,0)"/>
<path d="M0 0 C32.01 0 64.02 0 97 0 C97 120.12 97 240.24 97 364 C65.32 364 33.64 364 1 364 C-0 363 -0 363 -0.1241985 360.54823488 C-0.12381878 359.44590676 -0.12343906 358.34357864 -0.12304783 357.20784664 C-0.12503888 355.941383 -0.12702993 354.67491936 -0.12908131 353.37007803 C-0.12622771 351.94633907 -0.1232821 350.52260029 -0.12025452 349.09886169 C-0.12069009 347.60069592 -0.12156473 346.10253022 -0.12284368 344.60436493 C-0.12509144 340.46784335 -0.12106355 336.33134741 -0.11606562 332.19482911 C-0.11176531 327.741499 -0.11320725 323.28817046 -0.1139679 318.83483887 C-0.1144934 311.11260571 -0.11134386 303.39038098 -0.10573006 295.66814995 C-0.0976186 284.50296584 -0.0950002 273.33778582 -0.09374207 262.17259908 C-0.09155099 244.05980658 -0.08488939 225.94701858 -0.07543945 207.83422852 C-0.06626678 190.23461937 -0.05918524 172.63501144 -0.05493164 155.03540039 C-0.05466892 153.95138372 -0.05440619 152.86736705 -0.05413551 151.75050139 C-0.05283051 146.31255416 -0.0515668 140.87460693 -0.05032361 135.43665969 C-0.03994925 90.29110247 -0.02151002 45.14555356 0 0 Z " fill="#000000" transform="translate(2,169)"/>
<path d="M0 0 C33.33 0 66.66 0 101 0 C101 33.66 101 67.32 101 102 C97.52867267 103.73566366 93.50263686 103.07551754 89.68505859 103.02172852 C88.70351114 103.01193686 87.72196369 103.00214521 86.71067238 102.99205685 C83.52318898 102.95909661 80.33583676 102.9191225 77.1484375 102.87890625 C75.18465665 102.85757072 73.22087077 102.83669333 71.25708008 102.81628418 C63.96299101 102.73725046 56.66900042 102.64933062 49.375 102.5625 C33.08125 102.376875 16.7875 102.19125 0 102 C0 68.34 0 34.68 0 0 Z " fill="#0067B5" transform="translate(0,7)"/>
</svg>
