<?xml version="1.0" encoding="UTF-8"?>
<svg version="1.1" xmlns="http://www.w3.org/2000/svg" width="300" height="300">
<path d="M0 0 C0.92877457 -0.00807175 1.85754913 -0.01614349 2.81446838 -0.02445984 C4.7769284 -0.03823996 6.73941178 -0.04898903 8.7019043 -0.05688477 C10.67886545 -0.06834775 12.65579707 -0.08870823 14.63256836 -0.1184082 C27.22150744 -0.30705786 38.20262016 0.45226156 50.25390625 4.23828125 C51.20918213 4.51019287 52.16445801 4.78210449 53.14868164 5.06225586 C69.87459361 9.87550192 85.52408643 17.04526963 99.3203125 27.7421875 C101.18420634 29.2841155 101.18420634 29.2841155 103.25390625 30.23828125 C103.25390625 30.89828125 103.25390625 31.55828125 103.25390625 32.23828125 C103.79660156 32.46515625 104.33929688 32.69203125 104.8984375 32.92578125 C107.95873027 34.63101901 110.39401864 36.86574633 112.94140625 39.23828125 C113.46814941 39.72594971 113.99489258 40.21361816 114.53759766 40.71606445 C121.87670674 47.59800867 128.415051 55.04831362 134.25390625 63.23828125 C134.83011719 64.01945312 135.40632813 64.800625 136 65.60546875 C142.05352548 73.96323941 146.15795806 82.75124056 150.04296875 92.28125 C150.87180257 94.30520871 151.76357758 96.30420677 152.70703125 98.27734375 C155.05664929 103.75154945 156.11330565 109.62882174 157.37890625 115.42578125 C157.64316406 116.58142578 157.90742188 117.73707031 158.1796875 118.92773438 C163.2565589 141.87673935 162.28331681 165.57510208 156.25390625 188.23828125 C155.939375 189.51832031 155.62484375 190.79835937 155.30078125 192.1171875 C150.88709709 209.20959409 142.2413015 229.30071546 129.53125 241.953125 C127.97786537 243.32559618 127.97786537 243.32559618 127.25390625 246.23828125 C125.58723958 247.57161458 123.92057292 248.90494792 122.25390625 250.23828125 C121.92390625 251.22828125 121.59390625 252.21828125 121.25390625 253.23828125 C119.62129911 254.61310832 117.95165563 255.94475792 116.25390625 257.23828125 C115.24728833 258.23161925 114.2475003 259.23191607 113.25390625 260.23828125 C81.92057292 288.23828125 81.92057292 288.23828125 67.25390625 288.23828125 C66.92390625 288.89828125 66.59390625 289.55828125 66.25390625 290.23828125 C64.40625 290.87109375 64.40625 290.87109375 62.19140625 291.36328125 C61.45792969 291.53085937 60.72445312 291.6984375 59.96875 291.87109375 C59.40285156 291.99226563 58.83695313 292.1134375 58.25390625 292.23828125 C58.25390625 292.89828125 58.25390625 293.55828125 58.25390625 294.23828125 C57.650625 294.28726562 57.04734375 294.33625 56.42578125 294.38671875 C55.22695313 294.49886719 55.22695313 294.49886719 54.00390625 294.61328125 C53.215 294.68289063 52.42609375 294.7525 51.61328125 294.82421875 C49.26103549 295.11125071 49.26103549 295.11125071 47.39733887 296.22674561 C45.0274925 297.34513116 43.20325939 297.62160184 40.59960938 297.83691406 C39.71861572 297.91026978 38.83762207 297.98362549 37.92993164 298.0592041 C31.14010991 298.5135727 24.34558345 298.71583189 17.54394531 298.90576172 C15.69800249 298.96035821 13.85226385 299.02241737 12.00683594 299.09228516 C-4.34962315 299.70967565 -19.64399736 298.51866704 -35.18359375 293.05078125 C-36.76438158 292.51196316 -38.34636543 291.97663757 -39.9296875 291.4453125 C-40.59540771 291.21303955 -41.26112793 290.9807666 -41.94702148 290.74145508 C-43.91626299 290.10360687 -43.91626299 290.10360687 -46.74609375 290.23828125 C-47.24109375 288.75328125 -47.24109375 288.75328125 -47.74609375 287.23828125 C-50.05609375 286.90828125 -52.36609375 286.57828125 -54.74609375 286.23828125 C-54.74609375 285.57828125 -54.74609375 284.91828125 -54.74609375 284.23828125 C-56.32390625 283.80515625 -56.32390625 283.80515625 -57.93359375 283.36328125 C-64.22258537 281.50751323 -67.09644904 279.88792596 -71.74609375 275.23828125 C-73.22913384 274.17260704 -74.73150056 273.13361301 -76.24609375 272.11328125 C-80.58459937 269.14928717 -84.62011502 265.94709229 -88.62109375 262.55078125 C-89.16830078 262.08720215 -89.71550781 261.62362305 -90.27929688 261.14599609 C-96.14900978 256.11765696 -96.14900978 256.11765696 -98.74609375 253.23828125 C-98.74609375 252.57828125 -98.74609375 251.91828125 -98.74609375 251.23828125 C-99.40609375 251.23828125 -100.06609375 251.23828125 -100.74609375 251.23828125 C-105.74609375 245.76209077 -105.74609375 245.76209077 -105.74609375 243.23828125 C-106.40609375 243.23828125 -107.06609375 243.23828125 -107.74609375 243.23828125 C-111.56091891 239.03190512 -118.74609375 231.10085846 -118.74609375 225.23828125 C-119.40609375 224.90828125 -120.06609375 224.57828125 -120.74609375 224.23828125 C-123.12994882 220.70992282 -124.69337968 217.09044273 -126.18359375 213.11328125 C-126.61542969 211.96085938 -127.04726562 210.8084375 -127.4921875 209.62109375 C-128.11287109 207.94660156 -128.11287109 207.94660156 -128.74609375 206.23828125 C-129.08769531 205.34882813 -129.42929688 204.459375 -129.78125 203.54296875 C-131.9097222 197.90725695 -133.71804068 192.19785103 -135.43359375 186.42578125 C-135.75553711 185.34925293 -135.75553711 185.34925293 -136.08398438 184.25097656 C-136.3865918 183.21408691 -136.3865918 183.21408691 -136.6953125 182.15625 C-136.87408936 181.54547607 -137.05286621 180.93470215 -137.23706055 180.30541992 C-138.66435136 174.50931859 -138.93240578 168.92023774 -138.984375 162.984375 C-138.99244675 162.0882399 -139.00051849 161.1921048 -139.00883484 160.26881409 C-139.02263559 158.36843775 -139.03337558 156.46803705 -139.04125977 154.56762695 C-139.05265524 152.66650883 -139.07290339 150.76541941 -139.1027832 148.86450195 C-139.36023525 132.4379109 -138.60009179 114.50300476 -131.74609375 99.23828125 C-130.75609375 98.74328125 -130.75609375 98.74328125 -129.74609375 98.23828125 C-129.08371836 96.36267447 -129.08371836 96.36267447 -128.55859375 94.05078125 C-125.03015252 81.75363953 -118.07128101 71.28677016 -110.86376953 60.88037109 C-109.38425172 58.70666275 -108.0114802 56.4697189 -106.62109375 54.23828125 C-104.10324831 50.44368133 -101.12400547 47.67498409 -97.62109375 44.7890625 C-95.56742806 43.14009497 -95.56742806 43.14009497 -93.18359375 40.67578125 C-87.89319161 35.38537911 -82.03207367 30.3133303 -75.74609375 26.23828125 C-75.08609375 26.23828125 -74.42609375 26.23828125 -73.74609375 26.23828125 C-73.25109375 24.75328125 -73.25109375 24.75328125 -72.74609375 23.23828125 C-71.08911996 22.54787551 -69.42051765 21.88521775 -67.74609375 21.23828125 C-66.96234375 20.59890625 -66.17859375 19.95953125 -65.37109375 19.30078125 C-62.36609078 16.93970748 -59.24459818 15.6741345 -55.74609375 14.23828125 C-55.0411377 13.93833252 -54.33618164 13.63838379 -53.60986328 13.3293457 C-36.24994988 5.95034851 -19.01617771 0.1603325 0 0 Z " fill="#E90002" transform="translate(138.74609375,0.76171875)"/>
<path d="M0 0 C15.59505139 10.5345667 24.57514175 30.71127853 28.875 48.5625 C29.07544922 47.99966309 29.27589844 47.43682617 29.48242188 46.85693359 C43.70204018 7.30156679 43.70204018 7.30156679 60.875 -1.4375 C66.42598793 -3.24898652 72.49269017 -3.36821632 77.875 -1 C91.07402984 6.56849132 97.84562299 20.82315643 102.875 34.5625 C103.53921397 36.16768377 104.20594027 37.77182995 104.875 39.375 C108.94456775 49.64481028 111.6024239 60.11770723 113.63037109 70.96386719 C113.998726 72.93069746 114.38020247 74.89505528 114.76171875 76.859375 C117.31112121 90.23372717 119.05382101 103.60682002 120 117.1875 C120.08491699 118.38084961 120.16983398 119.57419922 120.25732422 120.80371094 C120.96160294 131.41748882 121.02692501 141.92774962 120.875 152.5625 C113.285 152.5625 105.695 152.5625 97.875 152.5625 C97.82601562 150.67273438 97.77703125 148.78296875 97.7265625 146.8359375 C97.95450719 77.17347202 97.95450719 77.17347202 75.875 12.5625 C73.45524253 10.4068876 72.19334628 9.63170571 69 8.9375 C64.98432725 9.74063455 63.7345408 11.15838513 61.30859375 14.359375 C38.95704918 48.70888764 41.55810865 101.96575353 40.875 141.5625 C33.285 141.5625 25.695 141.5625 17.875 141.5625 C17.75382812 138.89285156 17.63265625 136.22320312 17.5078125 133.47265625 C17.38439765 70.94324993 17.38439765 70.94324993 -3.125 13.5625 C-5.85099608 11.08780668 -7.46450871 9.71708307 -11.0625 8.875 C-14.96658943 9.75142824 -16.30735954 11.09095789 -18.69140625 14.23046875 C-37.8497152 45.39534734 -37.0711182 92.0542578 -38.25 127.375 C-38.33666797 129.83270252 -38.42390431 132.29038506 -38.51171875 134.74804688 C-38.72371636 140.68597995 -38.92413424 146.62413895 -39.125 152.5625 C-46.715 152.5625 -54.305 152.5625 -62.125 152.5625 C-63.32964469 107.18755007 -60.8668718 46.33554717 -31.125 9.5625 C-30.61066406 8.89863281 -30.09632812 8.23476562 -29.56640625 7.55078125 C-22.0356389 -1.77954609 -11.11069867 -6.20690265 0 0 Z " fill="#FDC002" transform="translate(122.125,64.4375)"/>
<path d="M0 0 C0.33 0 0.66 0 1 0 C1.02749766 1.37488287 1.0466164 2.74993391 1.0625 4.125 C1.07410156 4.89070313 1.08570313 5.65640625 1.09765625 6.4453125 C1 9 1 9 0.49560547 11.53955078 C-0.14721382 16.02788605 -0.08464492 20.39541021 -0.02734375 24.921875 C-0.01470921 26.85286287 -0.0023474 28.78385254 0.00976562 30.71484375 C0.0346812 33.74566304 0.06278871 36.77638816 0.09594727 39.80712891 C0.12602226 42.74121729 0.14387409 45.67518238 0.16015625 48.609375 C0.17361588 49.52080261 0.1870755 50.43223022 0.20094299 51.37127686 C0.20432175 52.21265198 0.2077005 53.0540271 0.21118164 53.92089844 C0.21863907 54.66225037 0.2260965 55.40360229 0.23377991 56.16741943 C0 58 0 58 -2 60 C-3.70698403 56.58603194 -3.18504478 52.68314594 -3.203125 48.92578125 C-3.20882507 48.00975632 -3.21452515 47.09373138 -3.22039795 46.14994812 C-3.22986404 44.20048174 -3.23638829 42.25099924 -3.24023438 40.30151367 C-3.24981434 37.3693262 -3.28076766 34.43787838 -3.3125 31.50585938 C-3.37234304 20.60781578 -2.74342301 10.57955773 0 0 Z " fill="#D72424" transform="translate(3,115)"/>
<path d="M0 0 C3.3 0 6.6 0 10 0 C6.25712746 2.8071544 5.22092343 3.20144692 1 4 C0.67 4.66 0.34 5.32 0 6 C-1.84765625 6.6328125 -1.84765625 6.6328125 -4.0625 7.125 C-4.79597656 7.29257812 -5.52945313 7.46015625 -6.28515625 7.6328125 C-6.85105469 7.75398438 -7.41695312 7.87515625 -8 8 C-8 8.66 -8 9.32 -8 10 C-8.90492188 10.07347656 -8.90492188 10.07347656 -9.828125 10.1484375 C-10.62734375 10.22320312 -11.4265625 10.29796875 -12.25 10.375 C-13.03890625 10.44460938 -13.8278125 10.51421875 -14.640625 10.5859375 C-17.0897978 11.01575922 -18.8005791 11.88165039 -21 13 C-23.25 12.625 -23.25 12.625 -25 12 C-25 11.34 -25 10.68 -25 10 C-22.39461554 8.85056568 -20.06478687 8.01056807 -17.24609375 7.55078125 C-13.79807318 6.96573805 -10.54140982 6.11392427 -7.1875 5.125 C-6.04667969 4.79757812 -4.90585938 4.47015625 -3.73046875 4.1328125 C-2.82941406 3.75898438 -1.92835938 3.38515625 -1 3 C-0.67 2.01 -0.34 1.02 0 0 Z " fill="#DA2A2C" transform="translate(205,285)"/>
<path d="M0 0 C-1.14178525 3.42535575 -2.25763428 3.99811572 -5.21484375 5.84375 C-7.109088 7.07065656 -8.85001306 8.41919084 -10.625 9.8125 C-24.0693734 20 -24.0693734 20 -29 20 C-29 19.34 -29 18.68 -29 18 C-28.01 18 -27.02 18 -26 18 C-26 17.34 -26 16.68 -26 16 C-25.01 15.34 -24.02 14.68 -23 14 C-22.5875 13.484375 -22.175 12.96875 -21.75 12.4375 C-20 11 -20 11 -16.4375 10.5625 C-15.303125 10.376875 -14.16875 10.19125 -13 10 C-11.79996657 8.18398635 -11.79996657 8.18398635 -11 6 C-4.29411765 0 -4.29411765 0 0 0 Z " fill="#DB1D1F" transform="translate(248,263)"/>
<path d="M0 0 C0.33 0 0.66 0 1 0 C1.36308365 16.11687977 0.07827336 31.3666188 -4 47 C-6.02238113 40.93285661 -4.80308323 34.9798235 -3.5625 28.875 C-3.42779297 28.18535156 -3.29308594 27.49570313 -3.15429688 26.78515625 C-2.61331598 24.02483422 -2.06147118 21.27021705 -1.4375 18.52734375 C-0.81456599 14.92878743 -0.63611231 11.33089634 -0.4375 7.6875 C-0.37272461 6.57665039 -0.37272461 6.57665039 -0.30664062 5.44335938 C-0.20129568 3.62908536 -0.10021684 1.8145645 0 0 Z " fill="#DA1E1F" transform="translate(299,142)"/>
<path d="M0 0 C9.15627722 1.99049505 16.56860794 7.50723196 24 13 C23.01 13.33 22.02 13.66 21 14 C19.3515625 13.07421875 19.3515625 13.07421875 17.625 11.6875 C14.855467 9.57065949 12.33748551 8.11249517 9 7 C9 8.32 9 9.64 9 11 C8.01 10.67 7.02 10.34 6 10 C5.938125 9.05125 5.87625 8.1025 5.8125 7.125 C5.544375 6.09375 5.27625 5.0625 5 4 C2.53744315 2.54708727 2.53744315 2.54708727 0 2 C0 1.34 0 0.68 0 0 Z " fill="#E00708" transform="translate(213,15)"/>
<path d="M0 0 C4.60050332 7.94086877 5.4734783 19.00391224 5 28 C4.67 28 4.34 28 4 28 C2.68 22.06 1.36 16.12 0 10 C-0.99 10.66 -1.98 11.32 -3 12 C-2.67 10.68 -2.34 9.36 -2 8 C-1.34 8 -0.68 8 0 8 C-0.66 6.02 -1.32 4.04 -2 2 C-1.34 1.34 -0.68 0.68 0 0 Z " fill="#DC1719" transform="translate(294,111)"/>
<path d="M0 0 C0.66 0.33 1.32 0.66 2 1 C0.875 3.4375 0.875 3.4375 -1 6 C-2.99422795 6.36628677 -4.99453311 6.70131344 -7 7 C-8.09166275 8.93330603 -8.09166275 8.93330603 -9 11 C-11.625 12.25 -11.625 12.25 -14 13 C-14 13.66 -14 14.32 -14 15 C-15.65 15.33 -17.3 15.66 -19 16 C-15.62209703 12.5299724 -12.13504664 9.36300616 -8.375 6.3125 C-7.43398438 5.54550781 -6.49296875 4.77851563 -5.5234375 3.98828125 C-3 2 -3 2 0 0 Z " fill="#DA1D1F" transform="translate(63,27)"/>
<path d="M0 0 C3.79724588 2.84793441 6.76284676 5.87867847 9.75 9.5625 C10.52859375 10.51253906 11.3071875 11.46257813 12.109375 12.44140625 C14 15 14 15 15 18 C12.36697105 17.62547433 11.24125366 17.26899783 9.4375 15.2578125 C8.963125 14.55398437 8.48875 13.85015625 8 13.125 C6.40059831 10.76935947 5.17291947 9.12590305 2.859375 7.44140625 C1 6 1 6 0.25 2.8125 C0.12625 1.4203125 0.12625 1.4203125 0 0 Z " fill="#DA1113" transform="translate(257,46)"/>
<path d="M0 0 C0.33 0.66 0.66 1.32 1 2 C0.67 2.66 0.34 3.32 0 4 C0.66 4.33 1.32 4.66 2 5 C-0.38573379 6.89213369 -2.07175348 8.02391783 -5 9 C-6.33827304 10.66270287 -7.67189785 12.32916181 -9 14 C-9.66 14 -10.32 14 -11 14 C-9.05580907 7.99068257 -5.23064093 3.48709396 0 0 Z " fill="#DD1F20" transform="translate(43,44)"/>
<path d="M0 0 C6.72725176 4.48483451 9.20497953 14.66111944 12 22 C10.046875 21.2265625 10.046875 21.2265625 8 20 C7.25 16.375 7.25 16.375 7 13 C6.34 13 5.68 13 5 13 C3.9375 11.125 3.9375 11.125 3 9 C3.33 8.34 3.66 7.68 4 7 C3.34 7 2.68 7 2 7 C0 4 0 4 0 0 Z " fill="#D92123" transform="translate(277,72)"/>
<path d="M0 0 C1.5625 1.8125 1.5625 1.8125 3 4 C2.15250816 6.54247553 1.37334617 8.71108972 0 11 C-0.99 11.33 -1.98 11.66 -3 12 C-3 13.32 -3 14.64 -3 16 C-3.66 16 -4.32 16 -5 16 C-4.09276387 11.31261335 -3.0452733 6.65806256 -2 2 C-1.34 2 -0.68 2 0 2 C0 1.34 0 0.68 0 0 Z " fill="#DC1B1C" transform="translate(9,97)"/>
<path d="M0 0 C7.78961124 -0.46530864 14.52678392 0.84278299 22 3 C22 3.33 22 3.66 22 4 C5.30246726 4.27175008 5.30246726 4.27175008 0 0 Z " fill="#DB2223" transform="translate(163,1)"/>
<path d="M0 0 C0.66 0.99 1.32 1.98 2 3 C1.01 3.495 1.01 3.495 0 4 C-1.12541511 6.97139304 -2.11074159 9.95272385 -3.05664062 12.984375 C-3.62099425 14.68622643 -4.30394282 16.34763875 -5 18 C-5.99 18.33 -6.98 18.66 -8 19 C-6.00386732 12.2813095 -3.2708579 6.19265192 0 0 Z " fill="#D91316" transform="translate(18,77)"/>
<path d="M0 0 C-1.35561417 4.06684251 -3.40067414 4.75891031 -7 7 C-8.12773398 7.74588275 -9.25287864 8.49569989 -10.375 9.25 C-11.24125 9.8275 -12.1075 10.405 -13 11 C-12.7473068 7.58864174 -11.76495524 6.78062489 -9.1875 4.375 C-3.31578947 0 -3.31578947 0 0 0 Z " fill="#DB2729" transform="translate(248,263)"/>
<path d="M0 0 C3.3 0 6.6 0 10 0 C6.25712746 2.8071544 5.22092343 3.20144692 1 4 C0.67 4.66 0.34 5.32 0 6 C-3.0625 6.625 -3.0625 6.625 -6 7 C-6 6.34 -6 5.68 -6 5 C-4.02 4.01 -2.04 3.02 0 2 C0 1.34 0 0.68 0 0 Z " fill="#DB2021" transform="translate(205,285)"/>
<path d="M0 0 C0.66 0 1.32 0 2 0 C2 1.32 2 2.64 2 4 C2.66 4 3.32 4 4 4 C4.69670416 5.78810766 5.38211189 7.58062052 6.0625 9.375 C6.63677734 10.87160156 6.63677734 10.87160156 7.22265625 12.3984375 C8 15 8 15 7 17 C4.66911211 14.12145363 3.16775203 11.38015172 1.8125 7.9375 C1.46832031 7.08027344 1.12414062 6.22304687 0.76953125 5.33984375 C0 3 0 3 0 0 Z " fill="#D92528" transform="translate(11,207)"/>
<path d="M0 0 C0.66 0 1.32 0 2 0 C0.69045041 4.32151365 -1.59231987 7.06951346 -4.5625 10.3515625 C-6.19274687 12.14959934 -6.19274687 12.14959934 -8 15 C-7.67 13.02 -7.34 11.04 -7 9 C-6.34 9 -5.68 9 -5 9 C-4.731875 8.2575 -4.46375 7.515 -4.1875 6.75 C-3.04723249 4.10938051 -1.90619694 2.14447156 0 0 Z " fill="#DB2527" transform="translate(273,232)"/>
<path d="M0 0 C0.66 0 1.32 0 2 0 C1.51679152 6.2054142 0.66681876 11.99945246 -1 18 C-3.09107044 11.72678869 -1.7291857 6.16022407 0 0 Z " fill="#DB2B2D" transform="translate(296,171)"/>
<path d="M0 0 C0.66 0 1.32 0 2 0 C3.38529821 5.45461169 4.2396943 10.36718401 4 16 C2.02317658 13.03476487 1.24171007 10.84158175 0.3125 7.4375 C0.04050781 6.46683594 -0.23148437 5.49617187 -0.51171875 4.49609375 C-1 2 -1 2 0 0 Z " fill="#D81C1E" transform="translate(2,177)"/>
<path d="M0 0 C3.25724605 0.56159415 5.03790401 1.29043887 7 4 C7.35919321 5.99551782 7.69496569 7.99548879 8 10 C8.66 10.33 9.32 10.66 10 11 C9.01 11 8.02 11 7 11 C5.61328125 9.3203125 5.61328125 9.3203125 4.3125 7.125 C3.87550781 6.40570313 3.43851563 5.68640625 2.98828125 4.9453125 C2 3 2 3 2 1 C1.34 0.67 0.68 0.34 0 0 Z " fill="#DB2021" transform="translate(18,225)"/>
<path d="M0 0 C1.37701298 1.28817344 2.70644173 2.62804426 4 4 C5.31558703 5.02323436 6.64377755 6.03126968 8 7 C6.35 7 4.7 7 3 7 C3 6.34 3 5.68 3 5 C1.865625 4.71125 0.73125 4.4225 -0.4375 4.125 C-1.613125 3.75375 -2.78875 3.3825 -4 3 C-4.33 2.34 -4.66 1.68 -5 1 C-3 0 -3 0 0 0 Z " fill="#D9181A" transform="translate(81,280)"/>
<path d="M0 0 C5.36932824 -0.32541383 9.96088837 1.32029612 15 3 C15 3.66 15 4.32 15 5 C9.33895411 4.50341703 5.12325529 3.45489316 0 1 C0 0.67 0 0.34 0 0 Z " fill="#DB191C" transform="translate(93,289)"/>
<path d="M0 0 C3.1875 0.3125 3.1875 0.3125 5.5625 2.3125 C6.09875 2.9725 6.635 3.6325 7.1875 4.3125 C6.1975 4.6425 5.2075 4.9725 4.1875 5.3125 C4.1875 4.3225 4.1875 3.3325 4.1875 2.3125 C1.8775 2.9725 -0.4325 3.6325 -2.8125 4.3125 C-3.1425 3.3225 -3.4725 2.3325 -3.8125 1.3125 C-2.8125 0.3125 -2.8125 0.3125 0 0 Z " fill="#E01804" transform="translate(190.8125,72.6875)"/>
<path d="M0 0 C0.66 0 1.32 0 2 0 C1.35154312 3.50166718 0.06154347 6.09856846 -2 9 C-4.1875 10.3125 -4.1875 10.3125 -6 11 C-5.67 9.35 -5.34 7.7 -5 6 C-4.01 5.67 -3.02 5.34 -2 5 C-2 4.34 -2 3.68 -2 3 C-1.34 3 -0.68 3 0 3 C0 2.01 0 1.02 0 0 Z " fill="#DD2022" transform="translate(262,245)"/>
<path d="M0 0 C0.66 0 1.32 0 2 0 C0.68139111 4.61513112 -1.21355437 8.09897612 -4 12 C-4.66 11.34 -5.32 10.68 -6 10 C-5.05065487 8.32819726 -4.09026687 6.66266064 -3.125 5 C-2.59132813 4.071875 -2.05765625 3.14375 -1.5078125 2.1875 C-1.01023437 1.465625 -0.51265625 0.74375 0 0 Z " fill="#DA181A" transform="translate(280,220)"/>
<path d="M0 0 C0.33 0.66 0.66 1.32 1 2 C0.0625 4.125 0.0625 4.125 -1 6 C-1.99 6 -2.98 6 -4 6 C-4.33 6.66 -4.66 7.32 -5 8 C-6 5 -6 5 -5.0625 2.8125 C-4.5365625 1.9153125 -4.5365625 1.9153125 -4 1 C-4 1.66 -4 2.32 -4 3 C-2.68 2.01 -1.36 1.02 0 0 Z " fill="#DF0A0B" transform="translate(284,214)"/>
<path d="M0 0 C3.53790403 3.69172595 3.59115883 7.09390595 4 12 C3.34 12 2.68 12 2 12 C1.01 8.37 0.02 4.74 -1 1 C-0.67 0.67 -0.34 0.34 0 0 Z " fill="#D81618" transform="translate(290,99)"/>
<path d="M0 0 C3.96 1.32 7.92 2.64 12 4 C12 4.99 12 5.98 12 7 C11.67 6.34 11.34 5.68 11 5 C9.00718243 4.74286225 7.01170139 4.49163848 5.0078125 4.34375 C3 4 3 4 0 2 C0 1.34 0 0.68 0 0 Z " fill="#D82123" transform="translate(198,8)"/>
<path d="M0 0 C4.30764815 1.56641751 8.06171464 3.68336156 12 6 C12 6.66 12 7.32 12 8 C8 8 8 8 5.4375 5.6875 C4.633125 4.800625 3.82875 3.91375 3 3 C2.401875 2.401875 1.80375 1.80375 1.1875 1.1875 C0.795625 0.795625 0.40375 0.40375 0 0 Z " fill="#DA2527" transform="translate(64,273)"/>
<path d="M0 0 C1.18771723 3.42943519 0.80226223 5.37784675 -0.4375 8.75 C-0.86869141 9.94882813 -0.86869141 9.94882813 -1.30859375 11.171875 C-1.65083984 12.07679688 -1.65083984 12.07679688 -2 13 C-3.1577506 9.52674819 -3.06866652 6.63932552 -3 3 C-2.34 3 -1.68 3 -1 3 C-0.67 2.01 -0.34 1.02 0 0 Z " fill="#DC2123" transform="translate(293,189)"/>
<path d="M0 0 C1.98 0.66 3.96 1.32 6 2 C5.34 4.31 4.68 6.62 4 9 C2 8 2 8 1.3671875 6.15234375 C1.20476562 5.42144531 1.04234375 4.69054687 0.875 3.9375 C0.70742187 3.20402344 0.53984375 2.47054687 0.3671875 1.71484375 C0.24601563 1.14894531 0.12484375 0.58304687 0 0 Z " fill="#DC1A05" transform="translate(148,105)"/>
<path d="M0 0 C2.475 0.495 2.475 0.495 5 1 C5 1.66 5 2.32 5 3 C6.32 3.33 7.64 3.66 9 4 C8.67 4.99 8.34 5.98 8 7 C6.66382648 6.02471263 5.3311249 5.04466681 4 4.0625 C3.2575 3.51722656 2.515 2.97195313 1.75 2.41015625 C1.1725 1.94480469 0.595 1.47945313 0 1 C0 0.67 0 0.34 0 0 Z " fill="#DB1417" transform="translate(53,265)"/>
<path d="M0 0 C0.66 1.32 1.32 2.64 2 4 C0.71937515 5.7074998 -0.61767557 7.37373596 -2 9 C-2.66 9 -3.32 9 -4 9 C-2.94124926 5.59687262 -1.99097846 2.98646769 0 0 Z " fill="#E11B06" transform="translate(103,78)"/>
<path d="M0 0 C0.33 0.99 0.66 1.98 1 3 C-0.8125 5.6875 -0.8125 5.6875 -3 8 C-3.66 8 -4.32 8 -5 8 C-3.8141763 4.62496331 -2.72426311 2.35277269 0 0 Z " fill="#DA3536" transform="translate(37,50)"/>
<path d="M0 0 C0 3 0 3 -1.3125 4.38671875 C-2.875 5.59114583 -4.4375 6.79557292 -6 8 C-6.66 7.67 -7.32 7.34 -8 7 C-5.36 4.69 -2.72 2.38 0 0 Z " fill="#F9B80E" transform="translate(180,65)"/>
<path d="M0 0 C0.33 0 0.66 0 1 0 C0.67 2.64 0.34 5.28 0 8 C0.66 8 1.32 8 2 8 C1.67 8.99 1.34 9.98 1 11 C0.67 10.67 0.34 10.34 0 10 C-0.66 10.66 -1.32 11.32 -2 12 C-1 3.42857143 -1 3.42857143 0 0 Z " fill="#DD1D05" transform="translate(173,102)"/>
<path d="M0 0 C0.33 0.66 0.66 1.32 1 2 C0.0625 4.125 0.0625 4.125 -1 6 C-1.66 6 -2.32 6 -3 6 C-2.67 6.99 -2.34 7.98 -2 9 C-2.99 9.495 -2.99 9.495 -4 10 C-4.66 9.34 -5.32 8.68 -6 8 C-4.02 5.36 -2.04 2.72 0 0 Z " fill="#F8B60E" transform="translate(171,73)"/>
<path d="M0 0 C0.33 0.66 0.66 1.32 1 2 C-0.98 4.31 -2.96 6.62 -5 9 C-5.66 8.67 -6.32 8.34 -7 8 C-4.69 5.36 -2.38 2.72 0 0 Z " fill="#F9B00E" transform="translate(97,67)"/>
<path d="M0 0 C4.875 3.625 4.875 3.625 6 7 C4.35 6.67 2.7 6.34 1 6 C0.67 4.02 0.34 2.04 0 0 Z " fill="#DC1E20" transform="translate(257,46)"/>
<path d="M0 0 C3.81684226 1.55500981 6.19195732 4.03595495 9 7 C5.13066838 6.42676569 2.84777943 4.61046448 0 2 C0 1.34 0 0.68 0 0 Z " fill="#D92123" transform="translate(242,33)"/>
<path d="M0 0 C4.455 2.97 4.455 2.97 9 6 C8.01 6.33 7.02 6.66 6 7 C2.8125 5.25 2.8125 5.25 0 3 C0 2.01 0 1.02 0 0 Z " fill="#DC3436" transform="translate(228,22)"/>
<path d="M0 0 C7.09821429 1.74107143 7.09821429 1.74107143 10 5 C8.51793505 4.745504 7.03931385 4.47088238 5.5625 4.1875 C4.73878906 4.03667969 3.91507813 3.88585937 3.06640625 3.73046875 C2.38449219 3.48941406 1.70257813 3.24835937 1 3 C0.67 2.01 0.34 1.02 0 0 Z " fill="#DB1A1C" transform="translate(213,15)"/>
<path d="M0 0 C2.97 0.495 2.97 0.495 6 1 C5.01 1.33 4.02 1.66 3 2 C3 2.99 3 3.98 3 5 C1.68 5.33 0.36 5.66 -1 6 C-0.649375 5.38125 -0.29875 4.7625 0.0625 4.125 C0.371875 3.42375 0.68125 2.7225 1 2 C0.67 1.34 0.34 0.68 0 0 Z " fill="#E10D10" transform="translate(216,279)"/>
<path d="M0 0 C3.35620271 1.38877354 5.07298728 2.91677965 7 6 C7 6.66 7 7.32 7 8 C6.34 8 5.68 8 5 8 C0 2.52380952 0 2.52380952 0 0 Z " fill="#D71417" transform="translate(33,244)"/>
<path d="M0 0 C0.33 0 0.66 0 1 0 C1.33 3.63 1.66 7.26 2 11 C1.01 11.33 0.02 11.66 -1 12 C-0.67 8.04 -0.34 4.08 0 0 Z " fill="#E01D05" transform="translate(89,122)"/>
<path d="M0 0 C0.33 0.66 0.66 1.32 1 2 C0.06553465 4.03144641 -0.93224776 6.03533587 -2 8 C-2.99 7.67 -3.98 7.34 -5 7 C-3.35 4.69 -1.7 2.38 0 0 Z " fill="#DB2223" transform="translate(30,59)"/>
<path d="M0 0 C3 1 3 1 3 1 Z " fill="#D35B5B" transform="translate(176,1)"/>
<path d="" fill="#D35B5B" transform="translate(0,0)"/>
<path d="" fill="#D35B5B" transform="translate(0,0)"/>
<path d="" fill="#D35B5B" transform="translate(0,0)"/>
<path d="" fill="#D35B5B" transform="translate(0,0)"/>
<path d="" fill="#D35B5B" transform="translate(0,0)"/>
<path d="" fill="#D35B5B" transform="translate(0,0)"/>
<path d="M0 0 C2 1 2 1 2 1 Z " fill="#D35B5B" transform="translate(196,6)"/>
<path d="M0 0 C2 1 2 1 2 1 Z " fill="#D35B5B" transform="translate(112,3)"/>
<path d="M0 0 C2 1 2 1 2 1 Z " fill="#D35B5B" transform="translate(116,2)"/>
<path d="" fill="#D35B5B" transform="translate(0,0)"/>
<path d="" fill="#D35B5B" transform="translate(0,0)"/>
<path d="" fill="#D35B5B" transform="translate(0,0)"/>
<path d="" fill="#D35B5B" transform="translate(0,0)"/>
<path d="" fill="#D35B5B" transform="translate(0,0)"/>
<path d="" fill="#D35B5B" transform="translate(0,0)"/>
<path d="" fill="#D35B5B" transform="translate(0,0)"/>
<path d="" fill="#D35B5B" transform="translate(0,0)"/>
<path d="" fill="#D35B5B" transform="translate(0,0)"/>
<path d="" fill="#D35B5B" transform="translate(0,0)"/>
<path d="" fill="#D35B5B" transform="translate(0,0)"/>
<path d="" fill="#D35B5B" transform="translate(0,0)"/>
<path d="" fill="#D35B5B" transform="translate(0,0)"/>
<path d="" fill="#D35B5B" transform="translate(0,0)"/>
<path d="" fill="#D35B5B" transform="translate(0,0)"/>
<path d="" fill="#D35B5B" transform="translate(0,0)"/>
<path d="" fill="#D35B5B" transform="translate(0,0)"/>
<path d="" fill="#D35B5B" transform="translate(0,0)"/>
<path d="" fill="#D35B5B" transform="translate(0,0)"/>
<path d="" fill="#D35B5B" transform="translate(0,0)"/>
<path d="" fill="#D35B5B" transform="translate(0,0)"/>
<path d="" fill="#D35B5B" transform="translate(0,0)"/>
<path d="" fill="#D35B5B" transform="translate(0,0)"/>
<path d="" fill="#D35B5B" transform="translate(0,0)"/>
<path d="" fill="#D35B5B" transform="translate(0,0)"/>
<path d="" fill="#D35B5B" transform="translate(0,0)"/>
<path d="" fill="#D35B5B" transform="translate(0,0)"/>
<path d="" fill="#D35B5B" transform="translate(0,0)"/>
<path d="" fill="#D35B5B" transform="translate(0,0)"/>
<path d="" fill="#D35B5B" transform="translate(0,0)"/>
<path d="" fill="#D35B5B" transform="translate(0,0)"/>
<path d="" fill="#D35B5B" transform="translate(0,0)"/>
<path d="" fill="#D35B5B" transform="translate(0,0)"/>
<path d="" fill="#D35B5B" transform="translate(0,0)"/>
<path d="" fill="#D35B5B" transform="translate(0,0)"/>
<path d="" fill="#D35B5B" transform="translate(0,0)"/>
<path d="" fill="#D35B5B" transform="translate(0,0)"/>
<path d="" fill="#D35B5B" transform="translate(0,0)"/>
<path d="" fill="#D35B5B" transform="translate(0,0)"/>
<path d="" fill="#D35B5B" transform="translate(0,0)"/>
<path d="" fill="#D35B5B" transform="translate(0,0)"/>
<path d="" fill="#D35B5B" transform="translate(0,0)"/>
<path d="" fill="#D35B5B" transform="translate(0,0)"/>
<path d="" fill="#D35B5B" transform="translate(0,0)"/>
<path d="" fill="#D35B5B" transform="translate(0,0)"/>
<path d="" fill="#D35B5B" transform="translate(0,0)"/>
<path d="" fill="#D35B5B" transform="translate(0,0)"/>
<path d="" fill="#D35B5B" transform="translate(0,0)"/>
<path d="" fill="#D35B5B" transform="translate(0,0)"/>
<path d="" fill="#D35B5B" transform="translate(0,0)"/>
<path d="" fill="#D35B5B" transform="translate(0,0)"/>
<path d="" fill="#D35B5B" transform="translate(0,0)"/>
<path d="" fill="#D35B5B" transform="translate(0,0)"/>
<path d="" fill="#D35B5B" transform="translate(0,0)"/>
<path d="" fill="#D35B5B" transform="translate(0,0)"/>
<path d="" fill="#D35B5B" transform="translate(0,0)"/>
<path d="" fill="#D35B5B" transform="translate(0,0)"/>
<path d="" fill="#D35B5B" transform="translate(0,0)"/>
<path d="" fill="#D35B5B" transform="translate(0,0)"/>
<path d="" fill="#D35B5B" transform="translate(0,0)"/>
<path d="" fill="#D35B5B" transform="translate(0,0)"/>
<path d="" fill="#D35B5B" transform="translate(0,0)"/>
<path d="" fill="#D35B5B" transform="translate(0,0)"/>
<path d="" fill="#D35B5B" transform="translate(0,0)"/>
<path d="" fill="#D35B5B" transform="translate(0,0)"/>
<path d="" fill="#D35B5B" transform="translate(0,0)"/>
<path d="" fill="#D35B5B" transform="translate(0,0)"/>
<path d="" fill="#D35B5B" transform="translate(0,0)"/>
<path d="" fill="#D35B5B" transform="translate(0,0)"/>
<path d="" fill="#D35B5B" transform="translate(0,0)"/>
<path d="" fill="#D35B5B" transform="translate(0,0)"/>
<path d="" fill="#D35B5B" transform="translate(0,0)"/>
<path d="" fill="#D35B5B" transform="translate(0,0)"/>
</svg>
