<?xml version="1.0" encoding="UTF-8"?>
<svg version="1.1" xmlns="http://www.w3.org/2000/svg" width="400" height="400">
<path d="M0 0 C9.24 0 18.48 0 28 0 C25.125 8.0625 25.125 8.0625 24.23095703 10.55883789 C22.65450461 15.00345444 21.24446328 19.45106382 20 24 C23.22982926 21.01861915 24.98064013 19.2230623 26 15 C26.57409103 14.76762131 27.14818207 14.53524261 27.7396698 14.29582214 C30.43216025 12.75224734 31.61555766 10.79962583 33.32696056 8.26430798 C36.48082393 3.79003896 39.4610512 -0.04202531 45.03427124 -1.15420532 C49.81127803 -1.66367688 54.56511336 -1.46578459 59.35546875 -1.26953125 C61.1108769 -1.24523845 62.86637411 -1.22675523 64.62190247 -1.21379089 C69.20937971 -1.164504 73.79137598 -1.03715767 78.37670898 -0.89263916 C83.06874439 -0.75886337 87.76167929 -0.70011458 92.45507812 -0.63476562 C101.6391076 -0.49597068 110.81909554 -0.27456364 120 0 C119.20478484 4.24341695 117.97298275 8.12395167 116.5 12.1875 C116.0565625 13.41855469 115.613125 14.64960937 115.15625 15.91796875 C114 19 114 19 113 21 C104.42 21 95.84 21 87 21 C85.515 24.8671875 85.515 24.8671875 84 28.8125 C83.53013672 30.02450073 83.53013672 30.02450073 83.05078125 31.26098633 C82.80714844 31.90318115 82.56351562 32.54537598 82.3125 33.20703125 C82.06113281 33.8616333 81.80976563 34.51623535 81.55078125 35.19067383 C80.85439094 37.16311143 80.85439094 37.16311143 81 40 C88.59 40.33 96.18 40.66 104 41 C100.5625 50.8125 100.5625 50.8125 99.48266602 53.89379883 C99.20092529 54.69841553 98.91918457 55.50303223 98.62890625 56.33203125 C98.1968689 57.56530151 98.1968689 57.56530151 97.75610352 58.82348633 C97.15817501 60.54467864 96.57619628 62.27141117 96 64 C87.75 64 79.5 64 71 64 C70.01 66.536875 69.02 69.07375 68 71.6875 C67.53013672 72.87218872 67.53013672 72.87218872 67.05078125 74.08081055 C66.80714844 74.71801025 66.56351562 75.35520996 66.3125 76.01171875 C66.06113281 76.65584717 65.80976563 77.29997559 65.55078125 77.96362305 C64.78242521 80.45283751 64.78242521 80.45283751 65 85 C73.58 85 82.16 85 91 85 C91.33 86.98 91.66 88.96 92 91 C95.63 91 99.26 91 103 91 C103 90.34 103 89.68 103 89 C103.928125 89.061875 104.85625 89.12375 105.8125 89.1875 C111.08376961 89.2200387 115.99975875 87.51906063 121 86 C121 85.34 121 84.68 121 84 C122.6396875 84.0928125 122.6396875 84.0928125 124.3125 84.1875 C129.79640423 84.21703629 134.80042462 82.60575122 140 81 C140 80.34 140 79.68 140 79 C141.60875 78.7834375 141.60875 78.7834375 143.25 78.5625 C145.92861978 78.16070703 148.40389949 77.71616566 151 77 C154.00253538 76.2036754 156.9996491 75.63923417 160.0625 75.125 C165.81563416 74.10153139 171.3913553 72.62726635 177 71 C177 70.34 177 69.68 177 69 C184 68 184 68 187.4375 67.5625 C191.38323422 66.93948933 195.13832487 66.0162303 199 65 C199 64.34 199 63.68 199 63 C200.98 63 202.96 63 205 63 C204.66215151 66.12509851 204.4813882 67.5807264 202.0625 69.6875 C201.381875 70.120625 200.70125 70.55375 200 71 C199.34 71.66 198.68 72.32 198 73 C195.375 73.125 195.375 73.125 193 73 C193 73.66 193 74.32 193 75 C191.88625 75.309375 190.7725 75.61875 189.625 75.9375 C186.2054845 76.82326483 186.2054845 76.82326483 184 78 C182.515 78.495 182.515 78.495 181 79 C178.96631614 79.92805139 178.96631614 79.92805139 177.30859375 81.36328125 C174.38126913 83.43866029 171.35501005 84.76437666 168.0625 86.1875 C166.25458984 86.98220703 166.25458984 86.98220703 164.41015625 87.79296875 C161.29252376 88.89646066 159.25469783 89.27791537 156 89 C156 89.66 156 90.32 156 91 C152.535 91.495 152.535 91.495 149 92 C149 92.66 149 93.32 149 94 C145.86501708 95.85776765 143.62528568 96.20140476 140 96 C140 96.66 140 97.32 140 98 C130.58997722 102.59225513 130.58997722 102.59225513 126 102 C126 102.66 126 103.32 126 104 C124.27656245 104.84511824 122.54595947 105.67563354 120.8125 106.5 C119.84957031 106.9640625 118.88664062 107.428125 117.89453125 107.90625 C115.01077307 108.99592921 113.04645139 109.22277524 110 109 C110 109.66 110 110.32 110 111 C100.58997722 115.59225513 100.58997722 115.59225513 96 115 C96 115.66 96 116.32 96 117 C93.03 117.66 90.06 118.32 87 119 C87 119.66 87 120.32 87 121 C83.535 121.495 83.535 121.495 80 122 C80 122.66 80 123.32 80 124 C76.535 124.495 76.535 124.495 73 125 C73 125.66 73 126.32 73 127 C70.03 127.66 67.06 128.32 64 129 C64 129.66 64 130.32 64 131 C62.35 131 60.7 131 59 131 C59 131.66 59 132.32 59 133 C55.86501708 134.85776765 53.62528568 135.20140476 50 135 C50 135.66 50 136.32 50 137 C47.69 137.33 45.38 137.66 43 138 C43 138.66 43 139.32 43 140 C40.69 140.33 38.38 140.66 36 141 C36 141.66 36 142.32 36 143 C26.58997722 147.59225513 26.58997722 147.59225513 22 147 C22 147.66 22 148.32 22 149 C17.5394603 151.00566165 13.07372119 152.999071 8.6027832 154.98144531 C7.08339776 155.65715964 5.5654721 156.33616658 4.04907227 157.01855469 C1.86592387 158.00029169 -0.32224466 158.9699679 -2.51171875 159.9375 C-3.18587326 160.24373291 -3.86002777 160.54996582 -4.55461121 160.86547852 C-8.17445579 162.45009461 -11.03568273 163.37342602 -15 163 C-15 163.66 -15 164.32 -15 165 C-17.31 165.33 -19.62 165.66 -22 166 C-22 166.66 -22 167.32 -22 168 C-24.31 168.33 -26.62 168.66 -29 169 C-29 169.66 -29 170.32 -29 171 C-30.11375 171.309375 -31.2275 171.61875 -32.375 171.9375 C-36.69020806 173.19866113 -36.69020806 173.19866113 -40 176 C-42.625 176.125 -42.625 176.125 -45 176 C-45 176.66 -45 177.32 -45 178 C-47.31 178.33 -49.62 178.66 -52 179 C-52 179.66 -52 180.32 -52 181 C-54.31 181.33 -56.62 181.66 -59 182 C-59 182.66 -59 183.32 -59 184 C-61.31 184.33 -63.62 184.66 -66 185 C-66 185.66 -66 186.32 -66 187 C-67.65 187 -69.3 187 -71 187 C-71 187.66 -71 188.32 -71 189 C-75.455 189.99 -75.455 189.99 -80 191 C-80 191.66 -80 192.32 -80 193 C-81.65 193 -83.3 193 -85 193 C-85 193.66 -85 194.32 -85 195 C-87.31 195.33 -89.62 195.66 -92 196 C-92 196.66 -92 197.32 -92 198 C-93.8253125 198.185625 -93.8253125 198.185625 -95.6875 198.375 C-99.06479059 198.78891306 -101.89756695 199.54573451 -105 201 C-105 201.66 -105 202.32 -105 203 C-106.175625 203.12375 -107.35125 203.2475 -108.5625 203.375 C-112.54120426 203.86435935 -116.17766559 204.8055205 -120 206 C-120 206.66 -120 207.32 -120 208 C-121.92057292 207.96744792 -123.84114583 207.93489583 -125.76171875 207.90234375 C-128.02549525 207.93885729 -128.02549525 207.93885729 -130.29394531 208.49121094 C-141.93939345 210.68077372 -156.71085792 210.7868829 -167.66796875 205.97265625 C-170.06156689 204.86653466 -170.06156689 204.86653466 -173.06640625 204.515625 C-175.96744281 204.00572243 -177.41939497 203.41407208 -179.75 201.6875 C-180.60851562 201.07455078 -180.60851562 201.07455078 -181.484375 200.44921875 C-183.22969666 198.78036737 -183.95736602 197.16450815 -185 195 C-185.9294393 193.93247257 -186.88956715 192.89106807 -187.875 191.875 C-195.78663801 182.58658184 -196.04175084 172.23541633 -195.25732422 160.51464844 C-192.48113068 133.38486336 -173.53363923 107.53558559 -157.16748047 86.8515625 C-156.51021973 86.01496094 -155.85295898 85.17835938 -155.17578125 84.31640625 C-154.58708252 83.57849854 -153.99838379 82.84059082 -153.3918457 82.08032227 C-151.99659119 79.99490502 -151.5624447 78.40818159 -151 76 C-149.6846659 75.29848848 -148.34882408 74.63474075 -147 74 C-145.26574227 71.96682993 -145.26574227 71.96682993 -144 70 C-144 73.5560884 -144.20320945 74.99259975 -145.4609375 78.125 C-145.76700928 78.90834717 -146.07308105 79.69169434 -146.38842773 80.4987793 C-146.71399658 81.32418213 -147.03956543 82.14958496 -147.375 83 C-152.7228413 97.03325743 -155.61840456 111.26857819 -149.9296875 125.71875 C-146.62247009 132.79078722 -143.29816437 136.17075566 -136 139 C-134.31214913 139.66577785 -132.62464772 140.33244232 -130.9375 141 C-130.10089844 141.33 -129.26429688 141.66 -128.40234375 142 C-126.21158764 142.91192449 -124.10680717 143.91010437 -122 145 C-122 145.33 -122 145.66 -122 146 C-105.25513882 146.54635053 -105.25513882 146.54635053 -89 143 C-89 142.34 -89 141.68 -89 141 C-88.04996094 141.0515625 -87.09992188 141.103125 -86.12109375 141.15625 C-81.2234994 141.15625 -76.74677245 139.81800822 -72.0625 138.5 C-71.18787109 138.26152344 -70.31324219 138.02304688 -69.41210938 137.77734375 C-67.27244561 137.19273616 -65.13534428 136.60015656 -63 136 C-63 135.34 -63 134.68 -63 134 C-61.39125 133.7834375 -61.39125 133.7834375 -59.75 133.5625 C-57.07138022 133.16070703 -54.59610051 132.71616566 -52 132 C-48.37437934 130.99982878 -44.72498181 130.50143986 -41 130 C-41 129.34 -41 128.68 -41 128 C-39.9275 128.04125 -38.855 128.0825 -37.75 128.125 C-34.2176046 128.00725349 -32.91989975 127.71166537 -30 126 C-27.0138414 125.14959396 -23.9970302 124.63867665 -20.9375 124.125 C-15.18436584 123.10153139 -9.6086447 121.62726635 -4 120 C-4 119.34 -4 118.68 -4 118 C-2.9275 118.04125 -1.855 118.0825 -0.75 118.125 C2.7823954 118.00725349 4.08010025 117.71166537 7 116 C10.58332121 114.8879348 14.28993917 114.49943127 18 114 C18 113.34 18 112.68 18 112 C11.565 111.505 11.565 111.505 5 111 C5 110.67 5 110.34 5 110 C14.24 110 23.48 110 33 110 C23.43 109.67 13.86 109.34 4 109 C3.5625 96.75 3.5625 96.75 3.43188477 92.96777344 C3.15899359 85.62221211 2.68000895 78.31906561 2 71 C1.58113525 72.11560303 1.16227051 73.23120605 0.73071289 74.38061523 C-0.81895862 78.50583444 -2.37218724 82.62970652 -3.92651367 86.75317383 C-4.59969172 88.54056639 -5.2718948 90.32832645 -5.94311523 92.11645508 C-6.90614949 94.68146662 -7.87264263 97.24515102 -8.83984375 99.80859375 C-9.14091537 100.6127623 -9.441987 101.41693085 -9.75218201 102.24546814 C-11.88612829 107.88612829 -11.88612829 107.88612829 -13 109 C-14.99782126 109.15825258 -17.00088834 109.25119171 -19.00390625 109.31640625 C-20.21884766 109.35830078 -21.43378906 109.40019531 -22.68554688 109.44335938 C-23.96494141 109.48267578 -25.24433594 109.52199219 -26.5625 109.5625 C-27.84576172 109.60568359 -29.12902344 109.64886719 -30.45117188 109.69335938 C-33.63399853 109.799848 -36.81690674 109.90185962 -40 110 C-38.05590373 103.26577343 -35.87180062 96.66948922 -33.4375 90.09765625 C-33.09335052 89.16142426 -32.74920105 88.22519226 -32.3946228 87.2605896 C-31.26611845 84.19343145 -30.13317594 81.12793496 -29 78.0625 C-28.2089896 75.91615506 -27.41813951 73.76975103 -26.62744141 71.62329102 C-17.8163101 47.72487312 -8.91203339 23.86093197 0 0 Z M64 6 C65 8 65 8 65 8 Z M63 8 C61.84501103 9.07356677 60.70132133 10.15929788 59.5625 11.25 C58.92441406 11.85328125 58.28632813 12.4565625 57.62890625 13.078125 C55.896018 15.12268379 55.54568334 16.43142994 55 19 C53.66666667 19.66666667 52.33333333 20.33333333 51 21 C48.28618169 23.96626652 46.27646895 26.17059315 45 30 C43.67942461 30.69159444 42.34372395 31.3545326 41 32 C38.95448504 33.7672337 38.95448504 33.7672337 37 35.8125 C36.34 36.47894531 35.68 37.14539063 35 37.83203125 C34.34 38.54746094 33.68 39.26289063 33 40 C32.30302002 40.66692871 31.60604004 41.33385742 30.88793945 42.02099609 C28.1691126 46.3110679 28.57843342 49.86633791 28.79296875 54.83203125 C28.81845291 55.7826091 28.84393707 56.73318695 28.87019348 57.71257019 C28.95671392 60.74682021 29.07217816 63.77922273 29.1875 66.8125 C29.24724557 68.8417446 29.30520732 70.87104255 29.36132812 72.90039062 C29.60557168 80.99449685 29.87405536 88.9737815 31 97 C33.09890034 93.85164949 34.22409495 90.98755867 35.53442383 87.43994141 C35.78027725 86.77763519 36.02613068 86.11532898 36.2794342 85.43295288 C37.09228618 83.24048917 37.89963127 81.04603918 38.70703125 78.8515625 C39.27475765 77.31744156 39.84285326 75.7834572 40.41130066 74.24960327 C41.91041915 70.20178671 43.40499957 66.15230979 44.89849854 62.10241699 C46.98901659 56.43603116 49.08557093 50.77187564 51.18156433 45.10751343 C52.29623847 42.09511081 53.40919783 39.08208402 54.52070618 36.06851196 C54.78065211 35.36484686 55.04059805 34.66118176 55.30842113 33.93619347 C55.81407523 32.56700389 56.31876306 31.197457 56.82240009 29.82752419 C58.01499198 26.59733708 59.236456 23.38434243 60.5262146 20.19158936 C60.99411407 19.02541077 61.46201355 17.85923218 61.9440918 16.65771484 C62.36466354 15.63463226 62.78523529 14.61154968 63.21855164 13.5574646 C64.29495498 10.91878492 64.29495498 10.91878492 63 8 Z M18 25 C18.33 25.66 18.66 26.32 19 27 C19.33 26.34 19.66 25.68 20 25 C19.34 25 18.68 25 18 25 Z M17 27 C18 29 18 29 18 29 Z M63 83 C64 85 64 85 64 85 Z M90 91 C91 93 91 93 91 93 Z M25 111 C29 112 29 112 29 112 Z " fill="#010101" transform="translate(195,96)"/>
<path d="M0 0 C9.57 0 19.14 0 29 0 C28.34 13.53 27.68 27.06 27 41 C28.07121094 38.12410156 29.14242187 35.24820313 30.24609375 32.28515625 C31.28132537 29.51155412 32.31749602 26.73830454 33.35375977 23.96508789 C34.07544762 22.03218704 34.79615313 20.09891913 35.51586914 18.1652832 C36.54838359 15.39177744 37.584382 12.61959537 38.62109375 9.84765625 C38.94403915 8.97786636 39.26698456 8.10807648 39.59971619 7.21192932 C39.89995193 6.41117477 40.20018768 5.61042023 40.50952148 4.78540039 C40.77377426 4.0770253 41.03802704 3.36865021 41.31028748 2.6388092 C42 1 42 1 43 0 C44.92667507 -0.08748207 46.85651861 -0.10697334 48.78515625 -0.09765625 C49.95498047 -0.09443359 51.12480469 -0.09121094 52.33007812 -0.08789062 C53.56177734 -0.07951172 54.79347656 -0.07113281 56.0625 -0.0625 C57.91584961 -0.05573242 57.91584961 -0.05573242 59.80664062 -0.04882812 C62.87114117 -0.03699608 65.93554721 -0.02051173 69 0 C67.48419929 8.34603523 64.464446 16.01308068 61.375 23.875 C60.60042371 25.85094025 59.82784929 27.82755101 59.06143188 29.80667114 C58.37204461 31.58646939 57.67523857 33.36338881 56.97802734 35.14013672 C55.83820754 37.96935372 55.83820754 37.96935372 56 41 C55.34 41 54.68 41 54 41 C53.82499466 41.6083519 53.64998932 42.2167038 53.46968079 42.8434906 C51.68754752 48.92473733 49.65686574 54.85851297 47.41796875 60.78515625 C47.08130692 61.68511826 46.74464508 62.58508026 46.39778137 63.51231384 C45.33073935 66.36353092 44.2594403 69.21312127 43.1875 72.0625 C41.7830669 75.80260494 40.3807209 79.54348401 38.98046875 83.28515625 C38.64199921 84.18932281 38.30352966 85.09348938 37.95480347 86.02505493 C34.86257026 94.3137303 31.91535922 102.64751872 29 111 C19.76 111 10.52 111 1 111 C-0.2308133 108.53837341 -0.04639013 107.11362314 0.0859375 104.37109375 C0.12976563 103.41654297 0.17359375 102.46199219 0.21875 101.47851562 C0.2703125 100.47498047 0.321875 99.47144531 0.375 98.4375 C0.41882813 97.49197266 0.46265625 96.54644531 0.5078125 95.57226562 C0.93010479 86.70999272 1.47896099 77.85766311 2 69 C-5.425 88.8 -5.425 88.8 -13 109 C-26.365 109.495 -26.365 109.495 -40 110 C-39.22115246 105.32691478 -38.33136701 101.7917243 -36.70605469 97.43261719 C-36.47319763 96.80360504 -36.24034058 96.1745929 -36.00042725 95.52651978 C-35.22944033 93.44799696 -34.45075449 91.37245182 -33.671875 89.296875 C-33.12109224 87.81764411 -32.57074732 86.33825013 -32.02081299 84.85870361 C-30.86056814 81.74050946 -29.69682975 78.62365086 -28.53027344 75.5078125 C-27.07711189 71.62643032 -25.62958979 67.74298168 -24.18445587 63.85860443 C-16.24662275 42.52487052 -8.16131978 21.24914579 0 0 Z " fill="#020202" transform="translate(94,96)"/>
<path d="M0 0 C8.91 0 17.82 0 27 0 C26.22029401 4.67823593 25.3403951 8.15868582 23.69018555 12.50732422 C23.33849052 13.44103096 23.33849052 13.44103096 22.97969055 14.39360046 C22.2039049 16.44930763 21.42032877 18.50195155 20.63671875 20.5546875 C20.08347216 22.01626096 19.5307329 23.47802654 18.97846985 24.93997192 C17.51656032 28.8060114 16.0481217 32.66953802 14.57818604 36.53253174 C13.13120539 40.33803233 11.68970354 44.14560502 10.24804688 47.953125 C8.53772791 52.4690805 6.82715865 56.98493999 5.11495972 61.50018311 C1.40218901 71.29158825 -2.30676332 81.08442035 -5.99400902 90.88547134 C-6.52177026 92.28740609 -7.05030118 93.68905135 -7.57964516 95.09038925 C-8.30807211 97.01926501 -9.03368206 98.94917709 -9.75854492 100.87939453 C-10.16892502 101.96914581 -10.57930511 103.05889709 -11.00212097 104.18167114 C-12.10850311 107.16436121 -12.10850311 107.16436121 -13 111 C-21.58 111 -30.16 111 -39 111 C-40.15379436 106.38482255 -39.61085179 105.15705002 -37.94897461 100.81494141 C-37.71777231 100.20173444 -37.48657001 99.58852747 -37.24836159 98.95673847 C-36.47662853 96.91760837 -35.68949946 94.88478349 -34.90234375 92.8515625 C-34.35445964 91.41245561 -33.80759908 89.97295868 -33.26170349 88.53309631 C-32.10057621 85.47638944 -30.93285726 82.42232034 -29.75970459 79.37020874 C-27.94006629 74.63598438 -26.13467086 69.8964219 -24.33251953 65.15551758 C-23.73440186 63.58246354 -23.1362574 62.00941969 -22.53808594 60.43638611 C-22.24346466 59.66159346 -21.94884338 58.8868008 -21.64529419 58.08852959 C-20.75489637 55.74869565 -19.86302679 53.40942786 -18.97070312 51.07032776 C-14.35700194 38.97257778 -9.82730319 26.84564698 -5.375 14.6875 C-4.80331579 13.1290647 -4.2316203 11.57063353 -3.65991211 10.01220703 C-2.43652312 6.67603629 -1.21826948 3.33805838 0 0 Z M-39 109 C-39 109.33 -39 109.66 -39 110 C-30.75 110 -22.5 110 -14 110 C-14 109.67 -14 109.34 -14 109 C-22.25 109 -30.5 109 -39 109 Z " fill="#010101" transform="translate(165,96)"/>
<path d="M0 0 C0.33 0 0.66 0 1 0 C1 10.23 1 20.46 1 31 C0.67 31 0.34 31 0 31 C0 20.77 0 10.54 0 0 Z " fill="#080808" transform="translate(226,152)"/>
<path d="M0 0 C8.58 0 17.16 0 26 0 C26 0.33 26 0.66 26 1 C17.42 1 8.84 1 0 1 C0 0.67 0 0.34 0 0 Z " fill="#020202" transform="translate(156,206)"/>
<path d="M0 0 C8.58 0 17.16 0 26 0 C26 0.33 26 0.66 26 1 C17.42 1 8.84 1 0 1 C0 0.67 0 0.34 0 0 Z " fill="#030303" transform="translate(55,206)"/>
<path d="M0 0 C0.33 0 0.66 0 1 0 C1 8.25 1 16.5 1 25 C0.67 25 0.34 25 0 25 C0 16.75 0 8.5 0 0 Z " fill="#030303" transform="translate(197,180)"/>
<path d="M0 0 C7.26 0.33 14.52 0.66 22 1 C22 1.33 22 1.66 22 2 C14.74 2 7.48 2 0 2 C0 1.34 0 0.68 0 0 Z " fill="#000000" transform="translate(276,134)"/>
<path d="M0 0 C0.66 0.33 1.32 0.66 2 1 C1.4375 3.875 1.4375 3.875 0 7 C-3.625 8.375 -3.625 8.375 -7 9 C-6.67 8.01 -6.34 7.02 -6 6 C-5.360625 5.690625 -4.72125 5.38125 -4.0625 5.0625 C-1.54531085 3.7657662 -1.03113052 2.5778263 0 0 Z " fill="#2A2A2A" transform="translate(50,166)"/>
<path d="M0 0 C6.6 0 13.2 0 20 0 C20 0.33 20 0.66 20 1 C13.4 1 6.8 1 0 1 C0 0.67 0 0.34 0 0 Z " fill="#0A0A0A" transform="translate(73,241)"/>
<path d="M0 0 C0.33 0.99 0.66 1.98 1 3 C0.34 3.66 -0.32 4.32 -1 5 C-1.66 5 -2.32 5 -3 5 C-4.36161311 5.96113866 -5.69855198 6.95884159 -7 8 C-5.50902342 4.2047869 -3.24299151 2.38957269 0 0 Z " fill="#101010" transform="translate(48,172)"/>
<path d="M0 0 C0.33 0 0.66 0 1 0 C1.22142255 1.95689659 1.4267568 3.91561952 1.625 5.875 C1.74101563 6.96554688 1.85703125 8.05609375 1.9765625 9.1796875 C1.98429687 10.11039063 1.99203125 11.04109375 2 12 C1.34 12.66 0.68 13.32 0 14 C0 9.38 0 4.76 0 0 Z " fill="#070707" transform="translate(122,117)"/>
<path d="M0 0 C0.33 0 0.66 0 1 0 C1 4.95 1 9.9 1 15 C0.67 15 0.34 15 0 15 C0 10.05 0 5.1 0 0 Z " fill="#080808" transform="translate(93,182)"/>
<path d="M0 0 C0.33 0 0.66 0 1 0 C1 4.95 1 9.9 1 15 C0.67 15 0.34 15 0 15 C0 10.05 0 5.1 0 0 Z " fill="#080808" transform="translate(123,102)"/>
<path d="M0 0 C0.33 0 0.66 0 1 0 C1 3.63 1 7.26 1 11 C0.67 11 0.34 11 0 11 C-1.125 3.375 -1.125 3.375 0 0 Z " fill="#111111" transform="translate(196,169)"/>
<path d="M0 0 C0.33 0 0.66 0 1 0 C1 3.63 1 7.26 1 11 C0.67 11 0.34 11 0 11 C-1.125 3.375 -1.125 3.375 0 0 Z " fill="#040404" transform="translate(94,170)"/>
<path d="M0 0 C1.2077558 3.62326739 0.54311128 4.64146369 -1 8 C-2.2077558 4.37673261 -1.54311128 3.35853631 0 0 Z " fill="#030303" transform="translate(158,190)"/>
<path d="M0 0 C1.2077558 3.62326739 0.54311128 4.64146369 -1 8 C-2.2077558 4.37673261 -1.54311128 3.35853631 0 0 Z " fill="#040404" transform="translate(161,182)"/>
<path d="M0 0 C1.2077558 3.62326739 0.54311128 4.64146369 -1 8 C-2.2077558 4.37673261 -1.54311128 3.35853631 0 0 Z " fill="#030303" transform="translate(164,174)"/>
<path d="M0 0 C0.33 0 0.66 0 1 0 C1 3.3 1 6.6 1 10 C0.67 10 0.34 10 0 10 C0 6.7 0 3.4 0 0 Z " fill="#010101" transform="translate(225,141)"/>
<path d="M0 0 C1 3 1 3 0.0625 5.1875 C-0.4634375 6.0846875 -0.4634375 6.0846875 -1 7 C-1.33 6.34 -1.66 5.68 -2 5 C-1.0625 2.375 -1.0625 2.375 0 0 Z " fill="#040404" transform="translate(155,198)"/>
<path d="M0 0 C0.33 0 0.66 0 1 0 C1 2.64 1 5.28 1 8 C0.67 8 0.34 8 0 8 C0 5.36 0 2.72 0 0 Z " fill="#101010" transform="translate(92,197)"/>
<path d="M0 0 C0.33 0 0.66 0 1 0 C1 2.64 1 5.28 1 8 C0.67 8 0.34 8 0 8 C0 5.36 0 2.72 0 0 Z " fill="#0F0F0F" transform="translate(43,194)"/>
<path d="M0 0 C0.33 0 0.66 0 1 0 C1 2.31 1 4.62 1 7 C0.67 7 0.34 7 0 7 C0 4.69 0 2.38 0 0 Z " fill="#0F0F0F" transform="translate(43,209)"/>
<path d="M0 0 C0.33 0 0.66 0 1 0 C1 2.31 1 4.62 1 7 C0.67 7 0.34 7 0 7 C0 4.69 0 2.38 0 0 Z " fill="#010101" transform="translate(42,202)"/>
<path d="M0 0 C0.66 0.66 1.32 1.32 2 2 C1.01 2.99 0.02 3.98 -1 5 C-0.67 3.35 -0.34 1.7 0 0 Z " fill="#040404" transform="translate(216,115)"/>
<path d="M0 0 C0.33 0.66 0.66 1.32 1 2 C0.01 3.485 0.01 3.485 -1 5 C-0.67 3.35 -0.34 1.7 0 0 Z " fill="#0E0E0E" transform="translate(228,182)"/>
<path d="M0 0 C0.33 0.99 0.66 1.98 1 3 C0.34 3.66 -0.32 4.32 -1 5 C-0.67 3.35 -0.34 1.7 0 0 Z " fill="#040404" transform="translate(167,166)"/>
<path d="M0 0 C0.33 0.99 0.66 1.98 1 3 C0.34 3.66 -0.32 4.32 -1 5 C-0.67 3.35 -0.34 1.7 0 0 Z " fill="#040404" transform="translate(170,158)"/>
<path d="M0 0 C0.33 0.99 0.66 1.98 1 3 C0.34 3.66 -0.32 4.32 -1 5 C-0.67 3.35 -0.34 1.7 0 0 Z " fill="#040404" transform="translate(173,150)"/>
<path d="M0 0 C0.33 0.99 0.66 1.98 1 3 C0.34 3.66 -0.32 4.32 -1 5 C-0.67 3.35 -0.34 1.7 0 0 Z " fill="#050505" transform="translate(176,142)"/>
<path d="M0 0 C0 0.99 0 1.98 0 3 C-0.99 3.495 -0.99 3.495 -2 4 C-1.34 2.68 -0.68 1.36 0 0 Z " fill="#0C0C0C" transform="translate(231,134)"/>
<path d="M0 0 C0.33 0.99 0.66 1.98 1 3 C0.34 3.66 -0.32 4.32 -1 5 C-0.67 3.35 -0.34 1.7 0 0 Z " fill="#050505" transform="translate(179,134)"/>
<path d="M0 0 C0.33 0 0.66 0 1 0 C1 1.65 1 3.3 1 5 C0.67 5 0.34 5 0 5 C0 3.35 0 1.7 0 0 Z " fill="#141414" transform="translate(124,96)"/>
<path d="M0 0 C4 1 4 1 4 1 Z " fill="#050505" transform="translate(67,304)"/>
<path d="M0 0 C4 1 4 1 4 1 Z " fill="#0B0B0B" transform="translate(75,302)"/>
<path d="M0 0 C1 4 1 4 1 4 Z " fill="#0C0C0C" transform="translate(1,242)"/>
<path d="M0 0 C4 1 4 1 4 1 Z " fill="#0C0C0C" transform="translate(94,240)"/>
<path d="M0 0 C4 1 4 1 4 1 Z " fill="#0D0D0D" transform="translate(98,239)"/>
<path d="M0 0 C4 1 4 1 4 1 Z " fill="#0D0D0D" transform="translate(102,238)"/>
<path d="M0 0 C4 1 4 1 4 1 Z " fill="#0B0B0B" transform="translate(113,235)"/>
<path d="M0 0 C4 1 4 1 4 1 Z " fill="#0A0A0A" transform="translate(117,234)"/>
<path d="M0 0 C4 1 4 1 4 1 Z " fill="#0D0D0D" transform="translate(124,232)"/>
<path d="M0 0 C4 1 4 1 4 1 Z " fill="#0A0A0A" transform="translate(128,231)"/>
<path d="M0 0 C4 1 4 1 4 1 Z " fill="#0A0A0A" transform="translate(139,228)"/>
<path d="M0 0 C4 1 4 1 4 1 Z " fill="#0B0B0B" transform="translate(150,225)"/>
<path d="M0 0 C4 1 4 1 4 1 Z " fill="#0B0B0B" transform="translate(161,222)"/>
<path d="M0 0 C4 1 4 1 4 1 Z " fill="#0B0B0B" transform="translate(172,219)"/>
<path d="M0 0 C4 1 4 1 4 1 Z " fill="#0A0A0A" transform="translate(176,218)"/>
<path d="M0 0 C4 1 4 1 4 1 Z " fill="#0D0D0D" transform="translate(183,216)"/>
<path d="M0 0 C4 1 4 1 4 1 Z " fill="#0A0A0A" transform="translate(187,215)"/>
<path d="M0 0 C4 1 4 1 4 1 Z " fill="#0A0A0A" transform="translate(198,212)"/>
<path d="M0 0 C4 1 4 1 4 1 Z " fill="#0D0D0D" transform="translate(209,209)"/>
<path d="M0 0 C1 4 1 4 1 4 Z " fill="#0E0E0E" transform="translate(44,190)"/>
<path d="M0 0 C4 1 4 1 4 1 Z " fill="#0A0A0A" transform="translate(294,186)"/>
<path d="M0 0 C4 1 4 1 4 1 Z " fill="#0B0B0B" transform="translate(305,183)"/>
<path d="M0 0 C4 1 4 1 4 1 Z " fill="#0A0A0A" transform="translate(309,182)"/>
<path d="M0 0 C4 1 4 1 4 1 Z " fill="#0A0A0A" transform="translate(320,179)"/>
<path d="M0 0 C4 1 4 1 4 1 Z " fill="#0C0C0C" transform="translate(327,177)"/>
<path d="M0 0 C4 1 4 1 4 1 Z " fill="#0A0A0A" transform="translate(331,176)"/>
<path d="M0 0 C4 1 4 1 4 1 Z " fill="#0D0D0D" transform="translate(342,173)"/>
<path d="M0 0 C4 1 4 1 4 1 Z " fill="#0B0B0B" transform="translate(353,170)"/>
<path d="M0 0 C4 1 4 1 4 1 Z " fill="#0A0A0A" transform="translate(357,169)"/>
<path d="M0 0 C4 1 4 1 4 1 Z " fill="#0B0B0B" transform="translate(364,167)"/>
<path d="M0 0 C4 1 4 1 4 1 Z " fill="#0A0A0A" transform="translate(368,166)"/>
<path d="M0 0 C4 1 4 1 4 1 Z " fill="#0A0A0A" transform="translate(379,163)"/>
<path d="M0 0 C4 1 4 1 4 1 Z " fill="#0B0B0B" transform="translate(390,160)"/>
<path d="M0 0 C0 3 0 3 0 3 Z " fill="#040404" transform="translate(256,107)"/>
<path d="M0 0 C3 1 3 1 3 1 Z " fill="#090909" transform="translate(30,304)"/>
<path d="M0 0 C3 1 3 1 3 1 Z " fill="#0D0D0D" transform="translate(27,303)"/>
<path d="M0 0 C3 1 3 1 3 1 Z " fill="#0D0D0D" transform="translate(79,301)"/>
<path d="M0 0 C3 1 3 1 3 1 Z " fill="#0E0E0E" transform="translate(82,300)"/>
<path d="M0 0 C3 1 3 1 3 1 Z " fill="#0D0D0D" transform="translate(90,297)"/>
<path d="M0 0 C3 1 3 1 3 1 Z " fill="#0B0B0B" transform="translate(95,295)"/>
<path d="" fill="#080808" transform="translate(0,0)"/>
<path d="" fill="#0C0C0C" transform="translate(0,0)"/>
<path d="M0 0 C3 1 3 1 3 1 Z " fill="#090909" transform="translate(110,236)"/>
<path d="M0 0 C3 1 3 1 3 1 Z " fill="#070707" transform="translate(121,233)"/>
<path d="M0 0 C3 1 3 1 3 1 Z " fill="#070707" transform="translate(147,226)"/>
<path d="M0 0 C3 1 3 1 3 1 Z " fill="#090909" transform="translate(158,223)"/>
<path d="M0 0 C3 1 3 1 3 1 Z " fill="#0A0A0A" transform="translate(169,220)"/>
<path d="" fill="#0D0D0D" transform="translate(0,0)"/>
<path d="M0 0 C3 1 3 1 3 1 Z " fill="#0A0A0A" transform="translate(180,217)"/>
<path d="" fill="#0E0E0E" transform="translate(0,0)"/>
<path d="M0 0 C3 1 3 1 3 1 Z " fill="#090909" transform="translate(195,213)"/>
<path d="M0 0 C3 1 3 1 3 1 Z " fill="#090909" transform="translate(206,210)"/>
<path d="" fill="#0D0D0D" transform="translate(0,0)"/>
<path d="" fill="#0E0E0E" transform="translate(0,0)"/>
<path d="" fill="#0E0E0E" transform="translate(0,0)"/>
<path d="" fill="#0E0E0E" transform="translate(0,0)"/>
<path d="" fill="#101010" transform="translate(0,0)"/>
<path d="" fill="#0A0A0A" transform="translate(0,0)"/>
<path d="" fill="#0D0D0D" transform="translate(0,0)"/>
<path d="" fill="#0E0E0E" transform="translate(0,0)"/>
<path d="" fill="#0D0D0D" transform="translate(0,0)"/>
<path d="" fill="#0A0A0A" transform="translate(0,0)"/>
<path d="" fill="#0A0A0A" transform="translate(0,0)"/>
<path d="" fill="#0E0E0E" transform="translate(0,0)"/>
<path d="" fill="#070707" transform="translate(0,0)"/>
<path d="" fill="#0A0A0A" transform="translate(0,0)"/>
<path d="" fill="#0E0E0E" transform="translate(0,0)"/>
<path d="M0 0 C3 1 3 1 3 1 Z " fill="#070707" transform="translate(302,184)"/>
<path d="" fill="#070707" transform="translate(0,0)"/>
<path d="" fill="#0E0E0E" transform="translate(0,0)"/>
<path d="" fill="#0B0B0B" transform="translate(0,0)"/>
<path d="M0 0 C3 1 3 1 3 1 Z " fill="#070707" transform="translate(313,181)"/>
<path d="" fill="#0E0E0E" transform="translate(0,0)"/>
<path d="" fill="#0E0E0E" transform="translate(0,0)"/>
<path d="" fill="#0A0A0A" transform="translate(0,0)"/>
<path d="" fill="#0E0E0E" transform="translate(0,0)"/>
<path d="" fill="#0E0E0E" transform="translate(0,0)"/>
<path d="M0 0 C3 1 3 1 3 1 Z " fill="#0E0E0E" transform="translate(324,178)"/>
<path d="" fill="#0A0A0A" transform="translate(0,0)"/>
<path d="" fill="#040404" transform="translate(0,0)"/>
<path d="" fill="#0D0D0D" transform="translate(0,0)"/>
<path d="" fill="#0E0E0E" transform="translate(0,0)"/>
<path d="" fill="#070707" transform="translate(0,0)"/>
<path d="" fill="#0A0A0A" transform="translate(0,0)"/>
<path d="" fill="#101010" transform="translate(0,0)"/>
<path d="" fill="#0A0A0A" transform="translate(0,0)"/>
<path d="" fill="#030303" transform="translate(0,0)"/>
<path d="M0 0 C3 1 3 1 3 1 Z " fill="#090909" transform="translate(350,171)"/>
<path d="" fill="#0E0E0E" transform="translate(0,0)"/>
<path d="" fill="#0A0A0A" transform="translate(0,0)"/>
<path d="" fill="#0E0E0E" transform="translate(0,0)"/>
<path d="M0 0 C3 1 3 1 3 1 Z " fill="#070707" transform="translate(361,168)"/>
<path d="" fill="#0A0A0A" transform="translate(0,0)"/>
<path d="" fill="#0A0A0A" transform="translate(0,0)"/>
<path d="" fill="#030303" transform="translate(0,0)"/>
<path d="" fill="#0E0E0E" transform="translate(0,0)"/>
<path d="M0 0 C3 1 3 1 3 1 Z " fill="#0E0E0E" transform="translate(383,162)"/>
<path d="M0 0 C3 1 3 1 3 1 Z " fill="#090909" transform="translate(387,161)"/>
<path d="" fill="#0D0D0D" transform="translate(0,0)"/>
<path d="" fill="#0E0E0E" transform="translate(0,0)"/>
<path d="" fill="#050505" transform="translate(0,0)"/>
<path d="" fill="#0A0A0A" transform="translate(0,0)"/>
<path d="" fill="#030303" transform="translate(0,0)"/>
<path d="" fill="#0E0E0E" transform="translate(0,0)"/>
<path d="" fill="#0E0E0E" transform="translate(0,0)"/>
<path d="" fill="#0E0E0E" transform="translate(0,0)"/>
<path d="" fill="#0D0D0D" transform="translate(0,0)"/>
<path d="" fill="#0A0A0A" transform="translate(0,0)"/>
<path d="" fill="#0A0A0A" transform="translate(0,0)"/>
<path d="" fill="#030303" transform="translate(0,0)"/>
<path d="" fill="#101010" transform="translate(0,0)"/>
<path d="" fill="#0E0E0E" transform="translate(0,0)"/>
<path d="" fill="#0E0E0E" transform="translate(0,0)"/>
<path d="" fill="#0A0A0A" transform="translate(0,0)"/>
<path d="" fill="#0A0A0A" transform="translate(0,0)"/>
<path d="" fill="#050505" transform="translate(0,0)"/>
<path d="" fill="#030303" transform="translate(0,0)"/>
<path d="" fill="#0E0E0E" transform="translate(0,0)"/>
<path d="" fill="#0E0E0E" transform="translate(0,0)"/>
<path d="" fill="#0E0E0E" transform="translate(0,0)"/>
<path d="" fill="#0A0A0A" transform="translate(0,0)"/>
<path d="" fill="#030303" transform="translate(0,0)"/>
<path d="" fill="#0E0E0E" transform="translate(0,0)"/>
<path d="" fill="#0E0E0E" transform="translate(0,0)"/>
<path d="" fill="#0E0E0E" transform="translate(0,0)"/>
<path d="" fill="#050505" transform="translate(0,0)"/>
<path d="" fill="#0A0A0A" transform="translate(0,0)"/>
<path d="" fill="#0A0A0A" transform="translate(0,0)"/>
<path d="" fill="#0A0A0A" transform="translate(0,0)"/>
<path d="" fill="#030303" transform="translate(0,0)"/>
<path d="" fill="#0E0E0E" transform="translate(0,0)"/>
<path d="" fill="#0E0E0E" transform="translate(0,0)"/>
<path d="" fill="#0E0E0E" transform="translate(0,0)"/>
<path d="" fill="#0E0E0E" transform="translate(0,0)"/>
<path d="" fill="#050505" transform="translate(0,0)"/>
<path d="" fill="#0A0A0A" transform="translate(0,0)"/>
<path d="" fill="#0A0A0A" transform="translate(0,0)"/>
<path d="" fill="#0A0A0A" transform="translate(0,0)"/>
<path d="" fill="#030303" transform="translate(0,0)"/>
<path d="" fill="#030303" transform="translate(0,0)"/>
<path d="" fill="#0E0E0E" transform="translate(0,0)"/>
<path d="" fill="#0E0E0E" transform="translate(0,0)"/>
<path d="" fill="#0E0E0E" transform="translate(0,0)"/>
<path d="" fill="#050505" transform="translate(0,0)"/>
<path d="" fill="#050505" transform="translate(0,0)"/>
<path d="" fill="#0A0A0A" transform="translate(0,0)"/>
<path d="" fill="#0A0A0A" transform="translate(0,0)"/>
<path d="" fill="#0E0E0E" transform="translate(0,0)"/>
<path d="" fill="#020202" transform="translate(0,0)"/>
<path d="" fill="#0E0E0E" transform="translate(0,0)"/>
<path d="" fill="#0E0E0E" transform="translate(0,0)"/>
<path d="" fill="#0E0E0E" transform="translate(0,0)"/>
<path d="" fill="#030303" transform="translate(0,0)"/>
<path d="" fill="#0D0D0D" transform="translate(0,0)"/>
<path d="" fill="#0A0A0A" transform="translate(0,0)"/>
<path d="" fill="#0D0D0D" transform="translate(0,0)"/>
<path d="" fill="#0B0B0B" transform="translate(0,0)"/>
<path d="" fill="#020202" transform="translate(0,0)"/>
<path d="" fill="#0E0E0E" transform="translate(0,0)"/>
<path d="" fill="#0E0E0E" transform="translate(0,0)"/>
<path d="" fill="#0E0E0E" transform="translate(0,0)"/>
<path d="" fill="#0D0D0D" transform="translate(0,0)"/>
<path d="" fill="#020202" transform="translate(0,0)"/>
<path d="M0 0 C2 1 2 1 2 1 Z " fill="#0A0A0A" transform="translate(25,302)"/>
<path d="M0 0 C2 1 2 1 2 1 Z " fill="#090909" transform="translate(23,301)"/>
<path d="M0 0 C2 1 2 1 2 1 Z " fill="#0A0A0A" transform="translate(85,299)"/>
<path d="M0 0 C2 1 2 1 2 1 Z " fill="#0A0A0A" transform="translate(93,296)"/>
<path d="M0 0 C2 1 2 1 2 1 Z " fill="#070707" transform="translate(98,294)"/>
<path d="M0 0 C2 1 2 1 2 1 Z " fill="#0A0A0A" transform="translate(103,292)"/>
<path d="M0 0 C2 1 2 1 2 1 Z " fill="#070707" transform="translate(110,289)"/>
<path d="M0 0 C2 1 2 1 2 1 Z " fill="#0A0A0A" transform="translate(115,287)"/>
<path d="M0 0 C2 1 2 1 2 1 Z " fill="#060606" transform="translate(117,286)"/>
<path d="" fill="#0E0E0E" transform="translate(0,0)"/>
<path d="M0 0 C2 1 2 1 2 1 Z " fill="#060606" transform="translate(124,283)"/>
<path d="" fill="#0F0F0F" transform="translate(0,0)"/>
<path d="M0 0 C2 1 2 1 2 1 Z " fill="#0A0A0A" transform="translate(129,281)"/>
<path d="" fill="#0A0A0A" transform="translate(0,0)"/>
<path d="" fill="#0C0C0C" transform="translate(0,0)"/>
<path d="M0 0 C2 1 2 1 2 1 Z " fill="#0A0A0A" transform="translate(136,278)"/>
<path d="M0 0 C2 1 2 1 2 1 Z " fill="#060606" transform="translate(138,277)"/>
<path d="M0 0 C2 1 2 1 2 1 Z " fill="#0A0A0A" transform="translate(143,275)"/>
<path d="M0 0 C2 1 2 1 2 1 Z " fill="#060606" transform="translate(145,274)"/>
<path d="M0 0 C2 1 2 1 2 1 Z " fill="#0A0A0A" transform="translate(150,272)"/>
<path d="M0 0 C2 1 2 1 2 1 Z " fill="#0A0A0A" transform="translate(157,269)"/>
<path d="M0 0 C2 1 2 1 2 1 Z " fill="#060606" transform="translate(166,265)"/>
<path d="M0 0 C2 1 2 1 2 1 Z " fill="#070707" transform="translate(173,262)"/>
<path d="M0 0 C2 1 2 1 2 1 Z " fill="#070707" transform="translate(180,259)"/>
<path d="M0 0 C2 1 2 1 2 1 Z " fill="#060606" transform="translate(217,243)"/>
<path d="" fill="#0A0A0A" transform="translate(0,0)"/>
<path d="M0 0 C2 1 2 1 2 1 Z " fill="#070707" transform="translate(231,237)"/>
<path d="" fill="#070707" transform="translate(0,0)"/>
<path d="M0 0 C2 1 2 1 2 1 Z " fill="#0A0A0A" transform="translate(238,234)"/>
<path d="" fill="#141414" transform="translate(0,0)"/>
<path d="M0 0 C2 1 2 1 2 1 Z " fill="#0A0A0A" transform="translate(245,231)"/>
<path d="" fill="#0A0A0A" transform="translate(0,0)"/>
<path d="" fill="#0A0A0A" transform="translate(0,0)"/>
<path d="" fill="#0A0A0A" transform="translate(0,0)"/>
<path d="M0 0 C2 1 2 1 2 1 Z " fill="#060606" transform="translate(254,227)"/>
<path d="" fill="#0A0A0A" transform="translate(0,0)"/>
<path d="M0 0 C2 1 2 1 2 1 Z " fill="#0A0A0A" transform="translate(259,225)"/>
<path d="" fill="#090909" transform="translate(0,0)"/>
<path d="" fill="#090909" transform="translate(0,0)"/>
<path d="M0 0 C2 1 2 1 2 1 Z " fill="#060606" transform="translate(261,224)"/>
<path d="" fill="#0A0A0A" transform="translate(0,0)"/>
<path d="" fill="#0A0A0A" transform="translate(0,0)"/>
<path d="M0 0 C2 1 2 1 2 1 Z " fill="#070707" transform="translate(268,221)"/>
<path d="" fill="#0A0A0A" transform="translate(0,0)"/>
<path d="" fill="#0F0F0F" transform="translate(0,0)"/>
<path d="M0 0 C2 1 2 1 2 1 Z " fill="#0A0A0A" transform="translate(275,218)"/>
<path d="" fill="#0F0F0F" transform="translate(0,0)"/>
<path d="M0 0 C2 1 2 1 2 1 Z " fill="#0A0A0A" transform="translate(282,215)"/>
<path d="M0 0 C2 1 2 1 2 1 Z " fill="#060606" transform="translate(284,214)"/>
<path d="" fill="#0A0A0A" transform="translate(0,0)"/>
<path d="" fill="#0F0F0F" transform="translate(0,0)"/>
<path d="M0 0 C2 1 2 1 2 1 Z " fill="#060606" transform="translate(291,211)"/>
<path d="" fill="#0A0A0A" transform="translate(0,0)"/>
<path d="" fill="#0F0F0F" transform="translate(0,0)"/>
<path d="M0 0 C2 1 2 1 2 1 Z " fill="#0A0A0A" transform="translate(305,205)"/>
<path d="" fill="#0F0F0F" transform="translate(0,0)"/>
<path d="" fill="#0C0C0C" transform="translate(0,0)"/>
<path d="" fill="#0A0A0A" transform="translate(0,0)"/>
<path d="" fill="#0F0F0F" transform="translate(0,0)"/>
<path d="M0 0 C2 1 2 1 2 1 Z " fill="#070707" transform="translate(321,198)"/>
<path d="" fill="#0F0F0F" transform="translate(0,0)"/>
<path d="" fill="#0A0A0A" transform="translate(0,0)"/>
<path d="" fill="#0F0F0F" transform="translate(0,0)"/>
<path d="" fill="#0A0A0A" transform="translate(0,0)"/>
<path d="" fill="#0A0A0A" transform="translate(0,0)"/>
<path d="M0 0 C2 1 2 1 2 1 Z " fill="#0A0A0A" transform="translate(335,192)"/>
<path d="" fill="#0F0F0F" transform="translate(0,0)"/>
<path d="" fill="#0E0E0E" transform="translate(0,0)"/>
<path d="" fill="#0A0A0A" transform="translate(0,0)"/>
<path d="" fill="#0A0A0A" transform="translate(0,0)"/>
<path d="M0 0 C2 1 2 1 2 1 Z " fill="#060606" transform="translate(344,188)"/>
<path d="" fill="#090909" transform="translate(0,0)"/>
<path d="M0 0 C2 1 2 1 2 1 Z " fill="#070707" transform="translate(351,185)"/>
<path d="" fill="#090909" transform="translate(0,0)"/>
<path d="" fill="#090909" transform="translate(0,0)"/>
<path d="" fill="#0E0E0E" transform="translate(0,0)"/>
<path d="" fill="#090909" transform="translate(0,0)"/>
<path d="" fill="#0F0F0F" transform="translate(0,0)"/>
<path d="" fill="#090909" transform="translate(0,0)"/>
<path d="" fill="#090909" transform="translate(0,0)"/>
<path d="" fill="#0A0A0A" transform="translate(0,0)"/>
<path d="M0 0 C2 1 2 1 2 1 Z " fill="#060606" transform="translate(374,175)"/>
<path d="" fill="#0A0A0A" transform="translate(0,0)"/>
<path d="" fill="#0A0A0A" transform="translate(0,0)"/>
<path d="" fill="#0F0F0F" transform="translate(0,0)"/>
<path d="M0 0 C2 1 2 1 2 1 Z " fill="#0A0A0A" transform="translate(379,173)"/>
<path d="" fill="#141414" transform="translate(0,0)"/>
<path d="M0 0 C2 1 2 1 2 1 Z " fill="#070707" transform="translate(388,169)"/>
<path d="" fill="#0A0A0A" transform="translate(0,0)"/>
<path d="" fill="#090909" transform="translate(0,0)"/>
<path d="" fill="#090909" transform="translate(0,0)"/>
<path d="M0 0 C2 1 2 1 2 1 Z " fill="#0A0A0A" transform="translate(395,166)"/>
<path d="M0 0 C2 1 2 1 2 1 Z " fill="#060606" transform="translate(397,165)"/>
<path d="" fill="#070707" transform="translate(0,0)"/>
<path d="" fill="#0A0A0A" transform="translate(0,0)"/>
<path d="" fill="#090909" transform="translate(0,0)"/>
<path d="" fill="#090909" transform="translate(0,0)"/>
<path d="" fill="#0A0A0A" transform="translate(0,0)"/>
<path d="" fill="#0A0A0A" transform="translate(0,0)"/>
<path d="" fill="#0A0A0A" transform="translate(0,0)"/>
<path d="" fill="#0A0A0A" transform="translate(0,0)"/>
<path d="" fill="#090909" transform="translate(0,0)"/>
<path d="" fill="#070707" transform="translate(0,0)"/>
<path d="" fill="#0A0A0A" transform="translate(0,0)"/>
<path d="" fill="#090909" transform="translate(0,0)"/>
<path d="" fill="#010101" transform="translate(0,0)"/>
<path d="" fill="#0A0A0A" transform="translate(0,0)"/>
<path d="" fill="#090909" transform="translate(0,0)"/>
<path d="" fill="#0A0A0A" transform="translate(0,0)"/>
<path d="" fill="#060606" transform="translate(0,0)"/>
<path d="" fill="#090909" transform="translate(0,0)"/>
<path d="" fill="#090909" transform="translate(0,0)"/>
<path d="" fill="#0A0A0A" transform="translate(0,0)"/>
<path d="" fill="#0A0A0A" transform="translate(0,0)"/>
<path d="" fill="#060606" transform="translate(0,0)"/>
<path d="" fill="#090909" transform="translate(0,0)"/>
<path d="" fill="#090909" transform="translate(0,0)"/>
<path d="" fill="#090909" transform="translate(0,0)"/>
<path d="" fill="#0A0A0A" transform="translate(0,0)"/>
<path d="" fill="#090909" transform="translate(0,0)"/>
<path d="" fill="#060606" transform="translate(0,0)"/>
<path d="" fill="#111111" transform="translate(0,0)"/>
<path d="" fill="#090909" transform="translate(0,0)"/>
<path d="" fill="#0F0F0F" transform="translate(0,0)"/>
<path d="" fill="#0A0A0A" transform="translate(0,0)"/>
<path d="" fill="#0A0A0A" transform="translate(0,0)"/>
<path d="" fill="#090909" transform="translate(0,0)"/>
<path d="" fill="#060606" transform="translate(0,0)"/>
<path d="" fill="#0E0E0E" transform="translate(0,0)"/>
<path d="" fill="#0A0A0A" transform="translate(0,0)"/>
<path d="" fill="#090909" transform="translate(0,0)"/>
<path d="" fill="#090909" transform="translate(0,0)"/>
<path d="" fill="#0F0F0F" transform="translate(0,0)"/>
<path d="" fill="#0C0C0C" transform="translate(0,0)"/>
<path d="" fill="#0C0C0C" transform="translate(0,0)"/>
<path d="" fill="#070707" transform="translate(0,0)"/>
<path d="" fill="#070707" transform="translate(0,0)"/>
<path d="" fill="#070707" transform="translate(0,0)"/>
<path d="" fill="#0C0C0C" transform="translate(0,0)"/>
<path d="" fill="#121212" transform="translate(0,0)"/>
<path d="" fill="#020202" transform="translate(0,0)"/>
<path d="" fill="#070707" transform="translate(0,0)"/>
<path d="" fill="#070707" transform="translate(0,0)"/>
<path d="" fill="#010101" transform="translate(0,0)"/>
<path d="" fill="#010101" transform="translate(0,0)"/>
<path d="" fill="#020202" transform="translate(0,0)"/>
<path d="" fill="#0C0C0C" transform="translate(0,0)"/>
<path d="" fill="#020202" transform="translate(0,0)"/>
<path d="" fill="#0C0C0C" transform="translate(0,0)"/>
<path d="" fill="#0C0C0C" transform="translate(0,0)"/>
<path d="" fill="#0C0C0C" transform="translate(0,0)"/>
<path d="" fill="#0C0C0C" transform="translate(0,0)"/>
<path d="" fill="#0C0C0C" transform="translate(0,0)"/>
<path d="" fill="#121212" transform="translate(0,0)"/>
<path d="" fill="#020202" transform="translate(0,0)"/>
<path d="" fill="#070707" transform="translate(0,0)"/>
<path d="" fill="#0C0C0C" transform="translate(0,0)"/>
<path d="" fill="#010101" transform="translate(0,0)"/>
<path d="" fill="#0C0C0C" transform="translate(0,0)"/>
<path d="" fill="#010101" transform="translate(0,0)"/>
<path d="" fill="#0C0C0C" transform="translate(0,0)"/>
<path d="" fill="#070707" transform="translate(0,0)"/>
<path d="" fill="#121212" transform="translate(0,0)"/>
<path d="" fill="#0C0C0C" transform="translate(0,0)"/>
<path d="" fill="#070707" transform="translate(0,0)"/>
<path d="" fill="#0C0C0C" transform="translate(0,0)"/>
<path d="" fill="#070707" transform="translate(0,0)"/>
<path d="" fill="#121212" transform="translate(0,0)"/>
<path d="" fill="#070707" transform="translate(0,0)"/>
<path d="" fill="#1C1C1C" transform="translate(0,0)"/>
<path d="" fill="#121212" transform="translate(0,0)"/>
<path d="" fill="#1C1C1C" transform="translate(0,0)"/>
<path d="" fill="#121212" transform="translate(0,0)"/>
<path d="" fill="#0C0C0C" transform="translate(0,0)"/>
<path d="" fill="#0C0C0C" transform="translate(0,0)"/>
<path d="" fill="#121212" transform="translate(0,0)"/>
<path d="" fill="#1C1C1C" transform="translate(0,0)"/>
<path d="" fill="#010101" transform="translate(0,0)"/>
<path d="" fill="#010101" transform="translate(0,0)"/>
<path d="" fill="#070707" transform="translate(0,0)"/>
<path d="" fill="#070707" transform="translate(0,0)"/>
<path d="" fill="#0C0C0C" transform="translate(0,0)"/>
<path d="" fill="#0C0C0C" transform="translate(0,0)"/>
<path d="" fill="#121212" transform="translate(0,0)"/>
<path d="" fill="#020202" transform="translate(0,0)"/>
<path d="" fill="#070707" transform="translate(0,0)"/>
<path d="" fill="#070707" transform="translate(0,0)"/>
<path d="" fill="#070707" transform="translate(0,0)"/>
<path d="" fill="#0C0C0C" transform="translate(0,0)"/>
<path d="" fill="#0C0C0C" transform="translate(0,0)"/>
<path d="" fill="#121212" transform="translate(0,0)"/>
<path d="" fill="#0C0C0C" transform="translate(0,0)"/>
<path d="" fill="#010101" transform="translate(0,0)"/>
<path d="" fill="#010101" transform="translate(0,0)"/>
<path d="" fill="#010101" transform="translate(0,0)"/>
<path d="" fill="#0C0C0C" transform="translate(0,0)"/>
<path d="" fill="#070707" transform="translate(0,0)"/>
<path d="" fill="#070707" transform="translate(0,0)"/>
<path d="" fill="#010101" transform="translate(0,0)"/>
<path d="" fill="#060606" transform="translate(0,0)"/>
<path d="" fill="#121212" transform="translate(0,0)"/>
<path d="" fill="#0C0C0C" transform="translate(0,0)"/>
<path d="" fill="#070707" transform="translate(0,0)"/>
<path d="" fill="#010101" transform="translate(0,0)"/>
<path d="" fill="#121212" transform="translate(0,0)"/>
<path d="" fill="#0C0C0C" transform="translate(0,0)"/>
<path d="" fill="#070707" transform="translate(0,0)"/>
<path d="" fill="#000000" transform="translate(0,0)"/>
</svg>
