<?xml version="1.0" encoding="UTF-8"?>
<svg version="1.1" xmlns="http://www.w3.org/2000/svg" width="300" height="300">
<path d="M0 0 C0.51014648 0.42506836 1.02029297 0.85013672 1.54589844 1.28808594 C28.19647725 23.74757817 44.18780843 57.27320449 47.80151367 91.66333008 C50.13449858 119.1282729 44.33253341 145.95761779 31 170 C30.4225 171.07894531 29.845 172.15789062 29.25 173.26953125 C25.22808838 180.52200613 20.45256546 186.76849662 15 193 C13.74896484 194.46953125 13.74896484 194.46953125 12.47265625 195.96875 C-8.8711441 220.55896699 -41.46185093 237.31923471 -74 240 C-102.36377024 241.47460831 -126.436656 237.06137888 -152 225 C-152.80566406 224.62488281 -153.61132812 224.24976563 -154.44140625 223.86328125 C-161.95535964 220.02788569 -168.58765563 214.50921935 -175.23632812 209.36279297 C-176.78629656 208.16512909 -178.35284328 206.98898477 -179.921875 205.81640625 C-182 204 -182 204 -183 201 C-183.825 200.690625 -184.65 200.38125 -185.5 200.0625 C-186.325 199.711875 -187.15 199.36125 -188 199 C-188.3721042 197.67696283 -188.70630173 196.34262065 -189 195 C-189.66 194.67 -190.32 194.34 -191 194 C-193 193 -193 193 -193.75 190.875 C-193.87375 189.946875 -193.87375 189.946875 -194 189 C-194.66 189 -195.32 189 -196 189 C-197.62625095 186.8880257 -199.10573457 184.7885592 -200.5625 182.5625 C-200.99997559 181.89887451 -201.43745117 181.23524902 -201.88818359 180.55151367 C-205.20193596 175.43074747 -208.23940834 170.18512738 -211.125 164.8125 C-211.51502197 164.09457275 -211.90504395 163.37664551 -212.30688477 162.63696289 C-214.15865506 159.1002371 -215 157.06731126 -215 153 C-215.66 152.67 -216.32 152.34 -217 152 C-217.74609375 149.91796875 -217.74609375 149.91796875 -218.4375 147.1875 C-218.69273437 146.18203125 -218.94796875 145.1765625 -219.2109375 144.140625 C-219.47132813 143.10421875 -219.73171875 142.0678125 -220 141 C-220.26039063 140.08734375 -220.52078125 139.1746875 -220.7890625 138.234375 C-225.50140554 121.19378098 -225.68517546 103.69043572 -224.1875 86.1875 C-224.11756836 85.31569092 -224.04763672 84.44388184 -223.97558594 83.5456543 C-223.41319719 77.6601776 -222.0306514 72.5351523 -220 67 C-219.61199219 65.77796875 -219.22398437 64.5559375 -218.82421875 63.296875 C-216.14576364 54.93935872 -213.2561409 46.7134753 -209 39 C-208.01 38.505 -208.01 38.505 -207 38 C-206.32438252 36.3369416 -205.66066719 34.66905395 -205 33 C-200.56784493 24.28392246 -200.56784493 24.28392246 -198 23 C-197.67 22.01 -197.34 21.02 -197 20 C-195.71340837 18.62150897 -194.37086915 17.29470975 -193 16 C-192.195625 15.195625 -191.39125 14.39125 -190.5625 13.5625 C-188.04166667 11.04166667 -185.52083333 8.52083333 -183 6 C-182.278125 5.236875 -181.55625 4.47375 -180.8125 3.6875 C-131.30743642 -43.61733853 -51.59505218 -43.47087889 0 0 Z " fill="#023797" transform="translate(240,47)"/>
<path d="M0 0 C0 0.33 0 0.66 0 1 C-5.94 1 -11.88 1 -18 1 C-15.69 1.33 -13.38 1.66 -11 2 C-10.3125 3.8125 -10.3125 3.8125 -10 6 C-11.4375 7.75 -11.4375 7.75 -13 9 C-12.01 9.99 -11.02 10.98 -10 12 C-10.66 12 -11.32 12 -12 12 C-11.505 12.433125 -11.01 12.86625 -10.5 13.3125 C-9 15 -9 15 -9 18 C-9.66 18 -10.32 18 -11 18 C-11 18.99 -11 19.98 -11 21 C-10.071875 21.185625 -10.071875 21.185625 -9.125 21.375 C-7 22 -7 22 -5 24 C-5 24.99 -5 25.98 -5 27 C-3.91332031 27.09087891 -3.91332031 27.09087891 -2.8046875 27.18359375 C2.17116533 27.61483433 7.08680391 28.07047641 12 29 C12 29.66 12 30.32 12 31 C12.763125 30.938125 13.52625 30.87625 14.3125 30.8125 C17.50339968 31.03512091 17.96106145 31.68302438 20 34 C20.99 34.33 21.98 34.66 23 35 C22.67 35.66 22.34 36.32 22 37 C22.99 37 23.98 37 25 37 C25.12375 37.639375 25.2475 38.27875 25.375 38.9375 C25.58125 39.618125 25.7875 40.29875 26 41 C26.66 41.33 27.32 41.66 28 42 C28.33 42.99 28.66 43.98 29 45 C29.680625 45.845625 30.36125 46.69125 31.0625 47.5625 C33 50 33 50 33 52 C33.66 52.33 34.32 52.66 35 53 C35 53.99 35 54.98 35 56 C35.928125 56.37125 35.928125 56.37125 36.875 56.75 C39.35068687 58.20628639 39.95125002 59.37812506 41 62 C40.34 62 39.68 62 39 62 C39 62.99 39 63.98 39 65 C39.66 65.66 40.32 66.32 41 67 C41.99 68.485 41.99 68.485 43 70 C42.67 70.66 42.34 71.32 42 72 C41.34 72 40.68 72 40 72 C40.474375 72.37125 40.94875 72.7425 41.4375 73.125 C43.86369042 76.0364285 44 79.29383044 44 83 C44.66 83.66 45.32 84.32 46 85 C45.01 85.495 45.01 85.495 44 86 C45.08784968 89.24983135 45.08784968 89.24983135 47 92 C47.165 91.360625 47.33 90.72125 47.5 90.0625 C49 88 49 88 52.8125 87.3125 C54.20813661 87.20572999 55.60396533 87.10143273 57 87 C58.67056149 86.68676972 60.33958925 86.36321485 62 86 C62 86.66 62 87.32 62 88 C65.65316671 86.75023244 66.78065836 86.32901247 69 83 C69.66 83.33 70.32 83.66 71 84 C70.67 84.66 70.34 85.32 70 86 C70.66 86.33 71.32 86.66 72 87 C71.34 87 70.68 87 70 87 C69.34 88.65 68.68 90.3 68 92 C73.30094216 93.80304155 78.60308488 95.50723624 84 97 C83.34 99.97 82.68 102.94 82 106 C77.81956094 106 76.77842094 105.50922953 73.3125 103.5 C67.62645432 100.56930685 63.11584603 99.74259732 56.94140625 101.62890625 C46.6685867 106.09447888 40.05396817 115.79705534 35.8125 125.80078125 C32.54641076 134.48233463 30.63962286 142.42391509 30.625 151.6875 C30.60050781 152.51572266 30.57601562 153.34394531 30.55078125 154.19726562 C30.53096305 158.32275499 30.65417645 160.44995555 32.8984375 164.01953125 C35.82854935 166.78080766 37.70885195 167.1708852 41.625 167.5625 C42.44226563 167.64628906 43.25953125 167.73007813 44.1015625 167.81640625 C44.72804687 167.87699219 45.35453125 167.93757812 46 168 C46.15855469 167.30777344 46.31710938 166.61554688 46.48046875 165.90234375 C48.23801985 158.53228142 50.47097635 151.47522563 53.01171875 144.34765625 C53.9157553 141.28536643 54.37793993 139.1494994 54 136 C53.34 135.01 52.68 134.02 52 133 C61.24 133 70.48 133 80 133 C78.68 134.98 77.36 136.96 76 139 C75.02283272 141.11760938 75.02283272 141.11760938 74.40234375 143.171875 C74.1597583 143.91429443 73.91717285 144.65671387 73.66723633 145.42163086 C73.42642334 146.18999268 73.18561035 146.95835449 72.9375 147.75 C72.67928467 148.5447876 72.42106934 149.3395752 72.1550293 150.15844727 C70.55330143 155.12061337 69.04711953 160.10396754 67.73828125 165.15234375 C66.82042454 167.44941371 65.95967982 168.47963302 64 170 C51.31945789 175.37625323 37.96736996 177.2363903 25 172 C19.26398243 168.86142435 14.36947048 164.24678582 12 158 C12 157.01 12 156.02 12 155 C11.34 155 10.68 155 10 155 C9.67 154.34 9.34 153.68 9 153 C7.68 153 6.36 153 5 153 C4.896875 153.556875 4.79375 154.11375 4.6875 154.6875 C3.86866423 157.44176578 2.54146219 159.58727657 1 162 C6.66347149 166.76642045 12.0673587 170.36133511 19 173 C19 173.33 19 173.66 19 174 C15.79215279 174.14622024 12.58517039 174.23436651 9.375 174.3125 C8.01955078 174.3753418 8.01955078 174.3753418 6.63671875 174.43945312 C2.04416175 174.52325891 -1.02532491 174.49972924 -4.6484375 171.48046875 C-5.42445313 170.66191406 -6.20046875 169.84335938 -7 169 C-9.53163922 170.01083436 -12.06044019 171.02509183 -14.578125 172.0703125 C-21.81486818 174.92692165 -27.74252426 176.4737416 -35.25 173.875 C-39.4296989 171.0252053 -42.36864324 167.89407029 -44 163 C-44.22325814 160.94106379 -44.40705759 158.87766347 -44.5625 156.8125 C-44.68818359 155.18248047 -44.68818359 155.18248047 -44.81640625 153.51953125 C-44.87699219 152.68808594 -44.93757813 151.85664063 -45 151 C-45.66 151.33 -46.32 151.66 -47 152 C-47 151.34 -47 150.68 -47 150 C-47.66386719 150.15597656 -48.32773438 150.31195313 -49.01171875 150.47265625 C-49.89472656 150.66730469 -50.77773437 150.86195313 -51.6875 151.0625 C-52.55761719 151.25972656 -53.42773438 151.45695313 -54.32421875 151.66015625 C-58.26486499 152.16064709 -61.27243724 151.24252092 -65 150 C-65.33 149.34 -65.66 148.68 -66 148 C-67.9470688 147.90356526 -67.9470688 147.90356526 -70 149 C-71.14757404 151.59110138 -71.98403365 153.92243948 -72.75 156.625 C-72.97042969 157.32496094 -73.19085938 158.02492187 -73.41796875 158.74609375 C-74.88892259 163.67059139 -76.41076766 169.17846469 -74 174 C-83.24 174 -92.48 174 -102 174 C-100.68 172.35 -99.36 170.7 -98 169 C-97.01495279 167.07754827 -97.01495279 167.07754827 -96.40234375 165.14453125 C-96.1595166 164.44473145 -95.91668945 163.74493164 -95.66650391 163.02392578 C-95.42593262 162.29415527 -95.18536133 161.56438477 -94.9375 160.8125 C-94.68145996 160.05437012 -94.42541992 159.29624023 -94.16162109 158.51513672 C-93.65832166 157.01613096 -93.15978262 155.51551668 -92.66650391 154.01318359 C-92.11637139 152.35150127 -91.53669032 150.69963269 -90.94921875 149.05078125 C-88.88395455 142.97244444 -88.6719563 137.3907773 -89 131 C-88.34 131 -87.68 131 -87 131 C-87.144375 130.45472656 -87.28875 129.90945312 -87.4375 129.34765625 C-88.81528597 123.75040076 -89.18287437 118.76054255 -89 113 C-90.65 113.33 -92.3 113.66 -94 114 C-94.33 112.68 -94.66 111.36 -95 110 C-95.66 110 -96.32 110 -97 110 C-97.33 110.66 -97.66 111.32 -98 112 C-98.99 111.505 -98.99 111.505 -100 111 C-100.33 111.66 -100.66 112.32 -101 113 C-102.64826111 110.03312999 -103.44271087 107.34373475 -104 104 C-103.34 103.67 -102.68 103.34 -102 103 C-102.04125 102.278125 -102.0825 101.55625 -102.125 100.8125 C-101.98965972 97.76734381 -101.12313428 95.8078357 -100 93 C-99.83201738 90.29113059 -99.83201738 90.29113059 -100 88 C-100.33 88.33 -100.66 88.66 -101 89 C-101.99 89.33 -102.98 89.66 -104 90 C-104 90.66 -104 91.32 -104 92 C-105.0725 92.12375 -106.145 92.2475 -107.25 92.375 C-111.43478835 93.03257941 -111.43478835 93.03257941 -115 95 C-116.1341403 97.62627991 -116.1341403 97.62627991 -116.75 100.625 C-116.99234375 101.62789063 -117.2346875 102.63078125 -117.484375 103.6640625 C-117.65453125 104.43492188 -117.8246875 105.20578125 -118 106 C-118.33 104.68 -118.66 103.36 -119 102 C-121.2988401 101.40998293 -123.60083006 100.86648221 -125.91796875 100.3515625 C-133.95865583 98.56474315 -141.61402356 96.69298822 -149 93 C-150.485 97.95 -150.485 97.95 -152 103 C-152.99 103 -153.98 103 -155 103 C-154.5875 101.9275 -154.175 100.855 -153.75 99.75 C-152.44716172 96.30202334 -151.30246371 92.82533545 -150.1875 89.3125 C-147.99002876 82.66069518 -145.34435669 76.16317161 -142 70 C-141.01 69.505 -141.01 69.505 -140 69 C-139.32438252 67.3369416 -138.66066719 65.66905395 -138 64 C-133.56784493 55.28392246 -133.56784493 55.28392246 -131 54 C-130.67 53.01 -130.34 52.02 -130 51 C-128.71340837 49.62150897 -127.37086915 48.29470975 -126 47 C-125.195625 46.195625 -124.39125 45.39125 -123.5625 44.5625 C-121.04166667 42.04166667 -118.52083333 39.52083333 -116 37 C-115.278125 36.236875 -114.55625 35.47375 -113.8125 34.6875 C-83.8058719 6.01449981 -40.77340532 -6.11354566 0 0 Z M-15 15 C-14.67 15.66 -14.34 16.32 -14 17 C-13.34 16.67 -12.68 16.34 -12 16 C-12.99 15.67 -13.98 15.34 -15 15 Z M-93 108 C-92 110 -92 110 -92 110 Z " fill="#0166D2" transform="translate(173,16)"/>
<path d="M0 0 C0 0.33 0 0.66 0 1 C-5.94 1 -11.88 1 -18 1 C-15.69 1.33 -13.38 1.66 -11 2 C-10.3125 3.8125 -10.3125 3.8125 -10 6 C-11.4375 7.75 -11.4375 7.75 -13 9 C-12.01 9.99 -11.02 10.98 -10 12 C-10.66 12 -11.32 12 -12 12 C-11.505 12.433125 -11.01 12.86625 -10.5 13.3125 C-9 15 -9 15 -9 18 C-9.66 18 -10.32 18 -11 18 C-11 18.99 -11 19.98 -11 21 C-10.071875 21.185625 -10.071875 21.185625 -9.125 21.375 C-7 22 -7 22 -5 24 C-5.375 26.625 -5.375 26.625 -6 29 C-10.06368679 29.77403558 -13.86425173 30.0984702 -18 30 C-18 30.66 -18 31.32 -18 32 C-16.68 32.33 -15.36 32.66 -14 33 C-13.67 34.65 -13.34 36.3 -13 38 C-18.41538462 39.23076923 -18.41538462 39.23076923 -21.375 38.0625 C-22.179375 37.5365625 -22.179375 37.5365625 -23 37 C-21.7635127 38.35563174 -21.7635127 38.35563174 -18.5 39.5625 C-16.17642171 40.84758105 -15.19137105 41.41781698 -14.3515625 43.97265625 C-14.1408813 45.97412765 -14.06488655 47.98851695 -14 50 C-13.67 50.66 -13.34 51.32 -13 52 C-14.375 53.5 -14.375 53.5 -16 55 C-16.66 55 -17.32 55 -18 55 C-18.268125 55.5775 -18.53625 56.155 -18.8125 56.75 C-20 59 -20 59 -21.2890625 60.671875 C-23.60267778 63.8200821 -25.56564453 67.14476161 -27.5625 70.5 C-27.96146484 71.16386719 -28.36042969 71.82773438 -28.77148438 72.51171875 C-30.63196096 75.62390161 -32.45077671 78.71732147 -34 82 C-34.66 82 -35.32 82 -36 82 C-36.37125 83.051875 -36.37125 83.051875 -36.75 84.125 C-38.16088026 87.37002459 -39.97895398 90.10316737 -42 93 C-40.02 93.99 -40.02 93.99 -38 95 C-50.54 95.33 -63.08 95.66 -76 96 C-76 98.64 -76 101.28 -76 104 C-76.8828125 107.39453125 -76.8828125 107.39453125 -78.125 110.8125 C-78.58127971 112.1009079 -79.03560437 113.39000934 -79.48828125 114.6796875 C-79.73143066 115.36514648 -79.97458008 116.05060547 -80.22509766 116.75683594 C-81.6754665 120.95532017 -82.98625396 125.19851888 -84.3125 129.4375 C-84.57885254 130.28481689 -84.84520508 131.13213379 -85.11962891 132.00512695 C-85.74759975 134.00304731 -86.37397963 136.00146763 -87 138 C-88.4606285 135.35261084 -89 134.10551666 -89 131 C-88.34 131 -87.68 131 -87 131 C-87.144375 130.45472656 -87.28875 129.90945312 -87.4375 129.34765625 C-88.81528597 123.75040076 -89.18287437 118.76054255 -89 113 C-90.65 113.33 -92.3 113.66 -94 114 C-94.33 112.68 -94.66 111.36 -95 110 C-95.66 110 -96.32 110 -97 110 C-97.33 110.66 -97.66 111.32 -98 112 C-98.99 111.505 -98.99 111.505 -100 111 C-100.33 111.66 -100.66 112.32 -101 113 C-102.64826111 110.03312999 -103.44271087 107.34373475 -104 104 C-103.34 103.67 -102.68 103.34 -102 103 C-102.04125 102.278125 -102.0825 101.55625 -102.125 100.8125 C-101.98965972 97.76734381 -101.12313428 95.8078357 -100 93 C-99.83201738 90.29113059 -99.83201738 90.29113059 -100 88 C-100.33 88.33 -100.66 88.66 -101 89 C-101.99 89.33 -102.98 89.66 -104 90 C-104 90.66 -104 91.32 -104 92 C-105.0725 92.12375 -106.145 92.2475 -107.25 92.375 C-111.43478835 93.03257941 -111.43478835 93.03257941 -115 95 C-116.1341403 97.62627991 -116.1341403 97.62627991 -116.75 100.625 C-116.99234375 101.62789063 -117.2346875 102.63078125 -117.484375 103.6640625 C-117.65453125 104.43492188 -117.8246875 105.20578125 -118 106 C-118.33 104.68 -118.66 103.36 -119 102 C-121.2988401 101.40998293 -123.60083006 100.86648221 -125.91796875 100.3515625 C-133.95865583 98.56474315 -141.61402356 96.69298822 -149 93 C-150.485 97.95 -150.485 97.95 -152 103 C-152.99 103 -153.98 103 -155 103 C-154.5875 101.9275 -154.175 100.855 -153.75 99.75 C-152.44716172 96.30202334 -151.30246371 92.82533545 -150.1875 89.3125 C-147.99002876 82.66069518 -145.34435669 76.16317161 -142 70 C-141.01 69.505 -141.01 69.505 -140 69 C-139.32438252 67.3369416 -138.66066719 65.66905395 -138 64 C-133.56784493 55.28392246 -133.56784493 55.28392246 -131 54 C-130.67 53.01 -130.34 52.02 -130 51 C-128.71340837 49.62150897 -127.37086915 48.29470975 -126 47 C-125.195625 46.195625 -124.39125 45.39125 -123.5625 44.5625 C-121.04166667 42.04166667 -118.52083333 39.52083333 -116 37 C-115.278125 36.236875 -114.55625 35.47375 -113.8125 34.6875 C-83.8058719 6.01449981 -40.77340532 -6.11354566 0 0 Z M-15 15 C-14.67 15.66 -14.34 16.32 -14 17 C-13.34 16.67 -12.68 16.34 -12 16 C-12.99 15.67 -13.98 15.34 -15 15 Z M-93 108 C-92 110 -92 110 -92 110 Z " fill="#2063BE" transform="translate(173,16)"/>
<path d="M0 0 C0.886875 0.4125 1.77375 0.825 2.6875 1.25 C10.89717675 4.73994356 19.22679575 7.35144627 28.171875 7.7265625 C28.77515625 7.81679687 29.3784375 7.90703125 30 8 C31.48268352 10.96536703 30.8130987 13.84067234 30.5625 17.0625 C29.10097032 40.56261777 28.78333096 63.11418631 35 86 C35.21930176 86.82483887 35.43860352 87.64967773 35.66455078 88.49951172 C40.46743318 105.97336924 49.19400733 122.68991505 60.9375 136.5 C63 139 63 139 63 141 C63.66 141 64.32 141 65 141 C65.804375 141.969375 66.60875 142.93875 67.4375 143.9375 C71.67233445 149.0357473 76.78274201 152.95224816 82 157 C83.30130859 158.02480469 83.30130859 158.02480469 84.62890625 159.0703125 C99.65995628 170.49480656 115.72718611 178.1489979 135 177 C136.73038533 176.91877573 138.46086366 176.83952032 140.19140625 176.76171875 C145.12917355 176.5334606 150.06452028 176.27310955 155 176 C155 176.33 155 176.66 155 177 C146.05271005 178.6152646 137.4005811 179.35620488 128.3125 179.3125 C126.47993652 179.30512817 126.47993652 179.30512817 124.61035156 179.29760742 C102.81454731 179.01717843 83.59474025 173.24525313 64 164 C63.19433594 163.62488281 62.38867188 163.24976563 61.55859375 162.86328125 C54.04464036 159.02788569 47.41234437 153.50921935 40.76367188 148.36279297 C39.21370344 147.16512909 37.64715672 145.98898477 36.078125 144.81640625 C34 143 34 143 33 140 C32.175 139.690625 31.35 139.38125 30.5 139.0625 C29.675 138.711875 28.85 138.36125 28 138 C27.6278958 136.67696283 27.29369827 135.34262065 27 134 C26.34 133.67 25.68 133.34 25 133 C23 132 23 132 22.25 129.875 C22.12625 128.946875 22.12625 128.946875 22 128 C21.34 128 20.68 128 20 128 C18.37374905 125.8880257 16.89426543 123.7885592 15.4375 121.5625 C15.00002441 120.89887451 14.56254883 120.23524902 14.11181641 119.55151367 C10.79806404 114.43074747 7.76059166 109.18512738 4.875 103.8125 C4.48497803 103.09457275 4.09495605 102.37664551 3.69311523 101.63696289 C1.84134494 98.1002371 1 96.06731126 1 92 C0.34 91.67 -0.32 91.34 -1 91 C-1.74609375 88.91796875 -1.74609375 88.91796875 -2.4375 86.1875 C-2.69273438 85.18203125 -2.94796875 84.1765625 -3.2109375 83.140625 C-3.47132812 82.10421875 -3.73171875 81.0678125 -4 80 C-4.26039062 79.08734375 -4.52078125 78.1746875 -4.7890625 77.234375 C-9.53185035 60.08368762 -9.65878449 42.48987846 -8.1875 24.875 C-8.11756836 23.96129639 -8.04763672 23.04759277 -7.97558594 22.10620117 C-7.54008998 17.46192312 -7.19443495 14.57025082 -4 11 C-3.04847937 8.46246443 -3.04847937 8.46246443 -2.375 5.8125 C-1.08853119 1.08853119 -1.08853119 1.08853119 0 0 Z " fill="#0A56A9" transform="translate(24,108)"/>
<path d="M0 0 C5.97732771 -0.09931654 11.9541688 -0.17167995 17.93212891 -0.21972656 C19.96313857 -0.23976836 21.99409106 -0.26700947 24.02490234 -0.30175781 C26.95424556 -0.35060414 29.882822 -0.37304343 32.8125 -0.390625 C33.71178223 -0.41127014 34.61106445 -0.43191528 35.53759766 -0.45318604 C41.51146 -0.45528399 46.02372903 0.58775848 51 4 C55.66428098 9.02307183 56.36580559 12.28799228 56.26953125 18.9921875 C55.4628412 27.99438081 50.81356492 35.22448225 44 41 C35.07223717 46.53687283 26.52873897 49.35818099 16.0625 49.125 C15.28326172 49.11597656 14.50402344 49.10695312 13.70117188 49.09765625 C11.80064553 49.07433691 9.90027992 49.03847586 8 49 C7.81824219 49.67804688 7.63648438 50.35609375 7.44921875 51.0546875 C7.19785156 51.98539063 6.94648437 52.91609375 6.6875 53.875 C6.28144531 55.37933594 6.28144531 55.37933594 5.8671875 56.9140625 C5.07923598 59.71803411 4.20775364 62.47897684 3.3125 65.25 C1.92051082 69.82680212 0.75948691 74.51897382 3 79 C-6.24 79 -15.48 79 -25 79 C-23.68 77.35 -22.36 75.7 -21 74 C-20.03249899 72.14330269 -20.03249899 72.14330269 -19.4375 70.28515625 C-19.20039307 69.60678711 -18.96328613 68.92841797 -18.71899414 68.22949219 C-18.48172607 67.51438477 -18.24445801 66.79927734 -18 66.0625 C-17.6121936 64.92989746 -17.6121936 64.92989746 -17.21655273 63.77441406 C-15.32913801 58.18809023 -13.69584312 52.54752504 -12.12890625 46.86328125 C-10.74700417 42.00257392 -9.11187719 37.22572342 -7.5 32.4375 C-7.04560547 31.08011719 -7.04560547 31.08011719 -6.58203125 29.6953125 C-4.26015404 22.75996621 -4.26015404 22.75996621 -3.29345703 19.93603516 C-2.70436234 18.21144568 -2.1327109 16.48092489 -1.5625 14.75 C-1.25441406 13.83734375 -0.94632813 12.9246875 -0.62890625 11.984375 C-0.05770391 9.27382475 0.06437183 7.06410812 0.03930664 4.31347656 C0.03363174 3.50509338 0.02795685 2.69671021 0.02210999 1.86383057 C0.01481369 1.24876648 0.0075174 0.63370239 0 0 Z " fill="#F9FBFD" transform="translate(96,111)"/>
<path d="M0 0 C0 0.33 0 0.66 0 1 C-0.76441406 0.9685791 -1.52882812 0.9371582 -2.31640625 0.90478516 C-23.93997774 0.09329783 -23.93997774 0.09329783 -44 7 C-44.6585498 7.33209473 -45.31709961 7.66418945 -45.99560547 8.00634766 C-78.1828436 24.30185117 -101.31293775 52.36103081 -112.90234375 86.3828125 C-114.86687045 92.85666204 -116.46852101 99.41207363 -118 106 C-118.33 104.68 -118.66 103.36 -119 102 C-121.2988401 101.40998293 -123.60083006 100.86648221 -125.91796875 100.3515625 C-133.95865583 98.56474315 -141.61402356 96.69298822 -149 93 C-150.485 97.95 -150.485 97.95 -152 103 C-152.99 103 -153.98 103 -155 103 C-154.5875 101.9275 -154.175 100.855 -153.75 99.75 C-152.44716172 96.30202334 -151.30246371 92.82533545 -150.1875 89.3125 C-147.99002876 82.66069518 -145.34435669 76.16317161 -142 70 C-141.01 69.505 -141.01 69.505 -140 69 C-139.32438252 67.3369416 -138.66066719 65.66905395 -138 64 C-133.56784493 55.28392246 -133.56784493 55.28392246 -131 54 C-130.67 53.01 -130.34 52.02 -130 51 C-128.71340837 49.62150897 -127.37086915 48.29470975 -126 47 C-125.195625 46.195625 -124.39125 45.39125 -123.5625 44.5625 C-121.04166667 42.04166667 -118.52083333 39.52083333 -116 37 C-115.278125 36.236875 -114.55625 35.47375 -113.8125 34.6875 C-83.8058719 6.01449981 -40.77340532 -6.11354566 0 0 Z " fill="#B7DAF7" transform="translate(173,16)"/>
<path d="M0 0 C0.886875 0.4125 1.77375 0.825 2.6875 1.25 C10.89717675 4.73994356 19.22679575 7.35144627 28.171875 7.7265625 C28.77515625 7.81679687 29.3784375 7.90703125 30 8 C31.48239696 10.96479391 30.8145216 13.84113305 30.5625 17.0625 C30.00059145 25.59880475 29.85310165 34.13199498 29.82174683 42.68405151 C29.81565329 44.12785872 29.80591456 45.57165582 29.79226685 47.01541138 C29.7221187 54.96403713 29.98417139 62.60937666 31.55688477 70.42919922 C32.22822593 74.32408764 32.13141936 78.05741906 32 82 C31.01 82.33 30.02 82.66 29 83 C28.01 82.01 28.01 82.01 27 81 C26.01 81 25.02 81 24 81 C23.01 80.67 22.02 80.34 21 80 C20.67 80.66 20.34 81.32 20 82 C19.01 82 18.02 82 17 82 C16.505 81.01 16.505 81.01 16 80 C14.515 80.495 14.515 80.495 13 81 C9.16672239 80.48198951 5.65854933 79.21951644 2 78 C0.33911955 77.63893903 -1.32618981 77.29537827 -3 77 C-3.33 77.99 -3.66 78.98 -4 80 C-9.32318115 61.90118411 -9.74831167 43.56173808 -8.1875 24.875 C-8.11756836 23.96129639 -8.04763672 23.04759277 -7.97558594 22.10620117 C-7.54008998 17.46192312 -7.19443495 14.57025082 -4 11 C-3.04847937 8.46246443 -3.04847937 8.46246443 -2.375 5.8125 C-1.08853119 1.08853119 -1.08853119 1.08853119 0 0 Z " fill="#0575D7" transform="translate(24,108)"/>
<path d="M0 0 C0.928125 0.185625 1.85625 0.37125 2.8125 0.5625 C3.534375 0.706875 4.25625 0.85125 5 1 C5.495 2.485 5.495 2.485 6 4 C6.99 4 7.98 4 9 4 C11.625 5.5625 11.625 5.5625 14 8 C14.75 11.625 14.75 11.625 15 15 C15.495 15.99 15.495 15.99 16 17 C14.625 18.5 14.625 18.5 13 20 C12.34 20 11.68 20 11 20 C10.731875 20.5775 10.46375 21.155 10.1875 21.75 C9 24 9 24 7.7109375 25.671875 C5.39732222 28.8200821 3.43435547 32.14476161 1.4375 35.5 C1.03853516 36.16386719 0.63957031 36.82773438 0.22851562 37.51171875 C-1.63196096 40.62390161 -3.45077671 43.71732147 -5 47 C-5.66 47 -6.32 47 -7 47 C-7.2475 47.70125 -7.495 48.4025 -7.75 49.125 C-9.16088026 52.37002459 -10.97895398 55.10316737 -13 58 C-11.68 58.66 -10.36 59.32 -9 60 C-27.81 60.495 -27.81 60.495 -47 61 C-47 63.64 -47 66.28 -47 69 C-50.01543303 66.80695779 -50.927579 64.08537746 -51.71484375 60.51953125 C-52.55995708 53.05243404 -52.05461173 46.36039367 -48 40 C-48.29369827 38.65737935 -48.6278958 37.32303717 -49 36 C-48.0625 33.25 -48.0625 33.25 -47 31 C-46.34 31 -45.68 31 -45 31 C-43.5393715 28.35261084 -43 27.10551666 -43 24 C-42.38125 23.938125 -41.7625 23.87625 -41.125 23.8125 C-38.72238859 23.171081 -38.72238859 23.171081 -37.75 20.4375 C-37.37875 19.2309375 -37.37875 19.2309375 -37 18 C-36.34 18 -35.68 18 -35 18 C-35 17.34 -35 16.68 -35 16 C-28.88889471 9.54758298 -21.53746395 4.49009365 -13 2 C-11.64510335 1.43926059 -10.29097624 0.87665926 -8.9375 0.3125 C-5.53843031 -0.97345982 -3.53102398 -1.14519697 0 0 Z " fill="#246FD1" transform="translate(144,51)"/>
<path d="M0 0 C0.87043945 0.00128906 1.74087891 0.00257812 2.63769531 0.00390625 C9.22631854 0.10213395 14.88095551 1.10871959 21.125 3.3125 C20.465 6.2825 19.805 9.2525 19.125 12.3125 C14.94456094 12.3125 13.90342094 11.82172953 10.4375 9.8125 C4.75145432 6.88180685 0.24084603 6.05509732 -5.93359375 7.94140625 C-16.2064133 12.40697888 -22.82103183 22.10955534 -27.0625 32.11328125 C-30.32858924 40.79483463 -32.23537714 48.73641509 -32.25 58 C-32.27449219 58.82822266 -32.29898438 59.65644531 -32.32421875 60.50976562 C-32.34403695 64.63525499 -32.22082355 66.76245555 -29.9765625 70.33203125 C-27.04645065 73.09330766 -25.16614805 73.4833852 -21.25 73.875 C-20.02410156 74.00068359 -20.02410156 74.00068359 -18.7734375 74.12890625 C-18.14695313 74.18949219 -17.52046875 74.25007813 -16.875 74.3125 C-16.63716797 73.27416016 -16.63716797 73.27416016 -16.39453125 72.21484375 C-14.63698015 64.84478142 -12.40402365 57.78772563 -9.86328125 50.66015625 C-8.9592447 47.59786643 -8.49706007 45.4619994 -8.875 42.3125 C-9.535 41.3225 -10.195 40.3325 -10.875 39.3125 C-1.635 39.3125 7.605 39.3125 17.125 39.3125 C15.805 41.2925 14.485 43.2725 13.125 45.3125 C12.14783272 47.43010938 12.14783272 47.43010938 11.52734375 49.484375 C11.16346558 50.59800415 11.16346558 50.59800415 10.79223633 51.73413086 C10.43101685 52.88667358 10.43101685 52.88667358 10.0625 54.0625 C9.80428467 54.8572876 9.54606934 55.6520752 9.2800293 56.47094727 C7.67830143 61.43311337 6.17211953 66.41646754 4.86328125 71.46484375 C3.94542454 73.76191371 3.08467982 74.79213302 1.125 76.3125 C-11.55554211 81.68875323 -24.90763004 83.5488903 -37.875 78.3125 C-44.79906062 74.52386306 -49.1474976 69.51000809 -51.375 61.9921875 C-53.97418085 48.06220264 -51.32347233 34.24281543 -43.875 22.3125 C-32.76711609 7.44535136 -18.39416001 -0.11367577 0 0 Z " fill="#F9FAFC" transform="translate(235.875,109.6875)"/>
<path d="M0 0 C2.41537591 1.64840821 3.76330207 3.45829341 4.52734375 6.27734375 C4.86968501 10.53839987 4.19183778 13.52749334 1.5859375 16.9375 C-2.23148836 20.85538444 -6.98266248 23.21404891 -12.0390625 25.1875 C-12.6990625 25.1875 -13.3590625 25.1875 -14.0390625 25.1875 C-12.98420199 31.30846691 -11.38689224 35.94256674 -8.0390625 41.1875 C-5.62784391 39.23116025 -5.62784391 39.23116025 -5.9140625 35.5625 C-5.9553125 34.44875 -5.9965625 33.335 -6.0390625 32.1875 C-3.0690625 32.1875 -0.0990625 32.1875 2.9609375 32.1875 C2.61898884 36.37637111 2.08224772 39.31839402 -0.1015625 42.9375 C-2.29509477 45.98635637 -2.29509477 45.98635637 -2.0390625 49.1875 C2.96241685 53.61536904 8.7196499 56.88093719 14.9609375 59.1875 C14.9609375 59.5175 14.9609375 59.8475 14.9609375 60.1875 C11.75309029 60.33372024 8.54610789 60.42186651 5.3359375 60.5 C4.43230469 60.54189453 3.52867187 60.58378906 2.59765625 60.62695312 C-1.99490075 60.71075891 -5.06438741 60.68722924 -8.6875 57.66796875 C-9.46351563 56.84941406 -10.23953125 56.03085938 -11.0390625 55.1875 C-13.57070172 56.19833436 -16.09950269 57.21259183 -18.6171875 58.2578125 C-25.85393068 61.11442165 -31.78158676 62.6612416 -39.2890625 60.0625 C-43.4687614 57.2127053 -46.40770574 54.08157029 -48.0390625 49.1875 C-48.56828204 44.63274165 -48.51548189 41.15939556 -46.4765625 37 C-41.96836421 31.79823274 -38.44868943 28.4971075 -31.7265625 26.625 C-29.09959095 25.82322486 -29.09959095 25.82322486 -27.0390625 24.1875 C-26.00083585 20.91619102 -25.72122283 17.87320753 -25.4375 14.45703125 C-24.77919698 9.05507413 -22.51066749 5.45260014 -18.54296875 1.81640625 C-13.21482197 -1.87624224 -5.98994421 -2.38679769 0 0 Z " fill="#F5F8FC" transform="translate(177.0390625,129.8125)"/>
<path d="M0 0 C1.37431543 0.19245351 2.74925619 0.38053789 4.125 0.5625 C5.07375 0.706875 6.0225 0.85125 7 1 C7.8125 2.6875 7.8125 2.6875 8 5 C5.37704591 8.22248645 3.24719909 10.56063458 -1 11 C-1.66 11 -2.32 11 -3 11 C-3.33 11.99 -3.66 12.98 -4 14 C-5.33333333 14.66666667 -6.66666667 15.33333333 -8 16 C-8.495 17.485 -8.495 17.485 -9 19 C-9.99 19 -10.98 19 -12 19 C-12.33 19.66 -12.66 20.32 -13 21 C-15.32375692 21.39460023 -17.6593935 21.72230092 -20 22 C-21.33917261 22.30903983 -22.67653254 22.62942911 -24 23 C-24 22.34 -24 21.68 -24 21 C-26.97065509 21.34227572 -26.97065509 21.34227572 -30 22 C-30.33 22.66 -30.66 23.32 -31 24 C-31.99 24 -32.98 24 -34 24 C-35.69672386 25.29486821 -37.3603279 26.63360658 -39 28 C-43.60714286 31 -43.60714286 31 -46 31 C-46 31.66 -46 32.32 -46 33 C-46.969375 33.639375 -47.93875 34.27875 -48.9375 34.9375 C-52.24255225 36.71061007 -52.24255225 36.71061007 -53 40 C-58.46511628 45 -58.46511628 45 -61 45 C-61.33 46.65 -61.66 48.3 -62 50 C-62.61875 50.04125 -63.2375 50.0825 -63.875 50.125 C-64.57625 50.41375 -65.2775 50.7025 -66 51 C-66.72433347 52.97984481 -67.37743972 54.98583438 -68 57 C-70.12766454 60.79684244 -72.58704981 64.38057472 -75 68 C-75.39387788 70.32387947 -75.73486085 72.65793749 -76 75 C-76.66 75 -77.32 75 -78 75 C-78.12375 75.886875 -78.2475 76.77375 -78.375 77.6875 C-78.95207876 80.74601742 -79.57873595 83.23643102 -81 86 C-82.485 86.495 -82.485 86.495 -84 87 C-83.67 87.66 -83.34 88.32 -83 89 C-83.99 89 -84.98 89 -86 89 C-86 89.66 -86 90.32 -86 91 C-87.6396875 91.2165625 -87.6396875 91.2165625 -89.3125 91.4375 C-92.93122987 91.88288104 -92.93122987 91.88288104 -96 93 C-97.72391073 88.91216378 -96.09556528 85.62662542 -94.5625 81.75 C-94.28809082 81.04544678 -94.01368164 80.34089355 -93.73095703 79.61499023 C-79.51062424 43.92933079 -53.84425886 16.92499237 -18.60546875 1.515625 C-12.0061662 -0.95805452 -6.88712663 -1.30393103 0 0 Z " fill="#2A56A5" transform="translate(155,17)"/>
<path d="M0 0 C1.32 0 2.64 0 4 0 C5.75 2 5.75 2 7 4 C7.66 3.67 8.32 3.34 9 3 C10.38099327 8.91425379 9.66621738 11.62261812 6.5 16.75 C5.95013428 17.65516357 5.95013428 17.65516357 5.38916016 18.57861328 C4.27740677 20.39762799 3.14061025 22.19898346 2 24 C1.37867188 25.01320313 0.75734375 26.02640625 0.1171875 27.0703125 C-7.77389706 39.77389706 -7.77389706 39.77389706 -13 45 C-15.24658203 45.22705078 -15.24658203 45.22705078 -18.0078125 45.1953125 C-18.99394531 45.18886719 -19.98007813 45.18242188 -20.99609375 45.17578125 C-22.02863281 45.15902344 -23.06117187 45.14226562 -24.125 45.125 C-25.16527344 45.11597656 -26.20554687 45.10695312 -27.27734375 45.09765625 C-29.85179092 45.07403747 -32.42578212 45.04110149 -35 45 C-34.01 44.505 -34.01 44.505 -33 44 C-33.33 43.236875 -33.66 42.47375 -34 41.6875 C-35 39 -35 39 -35 36 C-34.34 36 -33.68 36 -33 36 C-33.103125 35.195625 -33.20625 34.39125 -33.3125 33.5625 C-32.71005484 26.69462512 -28.38306579 21.13876679 -24 16 C-23.34 15.01 -22.68 14.02 -22 13 C-19.22668799 9.42388715 -17.16350108 6.8041838 -13 5 C-12.56171875 4.50113281 -12.1234375 4.00226563 -11.671875 3.48828125 C-9.53638213 1.58729343 -8.19545096 1.5495556 -5.375 1.375 C-2.38851817 1.39122227 -2.38851817 1.39122227 0 0 Z " fill="#2A7ADD" transform="translate(139,64)"/>
<path d="M0 0 C1.2065625 0.556875 1.2065625 0.556875 2.4375 1.125 C6.06749012 2.01657652 6.73581233 1.93070162 10.0625 0.875 C15.48602923 -0.56037289 19.43468778 1.11527545 24.6015625 2.921875 C27.97341367 3.99156572 31.12165553 4.5506399 34.625 5 C39.96588755 5.71598855 44.56276043 7.15171959 49.5625 9.12109375 C52.66605963 10.24016573 55.73403545 10.60808425 59 11 C59.77472656 11.32613281 60.54945313 11.65226562 61.34765625 11.98828125 C64.18716885 13.0713943 66.53879301 13.36484461 69.5625 13.5625 C76.47472067 14.03226257 76.47472067 14.03226257 79 15 C79.495 16.485 79.495 16.485 80 18 C79.34 18 78.68 18 78 18 C78 18.66 78 19.32 78 20 C74.25073924 20.34199953 70.50050426 20.67194171 66.75 21 C65.18378906 21.14308594 65.18378906 21.14308594 63.5859375 21.2890625 C43.2443148 23.04698051 43.2443148 23.04698051 33.6875 20 C32.97456787 19.77997314 32.26163574 19.55994629 31.52709961 19.33325195 C19.85550907 15.52536164 8.95997976 9.45400444 0 1 C0 0.67 0 0.34 0 0 Z " fill="#00155E" transform="translate(105,264)"/>
<path d="M0 0 C2.71224618 1.61268692 5.37352812 3.24901874 8 5 C14.77439246 7.40867287 21.89953295 8.0742803 29 9 C30.19784792 12.48335596 29.78454679 14.69506025 28.78515625 18.203125 C28.51123047 19.1828125 28.23730469 20.1625 27.95507812 21.171875 C27.66052734 22.18765625 27.36597656 23.2034375 27.0625 24.25 C26.77181641 25.28125 26.48113281 26.3125 26.18164062 27.375 C25.46311846 29.9192752 24.73563156 32.46062901 24 35 C23.505 33.02 23.505 33.02 23 31 C20.7011599 30.40998293 18.39916994 29.86648221 16.08203125 29.3515625 C8.04134417 27.56474315 0.38597644 25.69298822 -7 22 C-7.99 25.3 -8.98 28.6 -10 32 C-10.99 32 -11.98 32 -13 32 C-12.5875 30.9275 -12.175 29.855 -11.75 28.75 C-10.43767515 25.28302087 -9.29943449 21.78585864 -8.1875 18.25 C-6.08388185 11.83273686 -3.16606235 5.95219721 0 0 Z " fill="#62AEEE" transform="translate(31,87)"/>
<path d="M0 0 C1.37479 0.18903362 2.74976488 0.37673235 4.125 0.5625 C5.07375 0.706875 6.0225 0.85125 7 1 C7.8125 2.6875 7.8125 2.6875 8 5 C5.37704591 8.22248645 3.24719909 10.56063458 -1 11 C-1.66 11 -2.32 11 -3 11 C-3.33 11.99 -3.66 12.98 -4 14 C-5.33333333 14.66666667 -6.66666667 15.33333333 -8 16 C-8.33 16.99 -8.66 17.98 -9 19 C-9.99 19 -10.98 19 -12 19 C-12.33 19.66 -12.66 20.32 -13 21 C-15.32375692 21.39460023 -17.6593935 21.72230092 -20 22 C-21.33917261 22.30903983 -22.67653254 22.62942911 -24 23 C-24 22.34 -24 21.68 -24 21 C-24.680625 21.20625 -25.36125 21.4125 -26.0625 21.625 C-29.79278736 22.1012069 -32.44967926 21.13878212 -36 20 C-36.66 20 -37.32 20 -38 20 C-39 17 -39 17 -38 14 C-37.34 13.34 -36.68 12.68 -36 12 C-35.13955078 11.04287109 -35.13955078 11.04287109 -34.26171875 10.06640625 C-29.94276406 6.12041828 -24.33695677 4.25310203 -19 2 C-18.175 1.64164063 -17.35 1.28328125 -16.5 0.9140625 C-10.74307713 -1.32702533 -6.02487423 -1.00084259 0 0 Z " fill="#0E44A1" transform="translate(155,17)"/>
<path d="M0 0 C4.25042938 0.90598721 8.45242699 1.83950446 12.625 3.0625 C16.08850883 4.02458579 19.43711347 4.54654171 23 5 C24.60875 5.2784375 24.60875 5.2784375 26.25 5.5625 C29.02969287 6.07855752 29.02969287 6.07855752 32 6 C32.99 6 33.98 6 35 6 C35 4.35 35 2.7 35 1 C35.33 1 35.66 1 36 1 C37.34495828 8.09705662 38.24091535 14.7725395 38 22 C37.01 22.33 36.02 22.66 35 23 C34.34 22.34 33.68 21.68 33 21 C32.01 21 31.02 21 30 21 C29.01 20.67 28.02 20.34 27 20 C26.67 20.66 26.34 21.32 26 22 C25.01 22 24.02 22 23 22 C22.67 21.34 22.34 20.68 22 20 C21.01 20.33 20.02 20.66 19 21 C15.16672239 20.48198951 11.65854933 19.21951644 8 18 C6.33911955 17.63893903 4.67381019 17.29537827 3 17 C2.67 17.99 2.34 18.98 2 20 C1.49095343 18.12743583 0.99317545 16.25180659 0.5 14.375 C0.08234375 12.80878906 0.08234375 12.80878906 -0.34375 11.2109375 C-1.13903737 7.31971002 -1.82186975 3.64373949 0 0 Z " fill="#0669C6" transform="translate(18,168)"/>
<path d="M0 0 C1.43601689 -0.03560372 2.87228996 -0.06097024 4.30859375 -0.08203125 C5.10837646 -0.0972583 5.90815918 -0.11248535 6.73217773 -0.12817383 C9 0 9 0 12.0625 1.3125 C15.20631528 5.67327603 14.70812089 9.81385748 14 15 C12.19979263 23.15124952 8.39610024 29.58058546 2 35 C-1.2148374 36.60236392 -3.73429892 37.24629495 -7.3125 37.125 C-8.529375 37.08375 -9.74625 37.0425 -11 37 C-8.80673246 28.70555658 -6.3564213 20.50549067 -3.8125 12.3125 C-3.44447266 11.12205078 -3.07644531 9.93160156 -2.69726562 8.70507812 C-1.79979847 5.80287914 -0.90068232 2.90120245 0 0 Z " fill="#1864BA" transform="translate(117,117)"/>
<path d="M0 0 C0.721875 0.391875 1.44375 0.78375 2.1875 1.1875 C2.79016232 10.29439727 1.77419296 16.04900812 -4.25 23 C-9.77272976 27.7145254 -15.09885112 29.86174133 -22.375 30.5 C-26.1587255 30.15602495 -28.55564477 29.09395184 -31.8125 27.1875 C-32.4725 27.8475 -33.1325 28.5075 -33.8125 29.1875 C-33.33656444 24.90407993 -30.86488315 23.03176611 -27.8125 20.1875 C-26.575 18.95 -26.575 18.95 -25.3125 17.6875 C-24.4875 16.8625 -23.6625 16.0375 -22.8125 15.1875 C-21.7296875 14.0428125 -21.7296875 14.0428125 -20.625 12.875 C-5.49107143 -1.58630952 -5.49107143 -1.58630952 0 0 Z " fill="#C9E3F9" transform="translate(79.8125,37.8125)"/>
<path d="M0 0 C0.99 0.66 1.98 1.32 3 2 C4.33568021 1.67619874 5.66923011 1.34342449 7 1 C7.66 1.66 8.32 2.32 9 3 C8.34 3 7.68 3 7 3 C7.495 3.433125 7.99 3.86625 8.5 4.3125 C10 6 10 6 10 9 C9.34 9 8.68 9 8 9 C8 9.99 8 10.98 8 12 C8.61875 12.12375 9.2375 12.2475 9.875 12.375 C12 13 12 13 14 15 C13.625 17.625 13.625 17.625 13 20 C8.93631321 20.77403558 5.13574827 21.0984702 1 21 C1 21.66 1 22.32 1 23 C2.32 23.33 3.64 23.66 5 24 C5.33 25.65 5.66 27.3 6 29 C1.4497712 30.22079309 -0.58982365 29.76485555 -4.72265625 27.703125 C-9.89795801 26.10526168 -15.6402467 26.79928802 -21 27 C-20.81695312 26.38253906 -20.63390625 25.76507813 -20.4453125 25.12890625 C-19.86972622 22.37719991 -20.61546279 21.38448074 -22 19 C-22.33 18.01 -22.66 17.02 -23 16 C-19.54229241 12.81890902 -16.57045226 12.57130653 -12 12 C-9.66411677 11.04415562 -9.66411677 11.04415562 -8 10 C-8 9.01 -8 8.02 -8 7 C-7.01 7 -6.02 7 -5 7 C-4.67 6.34 -4.34 5.68 -4 5 C-1.9375 3.875 -1.9375 3.875 0 3 C0 2.01 0 1.02 0 0 Z M4 6 C4.33 6.66 4.66 7.32 5 8 C5.66 7.67 6.32 7.34 7 7 C6.01 6.67 5.02 6.34 4 6 Z " fill="#1562CB" transform="translate(154,25)"/>
<path d="M0 0 C0.763125 0.33 1.52625 0.66 2.3125 1 C4.99069135 2.17436686 4.99069135 2.17436686 8 2 C8.33 1.34 8.66 0.68 9 0 C11.91280837 1.30574169 13.80294493 2.7074208 16 5 C16.99 5.66 17.98 6.32 19 7 C19 7.66 19 8.32 19 9 C21.475 9.99 21.475 9.99 24 11 C22.40900848 12.75009068 21.15728476 13.92627277 19 14.9375 C16.5817794 16.22217969 15.50337314 17.7449403 14 20 C13.34 19.01 12.68 18.02 12 17 C11.505 18.485 11.505 18.485 11 20 C11.33 20.33 11.66 20.66 12 21 C11.01 21.495 11.01 21.495 10 22 C10.495 23.485 10.495 23.485 11 25 C9.625 26.5 9.625 26.5 8 28 C7.34 28 6.68 28 6 28 C5.505 30.475 5.505 30.475 5 33 C5.99 33.495 5.99 33.495 7 34 C4.66666667 36.33333333 2.33333333 38.66666667 0 41 C0 42.32 0 43.64 0 45 C-1.375 47.25 -1.375 47.25 -3 49 C-3.66 49 -4.32 49 -5 49 C-5 49.99 -5 50.98 -5 52 C-5.99 52.66 -6.98 53.32 -8 54 C-8.72574219 54.87011719 -9.45148438 55.74023438 -10.19921875 56.63671875 C-13 59 -13 59 -16.76953125 59.26953125 C-18.11998303 59.14436743 -19.46810131 58.99132432 -20.8125 58.8125 C-21.50537109 58.74224609 -22.19824219 58.67199219 -22.91210938 58.59960938 C-24.61074484 58.42388847 -26.3059164 58.2152232 -28 58 C-28 57.67 -28 57.34 -28 57 C-25.03 57 -22.06 57 -19 57 C-18.62875 55.948125 -18.62875 55.948125 -18.25 54.875 C-16.82819762 51.60485452 -15.12753712 48.858878 -13 46 C-12.34 46 -11.68 46 -11 46 C-10.88068115 45.41661865 -10.7613623 44.8332373 -10.63842773 44.23217773 C-9.9737519 41.90822701 -9.09736091 40.30606216 -7.78515625 38.28515625 C-7.34623047 37.59873047 -6.90730469 36.91230469 -6.45507812 36.20507812 C-5.99552734 35.49802734 -5.53597656 34.79097656 -5.0625 34.0625 C-0.98147764 27.81875271 -0.98147764 27.81875271 2 21 C2.66 21 3.32 21 4 21 C7.26668124 17.73331876 7.75779748 14.52111374 8 10 C6.94048735 6.53250405 5.07293974 4.86238772 2 3 C1.01 3 0.02 3 -1 3 C-0.67 2.01 -0.34 1.02 0 0 Z " fill="#0C6AD8" transform="translate(150,52)"/>
<path d="M0 0 C1.98 0.66 3.96 1.32 6 2 C6 2.66 6 3.32 6 4 C5.34 4 4.68 4 4 4 C4 4.99 4 5.98 4 7 C2 8 0 9 -2 10 C-3.051875 10.556875 -3.051875 10.556875 -4.125 11.125 C-6.06996173 12.03264881 -7.92262764 12.48065691 -10 13 C-10.680625 13.350625 -11.36125 13.70125 -12.0625 14.0625 C-14 15 -14 15 -17 15 C-17 15.66 -17 16.32 -17 17 C-17.66 17 -18.32 17 -19 17 C-19 17.66 -19 18.32 -19 19 C-19.66 19 -20.32 19 -21 19 C-21 19.66 -21 20.32 -21 21 C-21.7425 21.5775 -22.485 22.155 -23.25 22.75 C-26.26121289 25.21371963 -27.9174694 27.73736872 -30 31 C-31 32 -32 33 -33 34 C-33.515625 34.886875 -34.03125 35.77375 -34.5625 36.6875 C-35.036875 37.450625 -35.51125 38.21375 -36 39 C-36.66 39 -37.32 39 -38 39 C-37.67 40.32 -37.34 41.64 -37 43 C-37.66 43 -38.32 43 -39 43 C-38.938125 43.886875 -38.87625 44.77375 -38.8125 45.6875 C-39.0238801 49.42188173 -40.11301323 50.85502204 -42 54 C-42.2502157 57.08365871 -42.2502157 57.08365871 -42 60 C-42 63 -42 63 -43 65.9375 C-44.20693452 69.09679847 -44.20693452 69.09679847 -44 73 C-44.99 73 -45.98 73 -47 73 C-47.495 73.99 -47.495 73.99 -48 75 C-49.65 74.67 -51.3 74.34 -53 74 C-54.44958936 67.80630001 -53.27805544 63.84557623 -51 58 C-49.82564958 54.6151076 -48.83722362 51.3051065 -48.0625 47.8125 C-46.97738291 43.91884456 -46.64443613 43.58086796 -44 41 C-42.39070352 38.39973723 -40.90089186 35.7473878 -39.40234375 33.08203125 C-38.70818359 32.05142578 -38.70818359 32.05142578 -38 31 C-37.34 31 -36.68 31 -36 31 C-35.67 30.34 -35.34 29.68 -35 29 C-34.33333333 27.66666667 -33.66666667 26.33333333 -33 25 C-32.34 25 -31.68 25 -31 25 C-30.67 24.34 -30.34 23.68 -30 23 C-29.67 22.34 -29.34 21.68 -29 21 C-28.34 21 -27.68 21 -27 21 C-26.67 20.34 -26.34 19.68 -26 19 C-21.52941176 14.17647059 -21.52941176 14.17647059 -18 13 C-18 12.34 -18 11.68 -18 11 C-15.75598043 9.05124617 -13.66363467 7.33181733 -11 6 C-10.401875 5.690625 -9.80375 5.38125 -9.1875 5.0625 C-2.88235294 2 -2.88235294 2 0 2 C0 1.34 0 0.68 0 0 Z " fill="#225CB2" transform="translate(127,37)"/>
<path d="M0 0 C0.886875 0.4125 1.77375 0.825 2.6875 1.25 C10.89717675 4.73994356 19.22679575 7.35144627 28.171875 7.7265625 C28.77515625 7.81679687 29.3784375 7.90703125 30 8 C32.53135799 13.06271597 30.01809135 21.61866001 29 27 C28.01 26.67 27.02 26.34 26 26 C26 25.34 26 24.68 26 24 C25.34 24 24.68 24 24 24 C23.67 24.66 23.34 25.32 23 26 C22.34 25.34 21.68 24.68 21 24 C18.6114221 23.42534342 18.6114221 23.42534342 15.875 23.0625 C10.93311047 22.23670123 6.5926347 20.96827202 2 19 C1.32453125 18.71640625 0.6490625 18.4328125 -0.046875 18.140625 C-1.70280797 17.43850942 -3.35216928 16.72092594 -5 16 C-5 16.66 -5 17.32 -5 18 C-5.66 17.67 -6.32 17.34 -7 17 C-5.41066519 12.96553471 -3.7080396 8.98542574 -2 5 C-1.32723284 3.3357865 -0.65793165 1.67013418 0 0 Z " fill="#248EE7" transform="translate(24,108)"/>
<path d="M0 0 C1.13244141 -0.00386719 2.26488281 -0.00773438 3.43164062 -0.01171875 C9.36270259 -0.00481012 15.07399331 0.22071378 20.9375 1.125 C20.9375 1.455 20.9375 1.785 20.9375 2.125 C20.17308594 2.0935791 19.40867187 2.0621582 18.62109375 2.02978516 C-3.00247774 1.21829783 -3.00247774 1.21829783 -23.0625 8.125 C-23.7210498 8.45709473 -24.37959961 8.78918945 -25.05810547 9.13134766 C-34.90796174 14.11805595 -43.49661725 20.1871359 -52.0625 27.125 C-53.3905378 28.13202204 -54.7215432 29.13524617 -56.0625 30.125 C-56.56651841 27.60490794 -57.0703173 25.08493632 -57.5625 22.5625 C-57.97871075 20.1567628 -57.97871075 20.1567628 -58.875 18.125 C-59.0625 16.125 -59.0625 16.125 -57.5234375 13.69140625 C-54.61686657 10.66026799 -51.75766499 9.39947987 -47.875 8.0625 C-47.17882568 7.81282471 -46.48265137 7.56314941 -45.76538086 7.3059082 C-30.63625553 2.05571838 -15.97939802 -0.05475522 0 0 Z " fill="#8CC3F1" transform="translate(152.0625,14.875)"/>
<path d="M0 0 C1.546875 0.680625 1.546875 0.680625 3.125 1.375 C4.41622237 1.91772494 5.70787873 2.45941865 7 3 C8.36125 3.5878125 8.36125 3.5878125 9.75 4.1875 C15.35289817 5.58822454 21.49081049 5.8363965 27 4 C28.2109375 5.546875 28.2109375 5.546875 29 8 C27.99212459 10.60515164 26.96372907 12.82847536 25.625 15.25 C25.28210938 15.8996875 24.93921875 16.549375 24.5859375 17.21875 C23.73816328 18.82010131 22.87091321 20.41111444 22 22 C21.67 21.34 21.34 20.68 21 20 C20.43152344 20.01160156 19.86304687 20.02320312 19.27734375 20.03515625 C9.49556238 20.14946755 1.96872766 19.02081645 -6 13 C-7.375 10.75 -7.375 10.75 -8 9 C-7.34 9 -6.68 9 -6 9 C-5.7525 8.2575 -5.505 7.515 -5.25 6.75 C-3.90852699 3.79875938 -2.39094474 2.15185026 0 0 Z " fill="#80BEF1" transform="translate(39,76)"/>
<path d="M0 0 C0.33 0 0.66 0 1 0 C2.06469785 7.09370979 2.12018537 11.39960786 -1 18 C-0.95391476 19.6672013 -0.8901645 21.33397111 -0.8125 23 C-0.9765625 25.58203125 -0.9765625 25.58203125 -2 28 C-4.82221194 29.85789414 -7.53304517 31.19319124 -10.62329102 32.51635742 C-16.0577748 34.85557553 -18.62839225 37.22355569 -22 42 C-22.66 42.66 -23.32 43.32 -24 44 C-24.33 43.01 -24.66 42.02 -25 41 C-25.99 41.495 -25.99 41.495 -27 42 C-27 41.34 -27 40.68 -27 40 C-27.66386719 40.15597656 -28.32773438 40.31195313 -29.01171875 40.47265625 C-30.33623047 40.76462891 -30.33623047 40.76462891 -31.6875 41.0625 C-32.99267578 41.35833984 -32.99267578 41.35833984 -34.32421875 41.66015625 C-38.26486499 42.16064709 -41.27243724 41.24252092 -45 40 C-45.33 39.34 -45.66 38.68 -46 38 C-46.99 38.495 -46.99 38.495 -48 39 C-48.66 38.67 -49.32 38.34 -50 38 C-49.67 36.68 -49.34 35.36 -49 34 C-47.36804688 33.96132812 -47.36804688 33.96132812 -45.703125 33.921875 C-31.94038773 33.45211947 -19.61579296 31.24204852 -9.2890625 21.36328125 C-4.09598013 15.28711127 -2.21461993 7.52578809 0 0 Z " fill="#0958AD" transform="translate(153,126)"/>
<path d="M0 0 C1.32 0.33 2.64 0.66 4 1 C4 1.66 4 2.32 4 3 C4.66 3 5.32 3 6 3 C5.51662438 5.45171599 5.02379831 7.89629493 4.46484375 10.33203125 C2.71138703 18.57977211 2.81067872 26.61727459 3 35 C2.34 35 1.68 35 1 35 C0.67 34.34 0.34 33.68 0 33 C-0.99 33 -1.98 33 -3 33 C-2.67 30.69 -2.34 28.38 -2 26 C-5.96 26.495 -5.96 26.495 -10 27 C-9.938125 27.928125 -9.87625 28.85625 -9.8125 29.8125 C-10 33 -10 33 -11.51171875 34.69921875 C-12.00285156 35.12847656 -12.49398437 35.55773437 -13 36 C-17.11844576 30.42262143 -18.82316211 25.94490614 -19 19 C-18.19175781 18.63648438 -17.38351563 18.27296875 -16.55078125 17.8984375 C-6.93850889 13.55893369 -6.93850889 13.55893369 -1.26953125 5.06640625 C-0.76956228 3.39872452 -0.37407747 1.70035213 0 0 Z " fill="#0759AB" transform="translate(182,136)"/>
<path d="M0 0 C1.81838437 3.63676874 0.47650349 8.44053402 -0.6875 12.25 C-1.12187741 14.68251352 -0.16357525 15.8781863 1 18 C1 18.99 1 19.98 1 21 C1.66 21.33 2.32 21.66 3 22 C2.46375 22.639375 1.9275 23.27875 1.375 23.9375 C-0.39936846 27.88950247 0.41360373 29.81101004 1.51953125 33.859375 C2.11219122 36.49984382 1.64996701 38.40013196 1 41 C1.18304688 41.76183594 1.36609375 42.52367187 1.5546875 43.30859375 C2.07730117 46.46719745 1.56819489 48.29541532 0.5625 51.3125 C0.27503906 52.19550781 -0.01242188 53.07851562 -0.30859375 53.98828125 C-0.53675781 54.65214844 -0.76492187 55.31601563 -1 56 C-2.4606285 53.35261084 -3 52.10551666 -3 49 C-2.34 49 -1.68 49 -1 49 C-1.144375 48.45472656 -1.28875 47.90945312 -1.4375 47.34765625 C-2.81528597 41.75040076 -3.18287437 36.76054255 -3 31 C-4.65 31.33 -6.3 31.66 -8 32 C-8.33 30.68 -8.66 29.36 -9 28 C-9.66 28 -10.32 28 -11 28 C-11.33 28.66 -11.66 29.32 -12 30 C-12.66 29.67 -13.32 29.34 -14 29 C-14.33 29.66 -14.66 30.32 -15 31 C-16.64826111 28.03312999 -17.44271087 25.34373475 -18 22 C-17.34 21.67 -16.68 21.34 -16 21 C-16.04125 20.236875 -16.0825 19.47375 -16.125 18.6875 C-15.93628296 14.63008375 -13.3825658 12.14065492 -11 9 C-10.87625 9.639375 -10.7525 10.27875 -10.625 10.9375 C-10.41875 11.618125 -10.2125 12.29875 -10 13 C-9.34 13.33 -8.68 13.66 -8 14 C-7.67 13.01 -7.34 12.02 -7 11 C-5.26355267 6.94828955 -2.59832629 3.53055022 0 0 Z M-7 26 C-6 28 -6 28 -6 28 Z " fill="#0D5AC5" transform="translate(87,98)"/>
<path d="M0 0 C3.81305354 0.59578962 7.15412837 1.83875489 10.73828125 3.23828125 C14.06406222 4.35836292 17.44768873 4.96135683 20.8984375 5.5703125 C23 6 23 6 25 7 C26.66619446 7.0396713 28.33391013 7.04384447 30 7 C31.31534494 10.65857532 30.65468309 13.08026481 29.5625 16.75 C29.13130859 18.22726563 29.13130859 18.22726563 28.69140625 19.734375 C28.34916016 20.85585937 28.34916016 20.85585937 28 22 C27.505 20.02 27.505 20.02 27 18 C24.7011599 17.40998293 22.39916994 16.86648221 20.08203125 16.3515625 C12.04134417 14.56474315 4.38597644 12.69298822 -3 9 C-3.99 12.3 -4.98 15.6 -6 19 C-6.99 19 -7.98 19 -9 19 C-3.5625 4.24107143 -3.5625 4.24107143 0 0 Z " fill="#49A1EA" transform="translate(27,100)"/>
<path d="M0 0 C4.50240726 0 7.7323377 0.8789083 11 4 C11.8911044 6.76625047 11.90474161 9.04699006 12 12 C12.495 12.99 12.495 12.99 13 14 C11.625 15.5 11.625 15.5 10 17 C9.34 17 8.68 17 8 17 C7.731875 17.5775 7.46375 18.155 7.1875 18.75 C6 21 6 21 4.7109375 22.671875 C2.39732222 25.8200821 0.43435547 29.14476161 -1.5625 32.5 C-1.96146484 33.16386719 -2.36042969 33.82773438 -2.77148438 34.51171875 C-4.63196096 37.62390161 -6.45077671 40.71732147 -8 44 C-8.66 44 -9.32 44 -10 44 C-10.37125 45.051875 -10.37125 45.051875 -10.75 46.125 C-12.19944956 49.458734 -13.7004562 52.17484619 -16 55 C-18.63671875 55.16796875 -18.63671875 55.16796875 -21 55 C-20.125 53.6875 -19.25 52.375 -18.375 51.0625 C-17.82328125 50.23363281 -17.2715625 49.40476563 -16.703125 48.55078125 C-15.65593534 46.98239858 -14.60473913 45.41667145 -13.546875 43.85546875 C-3.25291213 30.44332092 -3.25291213 30.44332092 1 15 C0.01 15 -0.98 15 -2 15 C-3.125 13.25 -3.125 13.25 -4 11 C-3.36729133 9.65022151 -2.69937532 8.31647119 -2 7 C-2.29805007 4.80252869 -2.29805007 4.80252869 -3 3 C-2.01 2.67 -1.02 2.34 0 2 C0 1.34 0 0.68 0 0 Z " fill="#1A6FD9" transform="translate(147,54)"/>
<path d="M0 0 C0.99 0.66 1.98 1.32 3 2 C2.88406494 2.6297876 2.76812988 3.2595752 2.64868164 3.90844727 C2.11853244 6.79287222 1.59050044 9.67768097 1.0625 12.5625 C0.88009766 13.55314453 0.69769531 14.54378906 0.50976562 15.56445312 C-0.42859372 20.69983788 -1.31049938 25.82511643 -2 31 C-2.99 31.33 -3.98 31.66 -5 32 C-5 32.66 -5 33.32 -5 34 C-8.75028881 35.74193743 -11.56834818 36.20298949 -15.6875 36.0625 C-19.49255932 35.83810596 -19.49255932 35.83810596 -23 37 C-23 36.34 -23 35.68 -23 35 C-23.99 35 -24.98 35 -26 35 C-25.87109375 33.140625 -25.87109375 33.140625 -25 31 C-22.34765625 29.734375 -22.34765625 29.734375 -19.0625 28.75 C-17.98097656 28.41484375 -16.89945313 28.0796875 -15.78515625 27.734375 C-13 27 -13 27 -11 27 C-10.82984375 26.24976563 -10.6596875 25.49953125 -10.484375 24.7265625 C-6.20347155 6.64657666 -6.20347155 6.64657666 0 0 Z " fill="#05317F" transform="translate(250,158)"/>
<path d="M0 0 C1.5 1.0625 1.5 1.0625 3 3 C3.1875 6.625 3.1875 6.625 3 10 C3 10.33 3 10.66 3 11 C1.29268293 17.70731707 1.29268293 17.70731707 -1 20 C-1.33 20.99 -1.66 21.98 -2 23 C-2.99 23.66 -3.98 24.32 -5 25 C-5.72965366 27.56282742 -5.72965366 27.56282742 -6 30 C-14.07174539 26.62454284 -14.07174539 26.62454284 -16 22 C-16.11330686 16.80676906 -14.85537858 11.82398431 -13 7 C-11.54182203 6.83197949 -10.0834516 6.66562857 -8.625 6.5 C-7.81289063 6.4071875 -7.00078125 6.314375 -6.1640625 6.21875 C-4 6 -4 6 -2 6 C-2 4.68 -2 3.36 -2 2 C-1.34 2 -0.68 2 0 2 C0 1.34 0 0.68 0 0 Z " fill="#0A44A4" transform="translate(71,102)"/>
<path d="M0 0 C3.11227195 0 5.94152152 0.45627049 9 1 C8.01 2.485 8.01 2.485 7 4 C7.66 4 8.32 4 9 4 C9.3306901 10.17288188 8.66161816 14.38102832 6 20 C5.01 20.33 4.02 20.66 3 21 C3.33 21.66 3.66 22.32 4 23 C3.01 23 2.02 23 1 23 C1 23.66 1 24.32 1 25 C-0.6396875 25.2165625 -0.6396875 25.2165625 -2.3125 25.4375 C-5.93122987 25.88288104 -5.93122987 25.88288104 -9 27 C-10.42970038 22.53241709 -8.97722258 19.3900514 -7.3125 15.1875 C-6.92674805 14.15786133 -6.92674805 14.15786133 -6.53320312 13.10742188 C-4.74416979 8.46121 -2.56105621 4.26842701 0 0 Z " fill="#1E4DA2" transform="translate(68,83)"/>
<path d="M0 0 C3 1 3 1 4.53515625 4.01953125 C5.05531415 5.27935102 5.56400538 6.54395232 6.0625 7.8125 C8.34733971 13.48891641 8.34733971 13.48891641 11 19 C5.84417765 21.17087257 1.68583997 22.85824 -4 22 C-7.87731219 19.36012787 -8.84251582 17.8005446 -9.75 13.1875 C-9.44502841 7.8403314 -5.79763439 4.44536513 -2 1 C-1.34 0.67 -0.68 0.34 0 0 Z " fill="#0858AD" transform="translate(150,161)"/>
<path d="M0 0 C0.99 0.66 1.98 1.32 3 2 C4.33568021 1.67619874 5.66923011 1.34342449 7 1 C7.66 1.66 8.32 2.32 9 3 C8.34 3 7.68 3 7 3 C7.495 3.433125 7.99 3.86625 8.5 4.3125 C10 6 10 6 10 9 C9.34 9 8.68 9 8 9 C8 9.99 8 10.98 8 12 C8.61875 12.12375 9.2375 12.2475 9.875 12.375 C12 13 12 13 14 15 C13.625 17.625 13.625 17.625 13 20 C8.60563789 20.85743651 4.47427924 21.08948558 0 21 C-0.66 19.35 -1.32 17.7 -2 16 C-2.763125 16.226875 -3.52625 16.45375 -4.3125 16.6875 C-5.199375 16.790625 -6.08625 16.89375 -7 17 C-8.8125 15.5625 -8.8125 15.5625 -10 14 C-9.1875 11.0625 -9.1875 11.0625 -8 8 C-7.01 7.67 -6.02 7.34 -5 7 C-4.67 6.34 -4.34 5.68 -4 5 C-1.9375 3.875 -1.9375 3.875 0 3 C0 2.01 0 1.02 0 0 Z M4 6 C4.33 6.66 4.66 7.32 5 8 C5.66 7.67 6.32 7.34 7 7 C6.01 6.67 5.02 6.34 4 6 Z " fill="#0A56C2" transform="translate(154,25)"/>
<path d="M0 0 C0.66 1.32 1.32 2.64 2 4 C1.34 4 0.68 4 0 4 C-0.61009004 13.41818314 -0.61009004 13.41818314 1.5625 22.4375 C4.16171464 28.87903194 1.5037446 35.1114346 -0.5625 41.4375 C-0.91344727 42.53481445 -0.91344727 42.53481445 -1.27148438 43.65429688 C-1.84267222 45.43780179 -2.42063123 47.21913583 -3 49 C-3.99 48.34 -4.98 47.68 -6 47 C-5.79375 46.29875 -5.5875 45.5975 -5.375 44.875 C-4.91864497 41.37627814 -5.81116777 39.28677146 -7 36 C-7 34.68 -7 33.36 -7 32 C-6.34 32 -5.68 32 -5 32 C-4.22757731 30.16299211 -4.22757731 30.16299211 -4 28 C-4.680625 27.3503125 -4.680625 27.3503125 -5.375 26.6875 C-7.93114527 24.03304145 -7.81970459 21.60590829 -8 18 C-7.125 14.4375 -7.125 14.4375 -6 11 C-5.896875 9.96875 -5.79375 8.9375 -5.6875 7.875 C-4.78341825 4.09429451 -2.88106724 2.51169964 0 0 Z " fill="#1663CB" transform="translate(93,92)"/>
<path d="M0 0 C0.66 0.33 1.32 0.66 2 1 C1.6847792 8.97508632 0.47151028 13.70206524 -5.5 19.375 C-8 21 -8 21 -12 21 C-12.33 21.66 -12.66 22.32 -13 23 C-13.70125 22.814375 -14.4025 22.62875 -15.125 22.4375 C-18.33888698 21.94843024 -20.83560336 22.33768442 -24 23 C-22.43387807 19.15588253 -19.97905879 16.84049791 -17 14 C-16.278125 13.236875 -15.55625 12.47375 -14.8125 11.6875 C-5.41463415 2.70731707 -5.41463415 2.70731707 0 0 Z " fill="#D7E9F9" transform="translate(74,39)"/>
<path d="M0 0 C0.89203125 0.34933594 1.7840625 0.69867188 2.703125 1.05859375 C4.45882813 1.74115234 4.45882813 1.74115234 6.25 2.4375 C7.41015625 2.88996094 8.5703125 3.34242187 9.765625 3.80859375 C15.44715696 5.90142859 21.00462604 6.55562868 27.00390625 7.3046875 C30.06646858 8.01542556 31.29885047 8.38047627 33 11 C32.6875 14.6875 32.6875 14.6875 32 18 C31.01 17.67 30.02 17.34 29 17 C29 16.34 29 15.68 29 15 C28.34 15 27.68 15 27 15 C26.67 15.66 26.34 16.32 26 17 C25.34 16.34 24.68 15.68 24 15 C21.6114221 14.42534342 21.6114221 14.42534342 18.875 14.0625 C13.93311047 13.23670123 9.5926347 11.96827202 5 10 C4.32453125 9.71640625 3.6490625 9.4328125 2.953125 9.140625 C1.29719203 8.43850942 -0.35216928 7.72092594 -2 7 C-2 7.66 -2 8.32 -2 9 C-2.66 8.67 -3.32 8.34 -4 8 C-2.87548273 5.0280615 -1.77706209 2.66559313 0 0 Z " fill="#1686E5" transform="translate(21,117)"/>
<path d="M0 0 C0.495 0.37125 0.99 0.7425 1.5 1.125 C0.29180633 4.749581 -0.30341913 4.52670957 -3.5 6.125 C-3.83 7.115 -4.16 8.105 -4.5 9.125 C-5.49 9.125 -6.48 9.125 -7.5 9.125 C-7.83 9.785 -8.16 10.445 -8.5 11.125 C-10.82375692 11.51960023 -13.1593935 11.84730092 -15.5 12.125 C-16.83917261 12.43403983 -18.17653254 12.75442911 -19.5 13.125 C-19.5 12.465 -19.5 11.805 -19.5 11.125 C-20.221875 11.33125 -20.94375 11.5375 -21.6875 11.75 C-24.94641585 12.18452211 -26.58304504 11.54180669 -29.5 10.125 C-28.92655063 7.25775314 -28.6385485 6.2635485 -26.5 4.125 C-22.44016141 1.80509224 -18.197756 0.125 -13.5 0.125 C-12.51 0.455 -11.52 0.785 -10.5 1.125 C-8.55832931 0.73877423 -8.55832931 0.73877423 -6.5625 0.0625 C-2.80604017 -0.98211406 -2.80604017 -0.98211406 0 0 Z " fill="#1C50A7" transform="translate(150.5,26.875)"/>
<path d="M0 0 C0.33 0 0.66 0 1 0 C1.64004606 9.19177259 0.66207757 17.18478731 -5.046875 24.69140625 C-6.96934897 26.86952836 -8.92865402 28.96384679 -11 31 C-11.99 30.67 -12.98 30.34 -14 30 C-12.3030853 15.6061706 -12.3030853 15.6061706 -9 9 C-8.814375 7.88625 -8.814375 7.88625 -8.625 6.75 C-7.62671437 3.95480024 -5.56993775 3.25362817 -3 2 C-2.34 2 -1.68 2 -1 2 C-0.67 1.34 -0.34 0.68 0 0 Z " fill="#136FD2" transform="translate(130,121)"/>
<path d="M0 0 C1.546875 0.680625 1.546875 0.680625 3.125 1.375 C4.41622237 1.91772494 5.70787873 2.45941865 7 3 C7.9075 3.391875 8.815 3.78375 9.75 4.1875 C15.35289817 5.58822454 21.49081049 5.8363965 27 4 C28.1875 5.6875 28.1875 5.6875 29 8 C27.91015625 10.6171875 27.91015625 10.6171875 26 13 C19.70135004 14.31682302 12.98703882 13.15533398 7 11 C5.865625 10.62875 4.73125 10.2575 3.5625 9.875 C2.2940625 9.441875 2.2940625 9.441875 1 9 C1 8.34 1 7.68 1 7 C-1.31 7.66 -3.62 8.32 -6 9 C-4.68775452 5.06326356 -3.08089673 2.77280706 0 0 Z " fill="#96C7F3" transform="translate(39,76)"/>
<path d="M0 0 C0 0.66 0 1.32 0 2 C0.86625 2.12375 1.7325 2.2475 2.625 2.375 C6 3 6 3 9.25 4.125 C11.92493749 5.32809582 11.92493749 5.32809582 14 4 C14.99 4.33 15.98 4.66 17 5 C19.7668544 4.46582864 19.7668544 4.46582864 22.6875 3.5625 C23.68136719 3.27503906 24.67523438 2.98757812 25.69921875 2.69140625 C26.45847656 2.46324219 27.21773437 2.23507813 28 2 C28.495 2.99 28.495 2.99 29 4 C28.22265625 5.9453125 28.22265625 5.9453125 27.0625 8.125 C26.49208984 9.21167969 26.49208984 9.21167969 25.91015625 10.3203125 C25.60980469 10.87460938 25.30945313 11.42890625 25 12 C24.40832031 11.82597656 23.81664063 11.65195313 23.20703125 11.47265625 C20.0158652 10.78923839 17.21221989 11.51000036 14 12 C8.43878758 12.39722946 5.01705641 11.3716994 0 9 C-1.99263591 8.31163487 -3.99041337 7.63718601 -6 7 C-5.39816251 4.97954558 -4.72693904 2.97888961 -4 1 C-2 0 -2 0 0 0 Z " fill="#A8D1F5" transform="translate(44,70)"/>
<path d="M0 0 C0 0.33 0 0.66 0 1 C-1.14662109 0.95286865 -1.14662109 0.95286865 -2.31640625 0.90478516 C-23.91778814 0.1007719 -23.91778814 0.1007719 -44 7 C-44.69528809 7.35288086 -45.39057617 7.70576172 -46.10693359 8.06933594 C-50.46277145 10.28179412 -54.748617 12.59332629 -59 15 C-62.11990898 12.21466571 -62.53816182 10.15654359 -63 6 C-62.26652344 6.04898437 -61.53304687 6.09796875 -60.77734375 6.1484375 C-57.64218936 5.98087651 -56.22970919 5.224401 -53.5625 3.625 C-38.55424497 -4.08666525 -16.28508913 -2.47644299 0 0 Z " fill="#62ABEA" transform="translate(173,16)"/>
<path d="M0 0 C2.1875 2.75 2.1875 2.75 2.1875 5.75 C2.31125 6.86375 2.31125 6.86375 2.4375 8 C2.07721089 11.96318023 0.26605392 14.37234988 -1.8125 17.75 C-1.8125 18.08 -1.8125 18.41 -1.8125 18.75 C1.8175 19.08 5.4475 19.41 9.1875 19.75 C8.8575 20.41 8.5275 21.07 8.1875 21.75 C-1.3825 21.75 -10.9525 21.75 -20.8125 21.75 C-20.8125 20.76 -20.8125 19.77 -20.8125 18.75 C-16.8525 18.42 -12.8925 18.09 -8.8125 17.75 C-8.8125 16.76 -8.8125 15.77 -8.8125 14.75 C-8.1525 13.76 -7.4925 12.77 -6.8125 11.75 C-5.82953143 6.67132906 -5.31168561 3.45741532 -7.8125 -1.25 C-4.03299279 -2.65381696 -3.24433632 -2.59546905 0 0 Z " fill="#0049AA" transform="translate(244.8125,128.25)"/>
<path d="M0 0 C0.28875 0.639375 0.5775 1.27875 0.875 1.9375 C1.82823451 4.15206079 1.82823451 4.15206079 4 5 C4.33 4.01 4.66 3.02 5 2 C6.5625 3.1875 6.5625 3.1875 8 5 C7.71395102 6.67542976 7.38218767 8.34385343 7 10 C7.66 10.66 8.32 11.32 9 12 C8.34 12 7.68 12 7 12 C6.67 13.32 6.34 14.64 6 16 C6.66 16.33 7.32 16.66 8 17 C8 18.65 8 20.3 8 22 C6.68 22.33 5.36 22.66 4 23 C3.67 21.68 3.34 20.36 3 19 C2.34 19 1.68 19 1 19 C0.67 19.66 0.34 20.32 0 21 C-0.66 20.67 -1.32 20.34 -2 20 C-2.33 20.66 -2.66 21.32 -3 22 C-4.64826111 19.03312999 -5.44271087 16.34373475 -6 13 C-5.34 12.67 -4.68 12.34 -4 12 C-4.04125 11.236875 -4.0825 10.47375 -4.125 9.6875 C-4 7 -4 7 -2 4 C-1.31822584 2.67432801 -0.64808564 1.34246312 0 0 Z M5 17 C6 19 6 19 6 19 Z " fill="#0C54BC" transform="translate(75,107)"/>
<path d="M0 0 C3 3.55555556 3 3.55555556 3 5 C3.99 5.33 4.98 5.66 6 6 C5.195625 6.268125 4.39125 6.53625 3.5625 6.8125 C2.716875 7.204375 1.87125 7.59625 1 8 C0.67 8.99 0.34 9.98 0 11 C-0.66 10.01 -1.32 9.02 -2 8 C-4.64779693 8 -6.51587793 8.17195931 -9 9 C-9.33 9.66 -9.66 10.32 -10 11 C-10.99 11 -11.98 11 -13 11 C-13.66 11.66 -14.32 12.32 -15 13 C-15.99 13.495 -15.99 13.495 -17 14 C-17.99 15.485 -17.99 15.485 -19 17 C-19.99 17 -20.98 17 -22 17 C-23 14 -23 14 -22 11 C-21.34 10.34 -20.68 9.68 -20 9 C-19.43410156 8.36707031 -18.86820312 7.73414063 -18.28515625 7.08203125 C-15.53663938 4.57782699 -12.81324977 3.2351987 -9.4375 1.6875 C-7.73400391 0.88892578 -7.73400391 0.88892578 -5.99609375 0.07421875 C-3 -1 -3 -1 0 0 Z " fill="#1D4A9F" transform="translate(139,20)"/>
<path d="M0 0 C0.66 0.33 1.32 0.66 2 1 C1.67 1.66 1.34 2.32 1 3 C1.66 3.33 2.32 3.66 3 4 C2.34 4 1.68 4 1 4 C-0.10636395 6.39068734 -0.10636395 6.39068734 -1 9 C-0.67 9.66 -0.34 10.32 0 11 C-1.52367187 11.07347656 -1.52367187 11.07347656 -3.078125 11.1484375 C-11.50693339 11.5930859 -19.69829465 12.38053854 -28 14 C-27.34 11.69 -26.68 9.38 -26 7 C-24.68 7.66 -23.36 8.32 -22 9 C-21.7525 8.0409375 -21.7525 8.0409375 -21.5 7.0625 C-20 5 -20 5 -16.1875 4.3125 C-14.79186339 4.20572999 -13.39603467 4.10143273 -12 4 C-10.32943851 3.68676972 -8.66041075 3.36321485 -7 3 C-7 3.66 -7 4.32 -7 5 C-3.34683329 3.75023244 -2.21934164 3.32901247 0 0 Z " fill="#014DB0" transform="translate(242,99)"/>
<path d="M0 0 C0.33 0.66 0.66 1.32 1 2 C3.52733235 2.65555119 3.52733235 2.65555119 6 3 C6 6 6 6 5 9.4375 C3.81982907 13.02516059 3.81982907 13.02516059 4 17 C3.01 17 2.02 17 1 17 C0.67 17.66 0.34 18.32 0 19 C-1.65 18.67 -3.3 18.34 -5 18 C-6.17869672 12.34225575 -5.89617022 8.49889364 -4 3 C-3.01 2.67 -2.02 2.34 -1 2 C-0.67 1.34 -0.34 0.68 0 0 Z " fill="#1757B6" transform="translate(79,93)"/>
<path d="M0 0 C2.71224618 1.61268692 5.37352812 3.24901874 8 5 C14.77439246 7.40867287 21.89953295 8.0742803 29 9 C29.625 10.875 29.625 10.875 30 13 C29.34 13.66 28.68 14.32 28 15 C28 14.34 28 13.68 28 13 C27.319375 13.20625 26.63875 13.4125 25.9375 13.625 C22.14772656 14.10880086 19.63772546 13.1519464 16 12 C14.46044139 11.67727466 12.91864528 11.36507499 11.375 11.0625 C8.45835614 10.44951044 6.84395125 9.90424281 4.25 8.3125 C2.02409551 6.71441435 2.02409551 6.71441435 -0.8125 7.3125 C-1.534375 7.539375 -2.25625 7.76625 -3 8 C-1.125 2.25 -1.125 2.25 0 0 Z " fill="#71B5EE" transform="translate(31,87)"/>
<path d="M0 0 C0.66 0 1.32 0 2 0 C2.33 1.32 2.66 2.64 3 4 C3.99 4 4.98 4 6 4 C7.33981486 4.3062434 8.67511887 4.63451555 10 5 C10 5.99 10 6.98 10 8 C8.4176994 8.33820166 6.83410625 8.67035939 5.25 9 C3.92742187 9.2784375 3.92742187 9.2784375 2.578125 9.5625 C0 10 0 10 -4 10 C-4.33 10.66 -4.66 11.32 -5 12 C-5.99 12 -6.98 12 -8 12 C-9.33333333 10.66666667 -10.66666667 9.33333333 -12 8 C-12 5 -12 5 -10.4375 3.375 C-7.33389938 1.62425093 -4.51335068 1.39773781 -1 1 C-0.67 0.67 -0.34 0.34 0 0 Z " fill="#155BBD" transform="translate(143,36)"/>
<path d="M0 0 C0 0.99 0 1.98 0 3 C-0.66 3 -1.32 3 -2 3 C-1.53596352 5.85050983 -1.0715916 8.68181511 -0.4375 11.5 C0.09888188 14.56503933 0.45276705 16.89531163 0 20 C-1.83724042 22.04613948 -3.73152801 23.39316567 -6 25 C-6.88787742 21.06797143 -7.33530609 17.15242894 -7.734375 13.1484375 C-7.96968878 10.85765491 -7.96968878 10.85765491 -8.75 8.125 C-9 6 -9 6 -7.9375 4.375 C-5.42810083 2.59413608 -2.78428458 1.29933281 0 0 Z " fill="#A8D0F4" transform="translate(96,26)"/>
<path d="M0 0 C0.99 0 1.98 0 3 0 C2.34 3.3 1.68 6.6 1 10 C1.66 10.33 2.32 10.66 3 11 C2.5844453 13.41021725 2.34852514 14.68678001 0.49609375 16.3515625 C-1.4144146 18.45661348 -1.4494943 19.75902733 -1.625 22.5625 C-1.92 26.84 -1.92 26.84 -3 29 C-2.01 29.33 -1.02 29.66 0 30 C-1 31 -1 31 -2.84765625 31.09765625 C-4.8984375 31.06510417 -6.94921875 31.03255208 -9 31 C-6.27712157 20.58618423 -3.11951999 10.30001626 0 0 Z " fill="#2562B0" transform="translate(115,123)"/>
<path d="M0 0 C-0.165 0.598125 -0.33 1.19625 -0.5 1.8125 C-1.1114124 4.11344336 -1.1114124 4.11344336 -1 7 C-1.99 7.495 -1.99 7.495 -3 8 C-3.60602665 10.36195411 -3.60602665 10.36195411 -4 13 C-4.33333333 14.33333333 -4.66666667 15.66666667 -5 17 C-5.34060811 18.66519519 -5.67558396 20.33157466 -6 22 C-6.66 21.34 -7.32 20.68 -8 20 C-8.66 20 -9.32 20 -10 20 C-11.21181638 13.16976222 -11.17189231 7.34378462 -8 1 C-5.07175348 0.02391783 -3.04386724 -0.08226668 0 0 Z " fill="#0F419C" transform="translate(66,108)"/>
<path d="M0 0 C0.66796875 1.71484375 0.66796875 1.71484375 1 4 C-0.07421875 6.25390625 -0.07421875 6.25390625 -1.6875 8.5625 C-2.20699219 9.32691406 -2.72648438 10.09132812 -3.26171875 10.87890625 C-5.01823799 13.02225445 -6.66736908 14.51300717 -9 16 C-9.66 16 -10.32 16 -11 16 C-11.60158689 9.26222686 -10.32751919 5.2585915 -6 0 C-3.50907189 -1.24546405 -2.58919267 -0.7767578 0 0 Z " fill="#186BB9" transform="translate(172,134)"/>
<path d="M0 0 C0.99 0.66 1.98 1.32 3 2 C4.33568021 1.67619874 5.66923011 1.34342449 7 1 C7.66 1.66 8.32 2.32 9 3 C8.34 3 7.68 3 7 3 C7.495 3.433125 7.99 3.86625 8.5 4.3125 C10 6 10 6 10 9 C9.34 9 8.68 9 8 9 C7.67 10.32 7.34 11.64 7 13 C6.34 13 5.68 13 5 13 C4.67 12.34 4.34 11.68 4 11 C1.45985855 10.92944052 -0.67513461 10.90445136 -3.125 11.625 C-3.74375 11.74875 -4.3625 11.8725 -5 12 C-5.99 11.34 -6.98 10.68 -8 10 C-8 9.01 -8 8.02 -8 7 C-7.01 7 -6.02 7 -5 7 C-4.67 6.34 -4.34 5.68 -4 5 C-1.9375 3.875 -1.9375 3.875 0 3 C0 2.01 0 1.02 0 0 Z M4 6 C4.33 6.66 4.66 7.32 5 8 C5.66 7.67 6.32 7.34 7 7 C6.01 6.67 5.02 6.34 4 6 Z " fill="#0A4FB5" transform="translate(154,25)"/>
<path d="M0 0 C-6.27692308 4.06153846 -6.27692308 4.06153846 -9.9375 3.75 C-10.618125 3.5025 -11.29875 3.255 -12 3 C-10.94124926 6.40312738 -9.99097846 9.01353231 -8 12 C-10.25 14.0625 -10.25 14.0625 -13 16 C-15.3125 15.75 -15.3125 15.75 -17 15 C-19.45787153 7.48180474 -19.45787153 7.48180474 -18 4 C-15.30688909 2.8398448 -12.86206668 1.97389513 -10.0625 1.1875 C-8.9497168 0.84428711 -8.9497168 0.84428711 -7.81445312 0.49414062 C-2.28831993 -1.14415997 -2.28831993 -1.14415997 0 0 Z " fill="#78B8EF" transform="translate(122,19)"/>
<path d="M0 0 C0.886875 0.4125 1.77375 0.825 2.6875 1.25 C11.49863795 4.99562544 20.4146587 7.56725321 30 8 C30 8.99 30 9.98 30 11 C28.4375 12.125 28.4375 12.125 26 13 C22.8125 12.25 22.8125 12.25 20.98046875 11.6328125 C18.87478654 10.95999096 16.79509859 10.54159833 14.625 10.125 C9.87308215 9.08169728 5.11022311 7.65904497 1 5 C-0.25390625 2.8671875 -0.25390625 2.8671875 -1 1 C-0.67 0.67 -0.34 0.34 0 0 Z " fill="#3296E8" transform="translate(24,108)"/>
<path d="M0 0 C2.93447357 2.93447357 2.46158423 6.18259456 2.625 10.125 C2.66367188 10.87910156 2.70234375 11.63320312 2.7421875 12.41015625 C2.83651031 14.27303184 2.91934662 16.13648255 3 18 C2.34 18 1.68 18 1 18 C0.67 17.34 0.34 16.68 0 16 C-0.99 16 -1.98 16 -3 16 C-2.67 13.69 -2.34 11.38 -2 9 C-5.3 9.33 -8.6 9.66 -12 10 C-12 9.34 -12 8.68 -12 8 C-8 5.33333333 -4 2.66666667 0 0 Z " fill="#0761B8" transform="translate(182,153)"/>
<path d="M0 0 C0.33 0.99 0.66 1.98 1 3 C0.236875 3.28875 -0.52625 3.5775 -1.3125 3.875 C-6.32673167 7.83974132 -6.91668507 14.92747317 -8 21 C-8.03772913 22.9996441 -8.04649906 25.00054061 -8 27 C-9.98 27.99 -9.98 27.99 -12 29 C-14.39314728 21.70090079 -11.11664676 13.63981266 -8 7 C-7.814375 5.88625 -7.814375 5.88625 -7.625 4.75 C-6.48098953 1.54677068 -3.29324123 0 0 0 Z " fill="#1568C9" transform="translate(129,123)"/>
<path d="M0 0 C1.13373047 -0.00128906 2.26746094 -0.00257812 3.43554688 -0.00390625 C4.63115234 -0.00003906 5.82675781 0.00382813 7.05859375 0.0078125 C8.22712891 0.00394531 9.39566406 0.00007812 10.59960938 -0.00390625 C16.66010427 0.00293018 22.50557379 0.19980197 28.49609375 1.1328125 C28.49609375 1.4628125 28.49609375 1.7928125 28.49609375 2.1328125 C27.34947266 2.08568115 27.34947266 2.08568115 26.1796875 2.03759766 C11.00302846 1.4965525 -1.74867142 1.22649849 -15.50390625 8.1328125 C-16.49390625 8.4628125 -17.48390625 8.7928125 -18.50390625 9.1328125 C-19.16390625 8.4728125 -19.82390625 7.8128125 -20.50390625 7.1328125 C-19.8828125 5.20703125 -19.8828125 5.20703125 -18.50390625 3.1328125 C-15.71875 2.33984375 -15.71875 2.33984375 -12.44140625 1.9453125 C-7.79929629 1.35469922 -4.65996278 0.00508769 0 0 Z " fill="#609EDC" transform="translate(144.50390625,14.8671875)"/>
<path d="M0 0 C1.58357459 0.31127516 3.16684993 0.62407289 4.75 0.9375 C5.63171875 1.11152344 6.5134375 1.28554687 7.421875 1.46484375 C9.01038253 1.7945794 10.59209786 2.16304144 12.15625 2.59375 C14.63268236 3.13940459 16.56787847 2.60803038 19 2 C19 1.34 19 0.68 19 0 C19.66 0.33 20.32 0.66 21 1 C20.07615834 2.67427615 19.13549431 4.33928003 18.1875 6 C17.66542969 6.928125 17.14335937 7.85625 16.60546875 8.8125 C16.07566406 9.534375 15.54585937 10.25625 15 11 C14.01 11 13.02 11 12 11 C12 10.34 12 9.68 12 9 C11.01 9 10.02 9 9 9 C8.34 10.32 7.68 11.64 7 13 C6.938125 11.4221875 6.938125 11.4221875 6.875 9.8125 C5.72606348 4.80641945 4.06083679 3.93762661 0 1 C0 0.67 0 0.34 0 0 Z " fill="#096BC7" transform="translate(174,128)"/>
<path d="M0 0 C1.5 1.0625 1.5 1.0625 3 3 C3.1875 6.625 3.1875 6.625 3 10 C3 10.33 3 10.66 3 11 C2.34416793 13.33640176 1.67784992 15.66989091 1 18 C0.01 18 -0.98 18 -2 18 C-2.66 17.34 -3.32 16.68 -4 16 C-4 13 -4 13 -3 10 C-4.32 10.33 -5.64 10.66 -7 11 C-5.625 8.5 -5.625 8.5 -4 6 C-3.34 6 -2.68 6 -2 6 C-2 4.68 -2 3.36 -2 2 C-1.34 2 -0.68 2 0 2 C0 1.34 0 0.68 0 0 Z " fill="#114CAB" transform="translate(71,102)"/>
<path d="M0 0 C4.97874002 2.20918118 8.73799598 5.92832984 10.828125 11.015625 C11.2952452 12.65721886 11.65871613 14.32770905 12 16 C10.35 17.32 8.7 18.64 7 20 C6.34 18.02 5.68 16.04 5 14 C4.67 14 4.34 14 4 14 C3.81824219 12.98679688 3.81824219 12.98679688 3.6328125 11.953125 C3.46523437 11.06109375 3.29765625 10.1690625 3.125 9.25 C2.96257812 8.36828125 2.80015625 7.4865625 2.6328125 6.578125 C2.03203736 4.13052256 1.22002883 2.19400143 0 0 Z " fill="#0668C4" transform="translate(148,116)"/>
<path d="M0 0 C1.32 0.66 2.64 1.32 4 2 C3.814375 2.721875 3.62875 3.44375 3.4375 4.1875 C2.98004693 7.12826973 3.26483643 9.14103058 4 12 C3.34 12 2.68 12 2 12 C1.67 12.66 1.34 13.32 1 14 C0.34 13.67 -0.32 13.34 -1 13 C-1.33 13.66 -1.66 14.32 -2 15 C-3.64826111 12.03312999 -4.44271087 9.34373475 -5 6 C-4.34 5.67 -3.68 5.34 -3 5 C-3 4.01 -3 3.02 -3 2 C-2.01 2 -1.02 2 0 2 C0 1.34 0 0.68 0 0 Z " fill="#084EB4" transform="translate(74,114)"/>
<path d="M0 0 C0.721875 0.350625 1.44375 0.70125 2.1875 1.0625 C5.3474066 2.1158022 6.85173712 1.93597004 10 1 C10.66 0.67 11.32 0.34 12 0 C13.67654729 0.27942455 15.34608154 0.60828247 17 1 C17 1.33 17 1.66 17 2 C19.97 2.33 22.94 2.66 26 3 C26 3.33 26 3.66 26 4 C24.47632813 4.07347656 24.47632813 4.07347656 22.921875 4.1484375 C14.49306661 4.5930859 6.30170535 5.38053854 -2 7 C-1.34 4.69 -0.68 2.38 0 0 Z " fill="#1369C0" transform="translate(216,106)"/>
<path d="M0 0 C2.31 0 4.62 0 7 0 C7 1.32 7 2.64 7 4 C6.01 4 5.02 4 4 4 C3.67 4.66 3.34 5.32 3 6 C0.67624308 6.39460023 -1.6593935 6.72230092 -4 7 C-5.33917261 7.30903983 -6.67653254 7.62942911 -8 8 C-8 7.34 -8 6.68 -8 6 C-8.66 6 -9.32 6 -10 6 C-9.67 5.34 -9.34 4.68 -9 4 C-8.01 4 -7.02 4 -6 4 C-5.67 3.34 -5.34 2.68 -5 2 C-4.34 1.67 -3.68 1.34 -3 1 C-2.01 1.33 -1.02 1.66 0 2 C0 1.34 0 0.68 0 0 Z " fill="#1654B2" transform="translate(139,32)"/>
<path d="M0 0 C1.32 0.66 2.64 1.32 4 2 C4 2.99 4 3.98 4 5 C9.445 5.495 9.445 5.495 15 6 C14.67 6.66 14.34 7.32 14 8 C4.43 8 -5.14 8 -15 8 C-15 7.01 -15 6.02 -15 5 C-14.08476562 4.97421875 -13.16953125 4.9484375 -12.2265625 4.921875 C-11.03804687 4.86515625 -9.84953125 4.8084375 -8.625 4.75 C-7.44164062 4.70359375 -6.25828125 4.6571875 -5.0390625 4.609375 C-1.88708247 4.34351201 -1.88708247 4.34351201 -0.5859375 1.953125 C-0.39257812 1.30859375 -0.19921875 0.6640625 0 0 Z " fill="#195BAD" transform="translate(239,142)"/>
<path d="M0 0 C0.7425 0.556875 0.7425 0.556875 1.5 1.125 C1.17 2.115 0.84 3.105 0.5 4.125 C-1.12318979 4.48737263 -2.7486358 4.83965157 -4.375 5.1875 C-5.73238281 5.48333984 -5.73238281 5.48333984 -7.1171875 5.78515625 C-9.5 6.125 -9.5 6.125 -11.5 5.125 C-11.83 5.785 -12.16 6.445 -12.5 7.125 C-13.49 6.135 -14.48 5.145 -15.5 4.125 C-11.04107553 1.05948943 -5.40824175 -1.89288461 0 0 Z " fill="#114CAB" transform="translate(150.5,26.875)"/>
<path d="M0 0 C0.61875 0.7734375 0.61875 0.7734375 1.25 1.5625 C0.92 2.2225 0.59 2.8825 0.25 3.5625 C-0.41 3.5625 -1.07 3.5625 -1.75 3.5625 C-1.8325 4.18125 -1.915 4.8 -2 5.4375 C-2.75 7.5625 -2.75 7.5625 -4.625 8.75 C-6.31752155 9.39714059 -8.03096593 9.98948864 -9.75 10.5625 C-9.75 6.5625 -9.75 6.5625 -7.75 4.5625 C-7.46125 3.716875 -7.1725 2.87125 -6.875 2 C-5.75 -0.4375 -5.75 -0.4375 -3.8125 -1.4375 C-1.75 -1.4375 -1.75 -1.4375 0 0 Z " fill="#E3EEF9" transform="translate(69.75,46.4375)"/>
<path d="M0 0 C2 2 2 2 2.1953125 4.71484375 C2.16050781 6.31005859 2.16050781 6.31005859 2.125 7.9375 C2.10695312 8.99839844 2.08890625 10.05929688 2.0703125 11.15234375 C2.04710937 12.09207031 2.02390625 13.03179687 2 14 C2 14.99 2 15.98 2 17 C-2.89872223 12.45972086 -2.89872223 12.45972086 -3.1796875 8.41015625 C-2.95189141 5.84928725 -2.70360158 3.47425456 -2 1 C-1.34 0.67 -0.68 0.34 0 0 Z " fill="#084A96" transform="translate(206,166)"/>
<path d="M0 0 C0.66 0 1.32 0 2 0 C3.57554035 2.88628401 4.46276373 5.53342384 5.125 8.75 C5.29257813 9.54921875 5.46015625 10.3484375 5.6328125 11.171875 C5.81457031 12.07679687 5.81457031 12.07679687 6 13 C4.68 13.99 3.36 14.98 2 16 C1.49598159 13.47990794 0.9921827 10.95993632 0.5 8.4375 C0.03773684 6.02731428 0.03773684 6.02731428 -0.625 3.8125 C-1 2 -1 2 0 0 Z " fill="#98C8F2" transform="translate(94,29)"/>
<path d="M0 0 C0.99 0.33 1.98 0.66 3 1 C3 1.66 3 2.32 3 3 C3.66 3.33 4.32 3.66 5 4 C4.07767578 4.07347656 4.07767578 4.07347656 3.13671875 4.1484375 C2.32847656 4.22320312 1.52023438 4.29796875 0.6875 4.375 C-0.11300781 4.44460937 -0.91351563 4.51421875 -1.73828125 4.5859375 C-4.27224441 4.89564426 -4.27224441 4.89564426 -7 7 C-7.99 6.67 -8.98 6.34 -10 6 C-9.67 4.68 -9.34 3.36 -9 2 C-6.94921875 1.77213542 -4.8984375 1.54427083 -2.84765625 1.31640625 C-0.98859771 1.18113386 -0.98859771 1.18113386 0 0 Z " fill="#0057BA" transform="translate(231,102)"/>
<path d="M0 0 C0.86625 0.2784375 0.86625 0.2784375 1.75 0.5625 C3.94099315 1.15464862 3.94099315 1.15464862 5.84375 0.53125 C8.22517167 -0.05547708 10.30165934 -0.09850501 12.75 -0.0625 C13.54921875 -0.05347656 14.3484375 -0.04445312 15.171875 -0.03515625 C15.77515625 -0.02355469 16.3784375 -0.01195312 17 0 C16.01 1.32 15.02 2.64 14 4 C14 3.34 14 2.68 14 2 C13.33613281 2.15597656 12.67226562 2.31195313 11.98828125 2.47265625 C11.10527344 2.66730469 10.22226563 2.86195313 9.3125 3.0625 C8.44238281 3.25972656 7.57226562 3.45695313 6.67578125 3.66015625 C3.83998724 4.02032279 1.75210018 3.70909969 -1 3 C-0.67 2.01 -0.34 1.02 0 0 Z " fill="#0152B5" transform="translate(112,164)"/>
<path d="M0 0 C0.99 0.33 1.98 0.66 3 1 C3 4.17370278 2.69066658 5.3794668 1 8 C-1.125 9.25 -1.125 9.25 -3 10 C-3.36923077 3.47692308 -3.36923077 3.47692308 -1.5 1.0625 C-1.005 0.711875 -0.51 0.36125 0 0 Z " fill="#085BAC" transform="translate(165,140)"/>
<path d="M0 0 C2.6444211 2.21790157 3.88097442 3.56967674 4.8125 6.9375 C4.99248942 9.87732724 4.75033374 12.16540585 4 15 C3.34 14.67 2.68 14.34 2 14 C1.375 11.4375 1.375 11.4375 1 9 C0.67 9 0.34 9 0 9 C0 6.03 0 3.06 0 0 Z " fill="#0762B9" transform="translate(152,121)"/>
<path d="M0 0 C0.625 1.8125 0.625 1.8125 1 4 C0.01 5.485 0.01 5.485 -1 7 C-0.34 7.33 0.32 7.66 1 8 C1.625 11.0625 1.625 11.0625 2 14 C-1.26460973 12.19587357 -2.88929795 11.16605307 -5 8 C-4.360625 7.236875 -3.72125 6.47375 -3.0625 5.6875 C-0.85767219 3.11753287 -0.85767219 3.11753287 0 0 Z " fill="#13559F" transform="translate(178,169)"/>
<path d="M0 0 C3.63 0.33 7.26 0.66 11 1 C6.25 4.875 6.25 4.875 4 6 C3.67 5.34 3.34 4.68 3 4 C2.01 4.495 2.01 4.495 1 5 C0.34 4.67 -0.32 4.34 -1 4 C-0.67 2.68 -0.34 1.36 0 0 Z " fill="#084AA2" transform="translate(104,160)"/>
<path d="M0 0 C2.97 0.495 2.97 0.495 6 1 C6 1.33 6 1.66 6 2 C8.97 2.33 11.94 2.66 15 3 C15 3.33 15 3.66 15 4 C9.06 4 3.12 4 -3 4 C-2.01 2.68 -1.02 1.36 0 0 Z " fill="#1360BA" transform="translate(227,106)"/>
<path d="M0 0 C0.99 0.66 1.98 1.32 3 2 C4.33568021 1.67619874 5.66923011 1.34342449 7 1 C7.66 1.66 8.32 2.32 9 3 C8.34 3 7.68 3 7 3 C7 3.66 7 4.32 7 5 C3.7 5.33 0.4 5.66 -3 6 C-2.67 5.01 -2.34 4.02 -2 3 C-1.34 3 -0.68 3 0 3 C0 2.01 0 1.02 0 0 Z " fill="#0549AF" transform="translate(154,25)"/>
<path d="M0 0 C4.95 0.99 4.95 0.99 10 2 C10 2.99 10 3.98 10 5 C8.02 5.99 8.02 5.99 6 7 C5.67 6.01 5.34 5.02 5 4 C4.01 4 3.02 4 2 4 C1.34 2.68 0.68 1.36 0 0 Z M4 7 C4.66 7 5.32 7 6 7 C5.67 7.66 5.34 8.32 5 9 C4.67 8.34 4.34 7.68 4 7 Z " fill="#0048A5" transform="translate(177,197)"/>
<path d="M0 0 C4.62 0 9.24 0 14 0 C14 0.33 14 0.66 14 1 C12.865625 1.12375 11.73125 1.2475 10.5625 1.375 C8.7990625 1.684375 8.7990625 1.684375 7 2 C6.67 2.66 6.34 3.32 6 4 C6.66 4.33 7.32 4.66 8 5 C7.01 5.99 6.02 6.98 5 8 C4.31292445 5.50935112 4 3.62113708 4 1 C2.68 0.67 1.36 0.34 0 0 Z " fill="#003486" transform="translate(208,191)"/>
<path d="M0 0 C1.03115279 3.26913624 0.9638984 5.86041348 0.5625 9.25 C0.46066406 10.14203125 0.35882813 11.0340625 0.25390625 11.953125 C0.12822266 12.96632812 0.12822266 12.96632812 0 14 C-0.99 14 -1.98 14 -3 14 C-3.19263454 9.18413661 -2.81361417 5.48069384 -1 1 C-0.67 0.67 -0.34 0.34 0 0 Z " fill="#185FB4" transform="translate(115,138)"/>
<path d="M0 0 C1.32 0 2.64 0 4 0 C4 0.66 4 1.32 4 2 C5.32 2.33 6.64 2.66 8 3 C8 3.99 8 4.98 8 6 C7.01 6 6.02 6 5 6 C5 5.34 5 4.68 5 4 C4.01 4 3.02 4 2 4 C1.34 5.32 0.68 6.64 0 8 C0 5.36 0 2.72 0 0 Z " fill="#146BC0" transform="translate(181,133)"/>
<path d="M0 0 C0.33 0 0.66 0 1 0 C1.14695313 1.19496094 1.14695313 1.19496094 1.296875 2.4140625 C2.17364593 8.62704273 2.94805192 13.13766231 7 18 C6.01 18 5.02 18 4 18 C-0.28670939 11.97181491 -0.474377 7.28695785 0 0 Z " fill="#1B60BE" transform="translate(128,170)"/>
<path d="M0 0 C0.99 0 1.98 0 3 0 C2.34 3.3 1.68 6.6 1 10 C0.01 10 -0.98 10 -2 10 C-1.34 6.7 -0.68 3.4 0 0 Z " fill="#2B65B0" transform="translate(115,123)"/>
<path d="M0 0 C0.99 0.33 1.98 0.66 3 1 C4.1875 3.5625 4.1875 3.5625 5 6 C3.35 6.66 1.7 7.32 0 8 C0 6.02 0 4.04 0 2 C-0.66 1.67 -1.32 1.34 -2 1 C-1.34 0.67 -0.68 0.34 0 0 Z " fill="#4EA2E9" transform="translate(118,20)"/>
<path d="M0 0 C0.33 0 0.66 0 1 0 C1.33 4.62 1.66 9.24 2 14 C1.34 14 0.68 14 0 14 C-0.33 13.34 -0.66 12.68 -1 12 C-1.99 12 -2.98 12 -4 12 C-3.67 11.01 -3.34 10.02 -3 9 C-2.34 8.67 -1.68 8.34 -1 8 C-0.53476937 6.10466658 -0.53476937 6.10466658 -0.375 3.9375 C-0.25125 2.638125 -0.1275 1.33875 0 0 Z " fill="#1B66B4" transform="translate(183,157)"/>
<path d="M0 0 C4.29 0.99 8.58 1.98 13 3 C13 3.33 13 3.66 13 4 C9.37 4 5.74 4 2 4 C1.34 2.68 0.68 1.36 0 0 Z " fill="#07398D" transform="translate(134,282)"/>
<path d="M0 0 C2.31 0 4.62 0 7 0 C7 0.99 7 1.98 7 3 C4.69 3.66 2.38 4.32 0 5 C0 3.33333333 0 1.66666667 0 0 Z " fill="#3B4F8B" transform="translate(184,279)"/>
<path d="M0 0 C1.32 0.66 2.64 1.32 4 2 C3.67 2.99 3.34 3.98 3 5 C3.66 5.33 4.32 5.66 5 6 C4.01 6.99 3.02 7.98 2 9 C1.34 8.67 0.68 8.34 0 8 C0.20625 7.401875 0.4125 6.80375 0.625 6.1875 C1.30671915 3.71549154 1.30671915 3.71549154 -1 1 C-0.67 0.67 -0.34 0.34 0 0 Z " fill="#0066C8" transform="translate(207,102)"/>
<path d="M0 0 C0.66 0 1.32 0 2 0 C2 0.66 2 1.32 2 2 C2.66 2.33 3.32 2.66 4 3 C3.34 3 2.68 3 2 3 C2 3.66 2 4.32 2 5 C1.21625 4.814375 0.4325 4.62875 -0.375 4.4375 C-2.97089775 3.74037734 -2.97089775 3.74037734 -5 5 C-4.34 3.68 -3.68 2.36 -3 1 C-2.34 1.33 -1.68 1.66 -1 2 C-0.67 1.34 -0.34 0.68 0 0 Z " fill="#0048B0" transform="translate(140,200)"/>
<path d="M0 0 C-6.15384615 4.06153846 -6.15384615 4.06153846 -10.4375 3.75 C-11.283125 3.5025 -12.12875 3.255 -13 3 C-4.03773585 -2.01886792 -4.03773585 -2.01886792 0 0 Z " fill="#99C6EF" transform="translate(122,19)"/>
<path d="M0 0 C-3.50538557 1.96301592 -7.13351728 2.95902388 -11 4 C-11.33 3.01 -11.66 2.02 -12 1 C-7.9472484 0.01751476 -4.16138263 -0.08159574 0 0 Z " fill="#1983E1" transform="translate(145,16)"/>
<path d="M0 0 C0.66 0 1.32 0 2 0 C2 2.31 2 4.62 2 7 C0.68 7 -0.64 7 -2 7 C-1.34 4.69 -0.68 2.38 0 0 Z " fill="#1C5BA8" transform="translate(109,145)"/>
<path d="M0 0 C0.598125 0.20625 1.19625 0.4125 1.8125 0.625 C2.1425 1.945 2.4725 3.265 2.8125 4.625 C2.1525 4.625 1.4925 4.625 0.8125 4.625 C0.1525 3.965 -0.5075 3.305 -1.1875 2.625 C-3.25624034 1.9824765 -3.25624034 1.9824765 -5.1875 1.625 C-2.1875 -0.375 -2.1875 -0.375 0 0 Z " fill="#1E6FC1" transform="translate(170.1875,133.375)"/>
<path d="M0 0 C0.99 0 1.98 0 3 0 C3.625 1.8125 3.625 1.8125 4 4 C3.01 5.485 3.01 5.485 2 7 C0.4375 4.625 0.4375 4.625 -1 2 C-0.67 1.34 -0.34 0.68 0 0 Z " fill="#58A8EC" transform="translate(115,22)"/>
<path d="M0 0 C0.99 0.33 1.98 0.66 3 1 C2.67 2.65 2.34 4.3 2 6 C1.67 5.34 1.34 4.68 1 4 C-1.02463255 3.34786708 -1.02463255 3.34786708 -3 3 C-2.01 2.01 -1.02 1.02 0 0 Z " fill="#1360AF" transform="translate(150,161)"/>
<path d="M0 0 C1.21236328 0.01353516 1.21236328 0.01353516 2.44921875 0.02734375 C3.37154297 0.04474609 3.37154297 0.04474609 4.3125 0.0625 C1.07930553 2.21796298 -0.85646958 2.74324747 -4.6875 3.0625 C-5.6775 2.4025 -6.6675 1.7425 -7.6875 1.0625 C-4.80538698 0.10179566 -2.98899956 -0.04331883 0 0 Z " fill="#4D79B7" transform="translate(236.6875,115.9375)"/>
<path d="M0 0 C0.99 0.33 1.98 0.66 3 1 C3 2.65 3 4.3 3 6 C1.35 6.33 -0.3 6.66 -2 7 C-1.34 4.69 -0.68 2.38 0 0 Z " fill="#015DC1" transform="translate(216,106)"/>
<path d="M0 0 C1.98 0.99 1.98 0.99 4 2 C3.34 4.31 2.68 6.62 2 9 C0.14223235 5.86501708 -0.20140476 3.62528568 0 0 Z " fill="#0053B9" transform="translate(229,93)"/>
<path d="M0 0 C2.31 0.66 4.62 1.32 7 2 C6.67 2.66 6.34 3.32 6 4 C4 4 2 4 0 4 C-0.33 3.01 -0.66 2.02 -1 1 C-0.67 0.67 -0.34 0.34 0 0 Z " fill="#004BA9" transform="translate(170,196)"/>
<path d="M0 0 C0.125 2.875 0.125 2.875 0 6 C-0.66 6.66 -1.32 7.32 -2 8 C-2.33 5.69 -2.66 3.38 -3 1 C-1 0 -1 0 0 0 Z " fill="#145DC4" transform="translate(87,146)"/>
<path d="" fill="#FFFFFF" transform="translate(0,0)"/>
<path d="" fill="#FFFFFF" transform="translate(0,0)"/>
<path d="" fill="#FFFFFF" transform="translate(0,0)"/>
<path d="" fill="#FFFFFF" transform="translate(0,0)"/>
</svg>
