<?xml version="1.0" encoding="UTF-8"?>
<svg version="1.1" xmlns="http://www.w3.org/2000/svg" width="400" height="400">
<path d="M0 0 C1.17280014 0.00539291 1.17280014 0.00539291 2.36929321 0.01089478 C3.18873917 0.01074875 4.00818512 0.01060272 4.85246277 0.01045227 C7.57416385 0.01115164 10.29579737 0.01894515 13.01748657 0.02676392 C14.89935773 0.02862801 16.78122938 0.03005195 18.6631012 0.03105164 C23.62631561 0.0348775 28.58950096 0.04470836 33.55270386 0.05575562 C38.61322639 0.06596827 43.67375359 0.07054894 48.73428345 0.07559204 C58.67114521 0.08633057 68.60798535 0.10340781 78.54483032 0.12442017 C81.45991072 4.99320514 81.96281504 9.05885146 81.88540649 14.60830688 C81.88606361 15.85320137 81.88606361 15.85320137 81.88673401 17.12324524 C81.88465375 19.85044358 81.86135904 22.57701749 81.83779907 25.30410767 C81.8322004 27.20124984 81.82793158 29.09839636 81.82493591 30.99554443 C81.81350852 35.97687864 81.78405946 40.95794839 81.75082397 45.93917847 C81.72007767 51.02693098 81.70642084 56.11472643 81.6913147 61.20254517 C81.65918769 71.17663809 81.60643695 81.15046571 81.54483032 91.12442017 C73.29483032 91.12442017 65.04483032 91.12442017 56.54483032 91.12442017 C56.21483032 66.04442017 55.88483032 40.96442017 55.54483032 15.12442017 C54.22483032 15.12442017 52.90483032 15.12442017 51.54483032 15.12442017 C51.54483032 40.20442017 51.54483032 65.28442017 51.54483032 91.12442017 C41.64483032 91.12442017 31.74483032 91.12442017 21.54483032 91.12442017 C21.54483032 66.04442017 21.54483032 40.96442017 21.54483032 15.12442017 C20.22483032 15.12442017 18.90483032 15.12442017 17.54483032 15.12442017 C17.21483032 40.20442017 16.88483032 65.28442017 16.54483032 91.12442017 C8.29483032 91.12442017 0.04483032 91.12442017 -8.45516968 91.12442017 C-8.50035743 80.12815337 -8.53704954 69.13194827 -8.55879402 58.13560963 C-8.56923036 53.02954979 -8.58338691 47.92355678 -8.60604858 42.8175354 C-8.62778217 37.88977591 -8.63973943 32.96208069 -8.64492416 28.03427696 C-8.64861898 26.15441565 -8.655834 24.27455784 -8.66662979 22.39472389 C-8.6811515 19.76133247 -8.68314733 17.12820653 -8.68222046 14.49478149 C-8.68941101 13.7179451 -8.69660156 12.9411087 -8.70401001 12.14073181 C-8.67422983 4.31934354 -8.18569996 0.01588982 0 0 Z " fill="#000000" transform="translate(164.45516967773438,187.87557983398438)"/>
<path d="M0 0 C1.875 0.25 1.875 0.25 4 1 C4.25136719 1.64195313 4.50273437 2.28390625 4.76171875 2.9453125 C5.87197579 5.27651317 5.87197579 5.27651317 8.71484375 5.9765625 C9.77832031 6.19054687 10.84179688 6.40453125 11.9375 6.625 C16.38768754 7.54423679 19.2266589 8.4236968 22.6875 11.5 C25.0618666 13.24106382 25.0618666 13.24106382 28.58984375 13.7265625 C33.7917718 14.97025813 37.60758508 17.75304908 41.875 20.875 C42.63296875 21.40480469 43.3909375 21.93460938 44.171875 22.48046875 C47.86396963 25.1280028 50.00501491 26.8869095 52 31 C52.9590625 31.2165625 52.9590625 31.2165625 53.9375 31.4375 C56.97701663 32.26645908 57.42728945 34.37881574 59 37 C59.66 37.165 60.32 37.33 61 37.5 C61.66 37.665 62.32 37.83 63 38 C64 39.66666667 65 41.33333333 66 43 C67.33211368 43.33817455 68.66571003 43.67051684 70 44 C71.7592615 45.0555569 73.48612421 46.16597403 75.1875 47.3125 C85.32170937 53.91057481 93.82494965 56.94785627 106 56 C109.3859434 54.76763727 109.3859434 54.76763727 112 53 C112.928125 52.690625 113.85625 52.38125 114.8125 52.0625 C115.534375 51.711875 116.25625 51.36125 117 51 C117.65213292 48.97536745 117.65213292 48.97536745 118 47 C118.99 46.67 119.98 46.34 121 46 C122.43010634 43.56525023 122.43010634 43.56525023 123.671875 40.53125 C124.42210937 38.83742188 124.42210937 38.83742188 125.1875 37.109375 C126.21530787 34.73513881 127.24139841 32.36015832 128.265625 29.984375 C131.43400141 22.8393629 134.89737635 16.91780187 140 11 C140.721875 10.071875 141.44375 9.14375 142.1875 8.1875 C146.003423 3.58207568 147.87724382 1.60027021 154 1 C155.918125 0.7215625 155.918125 0.7215625 157.875 0.4375 C158.90625 0.293125 159.9375 0.14875 161 0 C162.74133782 3.73337407 163.25146043 6.45818096 162.9375 10.5625 C162.88464844 11.49191406 162.83179688 12.42132813 162.77734375 13.37890625 C161.10375552 19.02201029 154.93172927 21.31642047 150.0625 24 C147.69592154 25.31277158 145.34494408 26.64903921 143 28 C141.4221875 28.87785156 141.4221875 28.87785156 139.8125 29.7734375 C136.21112241 32.62452809 134.79974734 35.50361716 132.9375 39.625 C132.59662354 40.337771 132.25574707 41.05054199 131.90454102 41.78491211 C130.44146427 44.84949757 129.0293273 47.93542996 127.625 51.02734375 C125.60878744 55.33169228 123.7429897 58.4837358 120.25 61.75 C118.01984336 63.85327683 117.02907756 64.9311321 115.8125 67.8125 C116.04417097 71.75090654 117.38940983 74.58501582 118.9453125 78.1796875 C121.31538759 84.51744384 121.88440739 91.33762482 122.234375 98.05859375 C122.27022705 98.73575439 122.3060791 99.41291504 122.34301758 100.1105957 C122.43322686 102.03389496 122.49658039 103.95839776 122.55859375 105.8828125 C122.74328872 108.95101247 122.74328872 108.95101247 124.33984375 110.83203125 C126.17366401 112.18376399 126.17366401 112.18376399 129.125 113.5625 C132 116 132 116 132.46875 118.1640625 C132.57525625 119.88413838 132.65760379 121.60583996 132.71875 123.328125 C133.1071032 127.01748041 134.5458064 129.83703215 136.2578125 133.08984375 C137 135 137 135 136 138 C135.77674186 140.05893621 135.59294241 142.12233653 135.4375 144.1875 C135.35371094 145.27417969 135.26992188 146.36085937 135.18359375 147.48046875 C135.12300781 148.31191406 135.06242188 149.14335937 135 150 C129.203125 150.1328125 129.203125 150.1328125 127.375 148.9375 C123.23593941 143.10518735 121.3705455 138.62766911 120.75 131.5625 C120.67265625 130.83095703 120.5953125 130.09941406 120.515625 129.34570312 C120.3294329 127.56524115 120.16265336 125.78276645 120 124 C119.38125 123.896875 118.7625 123.79375 118.125 123.6875 C116 123 116 123 114 120 C113.01 119.5359375 113.01 119.5359375 112 119.0625 C109.48473386 117.72626487 109.19398876 116.53722612 108 114 C106.07459591 111.89408927 104.55552905 110.27776453 102 109 C101.6257255 107.67757515 101.29772506 106.34173346 101 105 C99.78828676 102.40953827 98.54753381 99.85906169 97.25 97.3125 C96.88946533 96.60077637 96.52893066 95.88905273 96.1574707 95.15576172 C95.11153353 93.10039805 94.05770193 91.04933001 93 89 C92.49339844 88.01644531 91.98679687 87.03289062 91.46484375 86.01953125 C88.56759585 80.58829895 86.33779597 78.29610886 80.3125 76.375 C79.50425781 76.11460937 78.69601562 75.85421875 77.86328125 75.5859375 C76.94095703 75.29589844 76.94095703 75.29589844 76 75 C76 74.34 76 73.68 76 73 C75.43079834 72.97494385 74.86159668 72.9498877 74.27514648 72.92407227 C71.66242687 72.80706106 69.04997638 72.6848172 66.4375 72.5625 C65.54224609 72.52318359 64.64699219 72.48386719 63.72460938 72.44335938 C49.77929688 71.77929688 49.77929688 71.77929688 47 69 C44.90877124 67.84621861 42.88690239 66.96130871 40.625 66.1875 C35.63949979 63.93215467 32.29934814 60.90527602 30 56 C28.37253306 54.29503463 26.71108689 52.62102968 25 51 C23.00016466 51.79117904 23.00016466 51.79117904 21 53 C20.67 53.99 20.34 54.98 20 56 C15.06212759 57.14479268 11.36526613 56.7090091 6.4375 55.625 C5.15746094 55.34914062 3.87742188 55.07328125 2.55859375 54.7890625 C1.38425781 54.52867187 0.20992187 54.26828125 -1 54 C-1.91007812 53.83371094 -2.82015625 53.66742188 -3.7578125 53.49609375 C-6.78102674 52.82719443 -9.28203834 51.45379345 -12 50 C-12.33 50.66 -12.66 51.32 -13 52 C-13.98020375 53.0194119 -14.97803008 54.02246356 -16 55 C-22.3813987 52.71232877 -22.3813987 52.71232877 -25.0625 49.625 C-26 47 -26 47 -25.375 44.5 C-24.92125 43.675 -24.4675 42.85 -24 42 C-23.65582031 41.14019531 -23.31164062 40.28039062 -22.95703125 39.39453125 C-21 37 -21 37 -19.1640625 36.50341797 C-16.86987008 36.28151561 -14.61723732 36.20451611 -12.3125 36.1875 C-11.11657227 36.14979492 -11.11657227 36.14979492 -9.89648438 36.11132812 C-7.9315198 36.05249685 -5.96570609 36.02337596 -4 36 C-3.67 35.01 -3.34 34.02 -3 33 C-3.97839844 33.19529297 -3.97839844 33.19529297 -4.9765625 33.39453125 C-11.99094129 34.50152023 -11.99094129 34.50152023 -14.96484375 33.0234375 C-17.09822748 31.23953228 -18.75155787 29.49688425 -20 27 C-20.66 27 -21.32 27 -22 27 C-23.55577239 21.34264585 -22.24281523 18.20333134 -20 13 C-19.34 13 -18.68 13 -18 13 C-17.67 11.68 -17.34 10.36 -17 9 C-16.2575 8.95875 -15.515 8.9175 -14.75 8.875 C-10.90448224 7.65142617 -9.95694517 5.40653418 -8 2 C-6.02 2.66 -4.04 3.32 -2 4 C-1.34 2.68 -0.68 1.36 0 0 Z M8 7 C12 8 12 8 12 8 Z M-9 31 C-5 32 -5 32 -5 32 Z M-2 32 C-2 33.98 -2 35.96 -2 38 C-1.67 38 -1.34 38 -1 38 C-1 36.02 -1 34.04 -1 32 C-1.33 32 -1.66 32 -2 32 Z M94 58 C94 58.33 94 58.66 94 59 C97.3 59 100.6 59 104 59 C104 58.67 104 58.34 104 58 C100.7 58 97.4 58 94 58 Z M114 68 C115 70 115 70 115 70 Z M129 148 C129 148.33 129 148.66 129 149 C130.65 149 132.3 149 134 149 C134 148.67 134 148.34 134 148 C132.35 148 130.7 148 129 148 Z " fill="#000000" transform="translate(231,94)"/>
<path d="M0 0 C0.93106567 -0.00945648 1.86213135 -0.01891296 2.82141113 -0.02865601 C4.32617004 -0.01954697 4.32617004 -0.01954697 5.86132812 -0.01025391 C7.4091095 -0.01455917 7.4091095 -0.01455917 8.98815918 -0.01895142 C11.17033436 -0.02099342 13.35252778 -0.01545411 15.53466797 -0.00292969 C18.87964713 0.01312154 22.22341791 -0.00277432 25.56835938 -0.02197266 C27.68685163 -0.01999025 29.80534314 -0.01614663 31.92382812 -0.01025391 C32.92700073 -0.0163266 33.93017334 -0.02239929 34.96374512 -0.02865601 C36.36034363 -0.01447128 36.36034363 -0.01447128 37.78515625 0 C38.60439575 0.00238678 39.42363525 0.00477356 40.2677002 0.00723267 C43.00814012 0.49854236 43.71795342 1.17366952 45.39257812 3.38818359 C48.36114839 8.14286552 48.81144275 12.21168366 48.7331543 17.68847656 C48.73381142 18.90411034 48.73381142 18.90411034 48.73448181 20.14430237 C48.73240207 22.80657563 48.70910992 25.46820868 48.68554688 28.13037109 C48.67994802 29.98267269 48.67567929 31.83497874 48.67268372 33.68728638 C48.66125778 38.55025611 48.63181001 43.41295483 48.59857178 48.27581787 C48.5678223 53.24292333 48.55416797 58.21007279 48.5390625 63.17724609 C48.50693806 72.91436317 48.45418855 82.65120839 48.39257812 92.38818359 C39.15257812 92.38818359 29.91257812 92.38818359 20.39257812 92.38818359 C20.39257812 85.78818359 20.39257812 79.18818359 20.39257812 72.38818359 C19.40257812 72.38818359 18.41257812 72.38818359 17.39257812 72.38818359 C17.39257812 78.98818359 17.39257812 85.58818359 17.39257812 92.38818359 C8.15257812 92.38818359 -1.08742188 92.38818359 -10.60742188 92.38818359 C-10.67527785 81.81761409 -10.73028429 71.24718996 -10.76285839 60.67645168 C-10.77849463 55.76769843 -10.79969561 50.85910229 -10.83374023 45.95043945 C-10.8664065 41.2106936 -10.88429025 36.47109862 -10.8920536 31.73124886 C-10.89758407 29.92559498 -10.90838374 28.11994908 -10.92461205 26.31435966 C-10.94648307 23.77946189 -10.94938479 21.24518248 -10.94799805 18.71020508 C-10.95878387 17.96861145 -10.9695697 17.22701782 -10.98068237 16.46295166 C-10.94594313 10.56987812 -9.7030369 6.25299809 -6.20788574 1.47494507 C-4.05242998 0.01132797 -2.59625442 0.00756395 0 0 Z M-3.60742188 1.38818359 C-3.60742188 1.71818359 -3.60742188 2.04818359 -3.60742188 2.38818359 C11.57257813 2.38818359 26.75257813 2.38818359 42.39257812 2.38818359 C42.39257812 2.05818359 42.39257812 1.72818359 42.39257812 1.38818359 C27.21257812 1.38818359 12.03257812 1.38818359 -3.60742188 1.38818359 Z M21.39257812 15.38818359 C21.39257812 29.57818359 21.39257812 43.76818359 21.39257812 58.38818359 C21.72257812 58.38818359 22.05257812 58.38818359 22.39257812 58.38818359 C22.39257812 44.19818359 22.39257812 30.00818359 22.39257812 15.38818359 C22.06257813 15.38818359 21.73257813 15.38818359 21.39257812 15.38818359 Z M15.39257812 16.38818359 C15.39257812 30.24818359 15.39257812 44.10818359 15.39257812 58.38818359 C15.72257812 58.38818359 16.05257813 58.38818359 16.39257812 58.38818359 C16.39257812 44.52818359 16.39257812 30.66818359 16.39257812 16.38818359 C16.06257813 16.38818359 15.73257812 16.38818359 15.39257812 16.38818359 Z M17.39257812 16.38818359 C17.39257812 29.58818359 17.39257812 42.78818359 17.39257812 56.38818359 C18.38257813 56.38818359 19.37257813 56.38818359 20.39257812 56.38818359 C20.39257812 43.18818359 20.39257812 29.98818359 20.39257812 16.38818359 C19.40257812 16.38818359 18.41257812 16.38818359 17.39257812 16.38818359 Z " fill="#000000" transform="translate(263.607421875,186.61181640625)"/>
<path d="M0 0 C9.24 0 18.48 0 28 0 C28 25.08 28 50.16 28 76 C29.485 76.495 29.485 76.495 31 77 C32.91796846 75.08203154 32.18403477 71.52508878 32.20532227 68.90991211 C32.21522186 68.16849472 32.22512146 67.42707733 32.23532104 66.66319275 C32.26702466 64.20127607 32.29172826 61.73934007 32.31640625 59.27734375 C32.33696814 57.57482895 32.3579644 55.87231935 32.37937927 54.16981506 C32.43467899 49.68012691 32.48405328 45.19039208 32.53222656 40.70062256 C32.58238406 36.12263822 32.63810008 31.54472197 32.69335938 26.96679688 C32.80103753 17.97792049 32.9019475 8.98898654 33 0 C41.58 0 50.16 0 59 0 C59.06778556 10.73549477 59.1228218 21.47084731 59.15543652 32.20650768 C59.17109019 37.19154501 59.19232311 42.17642829 59.22631836 47.16137695 C59.2589223 51.97243577 59.27685526 56.78334644 59.28463173 61.59450722 C59.29017337 63.42972457 59.30099483 65.26493386 59.31719017 67.10008812 C59.33897825 69.67131426 59.34196636 72.24192877 59.34057617 74.81323242 C59.351362 75.57136734 59.36214783 76.32950226 59.3732605 77.11061096 C59.34670863 81.65127272 58.63628266 84.32050181 56 88 C55.31903578 89.32608822 54.64669414 90.65686601 54 92 C47.07665012 92.07595711 40.15340737 92.12856051 33.22973633 92.16479492 C30.87357569 92.17989747 28.51744323 92.20038091 26.16137695 92.22631836 C22.77808688 92.26263656 19.39516792 92.27971167 16.01171875 92.29296875 C14.42722176 92.31619453 14.42722176 92.31619453 12.81071472 92.33988953 C11.33952934 92.34022942 11.33952934 92.34022942 9.83862305 92.34057617 C8.97480515 92.34723801 8.11098724 92.35389984 7.22099304 92.36076355 C4.43329515 91.90794818 3.66687478 91.25749349 2 89 C-0.32639208 84.69723053 -0.27177959 80.49557853 -0.22705078 75.72143555 C-0.22734283 74.90140549 -0.22763489 74.08137543 -0.22793579 73.23649597 C-0.22654675 70.53646115 -0.21100567 67.83670514 -0.1953125 65.13671875 C-0.19158085 63.2605657 -0.1887346 61.3844107 -0.18673706 59.508255 C-0.17911254 54.57793772 -0.15947417 49.64773886 -0.1373291 44.71746826 C-0.11684524 39.68340659 -0.10772991 34.64932573 -0.09765625 29.61523438 C-0.07622717 19.74342926 -0.04105463 9.87174302 0 0 Z M5 90 C5 90.33 5 90.66 5 91 C20.84 91 36.68 91 53 91 C53 90.67 53 90.34 53 90 C37.16 90 21.32 90 5 90 Z " fill="#000000" transform="translate(90,189)"/>
<path d="M0 0 C1.38707417 3.05378659 1.1327048 6.38315159 1.14526367 9.69897461 C1.15164352 10.84373764 1.15802338 11.98850067 1.16459656 13.16795349 C1.16570938 14.40030228 1.1668222 15.63265106 1.16796875 16.90234375 C1.17296135 18.80712242 1.17296135 18.80712242 1.17805481 20.75038147 C1.18311779 23.43608099 1.18589588 26.1216793 1.18530273 28.80737305 C1.1852011 32.24160357 1.19885937 35.67562738 1.21607494 39.10980892 C1.22989334 42.39481275 1.22928425 45.67981481 1.23046875 48.96484375 C1.23765427 50.1951683 1.24483978 51.42549286 1.25224304 52.69309998 C1.24916641 53.84101517 1.24608978 54.98893036 1.24291992 56.17163086 C1.24434494 57.17882675 1.24576996 58.18602264 1.24723816 59.22373962 C0.98259807 62.19540792 0.35575475 64.34762951 -1 67 C-3.125 67.8125 -3.125 67.8125 -5 68 C-5 68.33 -5 68.66 -5 69 C-12.92 69 -20.84 69 -29 69 C-29 75.6 -29 82.2 -29 89 C-38.24 89 -47.48 89 -57 89 C-57 59.3 -57 29.6 -57 -1 C-44.2846875 -1.309375 -44.2846875 -1.309375 -31.3125 -1.625 C-28.64325439 -1.69541504 -25.97400879 -1.76583008 -23.22387695 -1.83837891 C-21.10369668 -1.88527472 -18.98349892 -1.93138896 -16.86328125 -1.9765625 C-15.76608765 -2.00838623 -14.66889404 -2.04020996 -13.53845215 -2.07299805 C-12.48331421 -2.09354248 -11.42817627 -2.11408691 -10.34106445 -2.13525391 C-9.4283931 -2.15746002 -8.51572174 -2.17966614 -7.57539368 -2.20254517 C-4.62806192 -1.97074845 -2.58653262 -1.44089589 0 0 Z M-31 11 C-31 25.52 -31 40.04 -31 55 C-30.67 55 -30.34 55 -30 55 C-30 40.48 -30 25.96 -30 11 C-30.33 11 -30.66 11 -31 11 Z M-26 12 C-26.99 12.33 -27.98 12.66 -29 13 C-29 26.2 -29 39.4 -29 53 C-27.68 53.33 -26.36 53.66 -25 54 C-23.33422375 50.66844749 -23.87992144 46.93463941 -23.90234375 43.2734375 C-23.90446617 41.97921371 -23.90446617 41.97921371 -23.90663147 40.65884399 C-23.91223812 37.8975277 -23.92479173 35.13629188 -23.9375 32.375 C-23.94251414 30.5052095 -23.9470772 28.63541774 -23.95117188 26.765625 C-23.96220971 22.17705223 -23.9794788 17.58853977 -24 13 C-24.66 12.67 -25.32 12.34 -26 12 Z " fill="#000000" transform="translate(82,190)"/>
<path d="M0 0 C2.10241603 -0.13496251 4.2072961 -0.23197307 6.3125 -0.3125 C7.48425781 -0.37050781 8.65601563 -0.42851562 9.86328125 -0.48828125 C13 0 13 0 14.79296875 2.26953125 C15.19128906 3.17058594 15.58960938 4.07164062 16 5 C16.39574219 5.6703125 16.79148437 6.340625 17.19921875 7.03125 C18.6671835 10.64029504 17.85477098 14.28687487 17 18 C15.5 20.4375 15.5 20.4375 14 22 C13.67 22.66 13.34 23.32 13 24 C10.89758397 24.13496251 8.7927039 24.23197307 6.6875 24.3125 C5.51574219 24.37050781 4.34398437 24.42851562 3.13671875 24.48828125 C0 24 0 24 -1.79296875 21.73046875 C-2.19128906 20.82941406 -2.58960938 19.92835938 -3 19 C-3.39574219 18.3296875 -3.79148437 17.659375 -4.19921875 16.96875 C-5.6671835 13.35970496 -4.85477098 9.71312513 -4 6 C-2.5 3.5625 -2.5 3.5625 -1 2 C-0.67 1.34 -0.34 0.68 0 0 Z M5 3 C4.67 3.66 4.34 4.32 4 5 C5.32 5 6.64 5 8 5 C8 4.34 8 3.68 8 3 C7.01 3 6.02 3 5 3 Z M1 5 C-1.25017908 7.34018624 -1.96442406 8.75605071 -2.4375 12 C-2.22123934 15.57564746 -2.22123934 15.57564746 2 19 C2 14.38 2 9.76 2 5 C1.67 5 1.34 5 1 5 Z M11 5 C9.57958179 7.84083641 9.68547728 9.85477278 10 13 C11.87501931 15.37719693 11.87501931 15.37719693 14 17 C15.42041821 14.15916359 15.31452272 12.14522722 15 9 C13.12498069 6.62280307 13.12498069 6.62280307 11 5 Z M6 8 C7 11 7 11 7 11 Z M6 16 C6 16.99 6 17.98 6 19 C6.66 18.67 7.32 18.34 8 18 C7.34 17.34 6.68 16.68 6 16 Z " fill="#000000" transform="translate(323,256)"/>
<path d="M0 0 C0.33 0 0.66 0 1 0 C1 29.7 1 59.4 1 90 C0.67 90 0.34 90 0 90 C0 60.3 0 30.6 0 0 Z " fill="#000000" transform="translate(23,189)"/>
<path d="M0 0 C0.33 0 0.66 0 1 0 C1 27.72 1 55.44 1 84 C0.67 84 0.34 84 0 84 C0 56.28 0 28.56 0 0 Z " fill="#000000" transform="translate(88,189)"/>
<path d="M0 0 C0.33 0 0.66 0 1 0 C1 27.39 1 54.78 1 83 C0.67 83 0.34 83 0 83 C0 55.61 0 28.22 0 0 Z " fill="#000000" transform="translate(313,196)"/>
<path d="M0 0 C0.33 0 0.66 0 1 0 C1 27.39 1 54.78 1 83 C0.67 83 0.34 83 0 83 C0 55.61 0 28.22 0 0 Z " fill="#000000" transform="translate(247,194)"/>
<path d="M0 0 C0.33 0 0.66 0 1 0 C1 27.39 1 54.78 1 83 C0.67 83 0.34 83 0 83 C0 55.61 0 28.22 0 0 Z " fill="#000000" transform="translate(154,194)"/>
<path d="M0 0 C0.33 0 0.66 0 1 0 C1 27.06 1 54.12 1 82 C0.67 82 0.34 82 0 82 C0 54.94 0 27.88 0 0 Z " fill="#000000" transform="translate(150,190)"/>
<path d="M0 0 C0.33 0 0.66 0 1 0 C1 26.73 1 53.46 1 81 C0.67 81 0.34 81 0 81 C0 54.27 0 27.54 0 0 Z " fill="#000000" transform="translate(251,197)"/>
<path d="M0 0 C25.74 0 51.48 0 78 0 C78 0.33 78 0.66 78 1 C52.26 1 26.52 1 0 1 C0 0.67 0 0.34 0 0 Z " fill="#000000" transform="translate(162,187)"/>
<path d="M0 0 C0.33 0 0.66 0 1 0 C1 25.08 1 50.16 1 76 C0.67 76 0.34 76 0 76 C0 50.92 0 25.84 0 0 Z " fill="#000000" transform="translate(219,203)"/>
<path d="M0 0 C0.33 0 0.66 0 1 0 C1 25.08 1 50.16 1 76 C0.67 76 0.34 76 0 76 C0 50.92 0 25.84 0 0 Z " fill="#000000" transform="translate(182,203)"/>
<path d="M0 0 C0.33 0 0.66 0 1 0 C1 25.08 1 50.16 1 76 C0.67 76 0.34 76 0 76 C0 50.92 0 25.84 0 0 Z " fill="#000000" transform="translate(121,189)"/>
<path d="M0 0 C0.33 0 0.66 0 1 0 C1 19.14 1 38.28 1 58 C0.67 58 0.34 58 0 58 C0 38.86 0 19.72 0 0 Z " fill="#000000" transform="translate(84,194)"/>
<path d="M0 0 C17.16 0 34.32 0 52 0 C52 0.33 52 0.66 52 1 C34.84 1 17.68 1 0 1 C0 0.67 0 0.34 0 0 Z " fill="#000000" transform="translate(25,187)"/>
<path d="M0 0 C0.33 0 0.66 0 1 0 C1 12.87 1 25.74 1 39 C0.67 39 0.34 39 0 39 C0 26.13 0 13.26 0 0 Z " fill="#000000" transform="translate(56,203)"/>
<path d="M0 0 C8.58 0 17.16 0 26 0 C26 0.33 26 0.66 26 1 C17.42 1 8.84 1 0 1 C0 0.67 0 0.34 0 0 Z " fill="#000000" transform="translate(188,280)"/>
<path d="M0 0 C8.25 0 16.5 0 25 0 C25 0.33 25 0.66 25 1 C16.75 1 8.5 1 0 1 C0 0.67 0 0.34 0 0 Z " fill="#000000" transform="translate(286,280)"/>
<path d="M0 0 C8.25 0 16.5 0 25 0 C25 0.33 25 0.66 25 1 C16.75 1 8.5 1 0 1 C0 0.67 0 0.34 0 0 Z " fill="#000000" transform="translate(254,280)"/>
<path d="M0 0 C8.25 0 16.5 0 25 0 C25 0.33 25 0.66 25 1 C16.75 1 8.5 1 0 1 C0 0.67 0 0.34 0 0 Z " fill="#000000" transform="translate(221,280)"/>
<path d="M0 0 C8.25 0 16.5 0 25 0 C25 0.33 25 0.66 25 1 C16.75 1 8.5 1 0 1 C0 0.67 0 0.34 0 0 Z " fill="#000000" transform="translate(156,280)"/>
<path d="M0 0 C8.25 0 16.5 0 25 0 C25 0.33 25 0.66 25 1 C16.75 1 8.5 1 0 1 C0 0.67 0 0.34 0 0 Z " fill="#000000" transform="translate(25,280)"/>
<path d="M0 0 C8.25 0 16.5 0 25 0 C25 0.33 25 0.66 25 1 C16.75 1 8.5 1 0 1 C0 0.67 0 0.34 0 0 Z " fill="#000000" transform="translate(123,187)"/>
<path d="M0 0 C8.25 0 16.5 0 25 0 C25 0.33 25 0.66 25 1 C16.75 1 8.5 1 0 1 C0 0.67 0 0.34 0 0 Z " fill="#000000" transform="translate(91,187)"/>
<path d="M0 0 C0.33 0 0.66 0 1 0 C1 3.3 1 6.6 1 10 C-1 8 -1 8 -1.1875 5 C-1 2 -1 2 0 0 Z " fill="#000000" transform="translate(323,263)"/>
<path d="M0 0 C0.33 0 0.66 0 1 0 C1 4.95 1 9.9 1 15 C0.67 15 0.34 15 0 15 C0 10.05 0 5.1 0 0 Z " fill="#000000" transform="translate(354,188)"/>
<path d="M0 0 C4.62 0 9.24 0 14 0 C14 0.33 14 0.66 14 1 C9.38 1 4.76 1 0 1 C0 0.67 0 0.34 0 0 Z " fill="#000000" transform="translate(293,167)"/>
<path d="M0 0 C0.33 0 0.66 0 1 0 C1 3.96 1 7.92 1 12 C0.67 12 0.34 12 0 12 C0 8.04 0 4.08 0 0 Z " fill="#000000" transform="translate(350,218)"/>
<path d="M0 0 C3.96 0 7.92 0 12 0 C12 0.33 12 0.66 12 1 C8.04 1 4.08 1 0 1 C0 0.67 0 0.34 0 0 Z " fill="#000000" transform="translate(215,129)"/>
<path d="M0 0 C2 2 2 2 2.125 5.125 C2.08375 6.07375 2.0425 7.0225 2 8 C0.23537317 4.91190305 0 3.76687864 0 0 Z " fill="#000000" transform="translate(335,263)"/>
<path d="M0 0 C0.33 0 0.66 0 1 0 C1 3.3 1 6.6 1 10 C0.67 10 0.34 10 0 10 C0 6.7 0 3.4 0 0 Z " fill="#000000" transform="translate(367,232)"/>
<path d="M0 0 C0.33 0 0.66 0 1 0 C1 2.64 1 5.28 1 8 C0.67 8 0.34 8 0 8 C0 5.36 0 2.72 0 0 Z " fill="#000000" transform="translate(353,180)"/>
<path d="M0 0 C0.33 0 0.66 0 1 0 C1 2.31 1 4.62 1 7 C0.67 7 0.34 7 0 7 C0 4.69 0 2.38 0 0 Z " fill="#000000" transform="translate(364,213)"/>
<path d="M0 0 C0 0.99 0 1.98 0 3 C-0.99 3 -1.98 3 -3 3 C-2.01 2.01 -1.02 1.02 0 0 Z " fill="#000000" transform="translate(353,154)"/>
<path d="M0 0 C0.33 0 0.66 0 1 0 C1 1.98 1 3.96 1 6 C0.67 6 0.34 6 0 6 C0 4.02 0 2.04 0 0 Z " fill="#000000" transform="translate(342,265)"/>
<path d="M0 0 C0.33 0 0.66 0 1 0 C1 1.98 1 3.96 1 6 C0.67 6 0.34 6 0 6 C0 4.02 0 2.04 0 0 Z " fill="#000000" transform="translate(316,265)"/>
<path d="M0 0 C1.98 0 3.96 0 6 0 C6 0.33 6 0.66 6 1 C4.02 1 2.04 1 0 1 C0 0.67 0 0.34 0 0 Z " fill="#000000" transform="translate(287,166)"/>
<path d="M0 0 C0 0.99 0 1.98 0 3 C-0.66 2.67 -1.32 2.34 -2 2 C-1.34 1.34 -0.68 0.68 0 0 Z " fill="#000000" transform="translate(147,276)"/>
<path d="M0 0 C0.33 0 0.66 0 1 0 C1 1.65 1 3.3 1 5 C0.67 5 0.34 5 0 5 C0 3.35 0 1.7 0 0 Z " fill="#000000" transform="translate(352,175)"/>
<path d="M0 0 C1.65 0 3.3 0 5 0 C5 0.33 5 0.66 5 1 C3.35 1 1.7 1 0 1 C0 0.67 0 0.34 0 0 Z " fill="#000000" transform="translate(240,151)"/>
<path d="M0 0 C1.65 0 3.3 0 5 0 C5 0.33 5 0.66 5 1 C3.35 1 1.7 1 0 1 C0 0.67 0 0.34 0 0 Z " fill="#000000" transform="translate(235,150)"/>
<path d="M0 0 C0.33 0 0.66 0 1 0 C1 1.65 1 3.3 1 5 C0.67 5 0.34 5 0 5 C0 3.35 0 1.7 0 0 Z " fill="#000000" transform="translate(395,99)"/>
<path d="M0 0 C1.65 0 3.3 0 5 0 C5 0.33 5 0.66 5 1 C3.35 1 1.7 1 0 1 C0 0.67 0 0.34 0 0 Z " fill="#000000" transform="translate(385,93)"/>
<path d="M0 0 C1 4 1 4 1 4 Z " fill="#000000" transform="translate(351,230)"/>
<path d="M0 0 C4 1 4 1 4 1 Z " fill="#000000" transform="translate(211,149)"/>
<path d="M0 0 C3 1 3 1 3 1 Z " fill="#000000" transform="translate(331,280)"/>
<path d="M0 0 C3 1 3 1 3 1 Z " fill="#000000" transform="translate(325,280)"/>
<path d="" fill="#000000" transform="translate(0,0)"/>
<path d="" fill="#000000" transform="translate(0,0)"/>
<path d="" fill="#000000" transform="translate(0,0)"/>
<path d="M0 0 C3 1 3 1 3 1 Z " fill="#000000" transform="translate(331,255)"/>
<path d="M0 0 C3 1 3 1 3 1 Z " fill="#000000" transform="translate(325,255)"/>
<path d="M0 0 C3 1 3 1 3 1 Z " fill="#000000" transform="translate(328,254)"/>
<path d="" fill="#000000" transform="translate(0,0)"/>
<path d="" fill="#000000" transform="translate(0,0)"/>
<path d="" fill="#000000" transform="translate(0,0)"/>
<path d="" fill="#000000" transform="translate(0,0)"/>
<path d="" fill="#000000" transform="translate(0,0)"/>
<path d="" fill="#000000" transform="translate(0,0)"/>
<path d="M0 0 C3 1 3 1 3 1 Z " fill="#000000" transform="translate(232,149)"/>
<path d="" fill="#000000" transform="translate(0,0)"/>
<path d="" fill="#000000" transform="translate(0,0)"/>
<path d="M0 0 C0.99 0.495 0.99 0.495 2 1 C1.01 1.495 1.01 1.495 0 2 C0 1.34 0 0.68 0 0 Z " fill="#000000" transform="translate(207,133)"/>
<path d="" fill="#000000" transform="translate(0,0)"/>
<path d="M0 0 C3 1 3 1 3 1 Z " fill="#000000" transform="translate(212,130)"/>
<path d="" fill="#000000" transform="translate(0,0)"/>
<path d="" fill="#000000" transform="translate(0,0)"/>
<path d="" fill="#000000" transform="translate(0,0)"/>
<path d="" fill="#000000" transform="translate(0,0)"/>
<path d="" fill="#000000" transform="translate(0,0)"/>
<path d="" fill="#000000" transform="translate(0,0)"/>
<path d="" fill="#000000" transform="translate(0,0)"/>
<path d="M0 0 C2 1 2 1 2 1 Z " fill="#000000" transform="translate(77,257)"/>
<path d="" fill="#000000" transform="translate(0,0)"/>
<path d="" fill="#000000" transform="translate(0,0)"/>
<path d="" fill="#000000" transform="translate(0,0)"/>
<path d="" fill="#000000" transform="translate(0,0)"/>
<path d="" fill="#000000" transform="translate(0,0)"/>
<path d="" fill="#000000" transform="translate(0,0)"/>
<path d="" fill="#000000" transform="translate(0,0)"/>
<path d="" fill="#000000" transform="translate(0,0)"/>
<path d="" fill="#000000" transform="translate(0,0)"/>
<path d="" fill="#000000" transform="translate(0,0)"/>
<path d="" fill="#000000" transform="translate(0,0)"/>
<path d="" fill="#000000" transform="translate(0,0)"/>
<path d="" fill="#000000" transform="translate(0,0)"/>
<path d="" fill="#000000" transform="translate(0,0)"/>
<path d="" fill="#000000" transform="translate(0,0)"/>
<path d="" fill="#000000" transform="translate(0,0)"/>
<path d="" fill="#000000" transform="translate(0,0)"/>
<path d="" fill="#000000" transform="translate(0,0)"/>
<path d="" fill="#000000" transform="translate(0,0)"/>
<path d="" fill="#000000" transform="translate(0,0)"/>
<path d="" fill="#000000" transform="translate(0,0)"/>
<path d="M0 0 C2 1 2 1 2 1 Z " fill="#000000" transform="translate(276,162)"/>
<path d="M0 0 C2 1 2 1 2 1 Z " fill="#000000" transform="translate(274,161)"/>
<path d="" fill="#000000" transform="translate(0,0)"/>
<path d="M0 0 C2 1 2 1 2 1 Z " fill="#000000" transform="translate(230,148)"/>
<path d="M0 0 C2 1 2 1 2 1 Z " fill="#000000" transform="translate(209,148)"/>
<path d="" fill="#000000" transform="translate(0,0)"/>
<path d="M0 0 C2 1 2 1 2 1 Z " fill="#000000" transform="translate(254,145)"/>
<path d="" fill="#000000" transform="translate(0,0)"/>
<path d="" fill="#000000" transform="translate(0,0)"/>
<path d="" fill="#000000" transform="translate(0,0)"/>
<path d="" fill="#000000" transform="translate(0,0)"/>
<path d="" fill="#000000" transform="translate(0,0)"/>
<path d="" fill="#000000" transform="translate(0,0)"/>
<path d="" fill="#000000" transform="translate(0,0)"/>
<path d="" fill="#000000" transform="translate(0,0)"/>
<path d="" fill="#000000" transform="translate(0,0)"/>
<path d="" fill="#000000" transform="translate(0,0)"/>
<path d="" fill="#000000" transform="translate(0,0)"/>
<path d="" fill="#000000" transform="translate(0,0)"/>
<path d="" fill="#000000" transform="translate(0,0)"/>
<path d="" fill="#000000" transform="translate(0,0)"/>
<path d="" fill="#000000" transform="translate(0,0)"/>
<path d="" fill="#000000" transform="translate(0,0)"/>
<path d="" fill="#000000" transform="translate(0,0)"/>
<path d="" fill="#000000" transform="translate(0,0)"/>
<path d="" fill="#000000" transform="translate(0,0)"/>
<path d="" fill="#000000" transform="translate(0,0)"/>
<path d="" fill="#000000" transform="translate(0,0)"/>
<path d="" fill="#000000" transform="translate(0,0)"/>
<path d="" fill="#000000" transform="translate(0,0)"/>
<path d="" fill="#000000" transform="translate(0,0)"/>
<path d="M0 0 C2 1 2 1 2 1 Z " fill="#000000" transform="translate(258,107)"/>
<path d="M0 0 C2 1 2 1 2 1 Z " fill="#000000" transform="translate(256,106)"/>
<path d="M0 0 C2 1 2 1 2 1 Z " fill="#000000" transform="translate(254,105)"/>
<path d="M0 0 C2 1 2 1 2 1 Z " fill="#000000" transform="translate(252,104)"/>
<path d="" fill="#000000" transform="translate(0,0)"/>
<path d="" fill="#000000" transform="translate(0,0)"/>
<path d="" fill="#000000" transform="translate(0,0)"/>
<path d="" fill="#000000" transform="translate(0,0)"/>
<path d="M0 0 C2 1 2 1 2 1 Z " fill="#000000" transform="translate(227,97)"/>
<path d="M0 0 C2 1 2 1 2 1 Z " fill="#000000" transform="translate(383,94)"/>
<path d="M0 0 C2 1 2 1 2 1 Z " fill="#000000" transform="translate(223,94)"/>
<path d="" fill="#000000" transform="translate(0,0)"/>
<path d="" fill="#000000" transform="translate(0,0)"/>
<path d="" fill="#000000" transform="translate(0,0)"/>
<path d="" fill="#000000" transform="translate(0,0)"/>
<path d="" fill="#000000" transform="translate(0,0)"/>
<path d="" fill="#000000" transform="translate(0,0)"/>
<path d="" fill="#000000" transform="translate(0,0)"/>
<path d="" fill="#000000" transform="translate(0,0)"/>
<path d="" fill="#000000" transform="translate(0,0)"/>
<path d="" fill="#000000" transform="translate(0,0)"/>
<path d="" fill="#000000" transform="translate(0,0)"/>
<path d="" fill="#000000" transform="translate(0,0)"/>
<path d="" fill="#000000" transform="translate(0,0)"/>
<path d="" fill="#000000" transform="translate(0,0)"/>
<path d="" fill="#000000" transform="translate(0,0)"/>
<path d="" fill="#000000" transform="translate(0,0)"/>
<path d="" fill="#000000" transform="translate(0,0)"/>
<path d="" fill="#000000" transform="translate(0,0)"/>
<path d="" fill="#000000" transform="translate(0,0)"/>
<path d="" fill="#000000" transform="translate(0,0)"/>
<path d="" fill="#000000" transform="translate(0,0)"/>
<path d="" fill="#000000" transform="translate(0,0)"/>
<path d="" fill="#000000" transform="translate(0,0)"/>
<path d="" fill="#000000" transform="translate(0,0)"/>
<path d="" fill="#000000" transform="translate(0,0)"/>
<path d="" fill="#000000" transform="translate(0,0)"/>
<path d="" fill="#000000" transform="translate(0,0)"/>
<path d="" fill="#000000" transform="translate(0,0)"/>
<path d="" fill="#000000" transform="translate(0,0)"/>
<path d="" fill="#000000" transform="translate(0,0)"/>
<path d="" fill="#000000" transform="translate(0,0)"/>
<path d="" fill="#000000" transform="translate(0,0)"/>
<path d="" fill="#000000" transform="translate(0,0)"/>
<path d="" fill="#000000" transform="translate(0,0)"/>
<path d="" fill="#000000" transform="translate(0,0)"/>
<path d="" fill="#000000" transform="translate(0,0)"/>
<path d="" fill="#000000" transform="translate(0,0)"/>
<path d="" fill="#000000" transform="translate(0,0)"/>
<path d="" fill="#000000" transform="translate(0,0)"/>
<path d="" fill="#000000" transform="translate(0,0)"/>
<path d="" fill="#000000" transform="translate(0,0)"/>
<path d="" fill="#000000" transform="translate(0,0)"/>
<path d="" fill="#000000" transform="translate(0,0)"/>
<path d="" fill="#000000" transform="translate(0,0)"/>
<path d="" fill="#000000" transform="translate(0,0)"/>
<path d="" fill="#000000" transform="translate(0,0)"/>
<path d="" fill="#000000" transform="translate(0,0)"/>
<path d="" fill="#000000" transform="translate(0,0)"/>
<path d="" fill="#000000" transform="translate(0,0)"/>
<path d="" fill="#000000" transform="translate(0,0)"/>
<path d="" fill="#000000" transform="translate(0,0)"/>
<path d="" fill="#000000" transform="translate(0,0)"/>
<path d="" fill="#000000" transform="translate(0,0)"/>
<path d="" fill="#000000" transform="translate(0,0)"/>
<path d="" fill="#000000" transform="translate(0,0)"/>
<path d="" fill="#000000" transform="translate(0,0)"/>
<path d="" fill="#000000" transform="translate(0,0)"/>
<path d="" fill="#000000" transform="translate(0,0)"/>
<path d="" fill="#000000" transform="translate(0,0)"/>
<path d="" fill="#000000" transform="translate(0,0)"/>
<path d="" fill="#000000" transform="translate(0,0)"/>
<path d="" fill="#000000" transform="translate(0,0)"/>
<path d="" fill="#000000" transform="translate(0,0)"/>
<path d="" fill="#000000" transform="translate(0,0)"/>
<path d="" fill="#000000" transform="translate(0,0)"/>
<path d="" fill="#000000" transform="translate(0,0)"/>
<path d="" fill="#000000" transform="translate(0,0)"/>
<path d="" fill="#000000" transform="translate(0,0)"/>
<path d="" fill="#000000" transform="translate(0,0)"/>
<path d="" fill="#000000" transform="translate(0,0)"/>
<path d="" fill="#000000" transform="translate(0,0)"/>
<path d="" fill="#000000" transform="translate(0,0)"/>
<path d="" fill="#000000" transform="translate(0,0)"/>
<path d="" fill="#000000" transform="translate(0,0)"/>
<path d="" fill="#000000" transform="translate(0,0)"/>
<path d="" fill="#000000" transform="translate(0,0)"/>
<path d="" fill="#000000" transform="translate(0,0)"/>
<path d="" fill="#000000" transform="translate(0,0)"/>
<path d="" fill="#000000" transform="translate(0,0)"/>
<path d="" fill="#000000" transform="translate(0,0)"/>
<path d="" fill="#000000" transform="translate(0,0)"/>
<path d="" fill="#000000" transform="translate(0,0)"/>
<path d="" fill="#000000" transform="translate(0,0)"/>
<path d="" fill="#000000" transform="translate(0,0)"/>
<path d="" fill="#000000" transform="translate(0,0)"/>
<path d="" fill="#000000" transform="translate(0,0)"/>
<path d="" fill="#000000" transform="translate(0,0)"/>
<path d="" fill="#000000" transform="translate(0,0)"/>
<path d="" fill="#000000" transform="translate(0,0)"/>
<path d="" fill="#000000" transform="translate(0,0)"/>
<path d="" fill="#000000" transform="translate(0,0)"/>
<path d="" fill="#000000" transform="translate(0,0)"/>
<path d="" fill="#000000" transform="translate(0,0)"/>
<path d="" fill="#000000" transform="translate(0,0)"/>
<path d="" fill="#000000" transform="translate(0,0)"/>
<path d="" fill="#000000" transform="translate(0,0)"/>
<path d="" fill="#000000" transform="translate(0,0)"/>
<path d="" fill="#000000" transform="translate(0,0)"/>
<path d="" fill="#000000" transform="translate(0,0)"/>
<path d="" fill="#000000" transform="translate(0,0)"/>
<path d="" fill="#000000" transform="translate(0,0)"/>
<path d="" fill="#000000" transform="translate(0,0)"/>
<path d="" fill="#000000" transform="translate(0,0)"/>
<path d="" fill="#000000" transform="translate(0,0)"/>
<path d="" fill="#000000" transform="translate(0,0)"/>
<path d="" fill="#000000" transform="translate(0,0)"/>
<path d="" fill="#000000" transform="translate(0,0)"/>
<path d="" fill="#000000" transform="translate(0,0)"/>
<path d="" fill="#000000" transform="translate(0,0)"/>
</svg>
