<?xml version="1.0" encoding="UTF-8"?>
<svg version="1.1" xmlns="http://www.w3.org/2000/svg" width="400" height="400">
<path d="M0 0 C8.95385838 7.34253008 14.46221772 15.81108862 16.75 27.25 C16.75 31.54 16.75 35.83 16.75 40.25 C-1.07 40.58 -18.89 40.91 -37.25 41.25 C-36.26 43.23 -35.27 45.21 -34.25 47.25 C-33.92 48.24 -33.59 49.23 -33.25 50.25 C-30.87374655 51.43391223 -30.87374655 51.43391223 -28.25 52.25 C-27.26 52.58 -26.27 52.91 -25.25 53.25 C-19.98945429 53.64702232 -16.76963043 52.9827998 -12.25 50.25 C-11.59 49.59 -10.93 48.93 -10.25 48.25 C-7.72802734 48.02294922 -7.72802734 48.02294922 -4.5859375 48.0546875 C-3.46445313 48.06113281 -2.34296875 48.06757813 -1.1875 48.07421875 C-0.011875 48.09097656 1.16375 48.10773438 2.375 48.125 C3.55835938 48.13402344 4.74171875 48.14304688 5.9609375 48.15234375 C8.89082523 48.17597188 11.8203134 48.20891486 14.75 48.25 C11.76705343 57.92029655 6.5008714 65.03728957 -2.25 70.25 C-12.35478367 75.15720816 -23.75648509 75.94338818 -34.625 73.125 C-44.56844341 69.5690666 -52.94525815 62.62167349 -57.82421875 53.21484375 C-63.12051974 40.96809618 -63.63960333 29.89073741 -59.25 17.25 C-53.74193963 5.5328534 -46.08489114 -0.7756734 -34.25 -5.75 C-22.85813734 -9.57044175 -9.60490345 -6.72159591 0 0 Z M-36.25 20.25 C-36.58 21.9 -36.91 23.55 -37.25 25.25 C-27.68 25.25 -18.11 25.25 -8.25 25.25 C-9.38256443 19.58717785 -10.5144594 18.15846052 -14.8046875 14.66015625 C-22.86999465 10.00907657 -31.02738564 13.03050368 -36.25 20.25 Z " fill="#000000" transform="translate(185.25,165.75)"/>
<path d="M0 0 C8.6547092 6.03308855 14.67750376 13.62580151 17.76171875 23.71484375 C17.95378906 24.32457031 18.14585937 24.93429688 18.34375 25.5625 C20.48749722 36.60179642 18.98964873 47.8920006 13.01171875 57.40234375 C5.84882079 67.35666518 -2.2409142 72.78959958 -14.23828125 75.71484375 C-25.94137917 76.82450904 -36.51097058 75.50805365 -46.11328125 68.40234375 C-55.30609929 60.58927959 -61.4092726 51.45799309 -62.57421875 39.171875 C-62.71339825 26.18642742 -60.26956395 16.29867328 -51.23828125 6.71484375 C-37.70215146 -6.97440968 -16.76666686 -9.62693438 0 0 Z M-32.96875 21.37109375 C-37.77574503 26.76040884 -38.54900456 30.83191522 -38.4453125 37.99609375 C-38.04249591 43.2859116 -35.78471004 46.41554374 -32.11328125 50.02734375 C-28.08835079 53.25408125 -24.34568595 54.08678619 -19.23828125 53.71484375 C-13.09142589 52.04789992 -9.84412023 48.73639804 -6.23828125 43.71484375 C-3.84151024 38.92130174 -4.40694543 31.47962918 -5.921875 26.44140625 C-8.13423149 22.23701093 -11.03278917 19.77791533 -15.23828125 17.71484375 C-21.92585734 15.94532088 -27.72177246 16.34915588 -32.96875 21.37109375 Z " fill="#000000" transform="translate(341.23828125,164.28515625)"/>
<path d="M0 0 C8.91 0 17.82 0 27 0 C31.5 8.625 31.5 8.625 32.86132812 11.24462891 C36.727264 18.61991809 40.85792732 25.75137282 45 33 C50.61 22.11 56.22 11.22 62 0 C71.24 0 80.48 0 90 0 C86.01125039 7.97749922 81.97520068 15.67056584 77.4375 23.3125 C72.65384382 31.43815382 67.93456001 39.59380389 63.3125 47.8125 C57.62377 57.92328799 51.83750148 67.9744714 46 78 C42.09439667 76.69813222 41.75349685 75.31354055 39.76953125 71.76171875 C39.13942139 70.64531006 38.50931152 69.52890137 37.86010742 68.37866211 C37.17749842 67.14831535 36.49496462 65.91792686 35.8125 64.6875 C35.10164174 63.42205955 34.38979397 62.15717449 33.67700195 60.89282227 C32.19126804 58.2555746 30.70987335 55.61595914 29.23144531 52.97460938 C26.08705115 47.36428523 22.89249641 41.78275347 19.6968689 36.20150757 C18.69205613 34.44546245 17.68915037 32.68834135 16.68676758 30.9309082 C13.66460855 25.63675541 10.62968049 20.35123122 7.55078125 15.08984375 C7.03104736 14.20047119 6.51131348 13.31109863 5.97583008 12.39477539 C5.01995505 10.76275121 4.06038766 9.13288175 3.09643555 7.50561523 C0 2.21976862 0 2.21976862 0 0 Z " fill="#000000" transform="translate(40,161)"/>
<path d="M0 0 C8.91 0 17.82 0 27 0 C32.61 10.89 38.22 21.78 44 33 C48.78845994 25.0711702 48.78845994 25.0711702 53.2109375 16.9921875 C53.68321777 16.0832373 54.15549805 15.17428711 54.64208984 14.23779297 C55.2139502 13.12807129 55.78581055 12.01834961 56.375 10.875 C59.159375 5.491875 59.159375 5.491875 62 0 C70.91 0 79.82 0 89 0 C87.53820878 4.38537367 86.34912604 7.43182046 84.0859375 11.2890625 C83.49772217 12.29912354 82.90950684 13.30918457 82.3034668 14.34985352 C81.66707275 15.43065186 81.03067871 16.5114502 80.375 17.625 C79.36298999 19.36024406 78.35100056 21.09550043 77.34007263 22.83137512 C76.63673886 24.03876664 75.9327599 25.24578254 75.22816467 26.45243835 C71.67848921 32.53516917 68.19079583 38.65263884 64.7069397 44.77322388 C62.40743714 48.80921054 60.09725297 52.83909525 57.7890625 56.87011719 C56.64796775 58.86641013 55.50965259 60.86429625 54.375 62.86425781 C52.98721097 65.31005528 51.58905029 67.74957155 50.1875 70.1875 C49.60198364 71.22982788 49.60198364 71.22982788 49.00463867 72.29321289 C46.34263063 76.88578979 46.34263063 76.88578979 43 78 C42.64921387 77.36835938 42.29842773 76.73671875 41.93701172 76.0859375 C35.39812343 64.3256823 28.8129521 52.60402085 22 41 C16.99142593 32.45617122 12.0509256 23.87720718 7.1875 15.25 C6.58228516 14.18394531 5.97707031 13.11789063 5.35351562 12.01953125 C4.79728516 11.02824219 4.24105469 10.03695312 3.66796875 9.015625 C3.17578857 8.14196289 2.6836084 7.26830078 2.17651367 6.36816406 C1 4 1 4 0 0 Z " fill="#000000" transform="translate(196,161)"/>
</svg>
